{
.appVersion = "983";
DisplayStrings = (
"=>//**as?:d?.v()//as(1..1)",
"::/period_period.liga",
../question_period.liga,
v/question_colon.liga
);
classes = (
{
code = "";
name = DevaIMatras;
},
{
code = "";
name = DevaIMatras;
},
{
code = "";
name = DevaIMatras;
},
{
code = "";
name = DevaIMatras;
}
);
copyright = "Copyright (c) 2017 Sergey Ignatov / Copyright (c) 2016 Christopher Simpkins / Copyright (c) 2003 by Bitstream, Inc. All Rights Reserved.";
customParameters = (
{
name = license;

glyphs = (
{
glyphname = .notdef;
lastChange = "2016-07-20 22:44:41 +0000";
layers = (
{
layerId = "C8600398-8A20-4DEB-92AF-E95853BEE82A";
paths = (
{
closed = 1;
nodes = (
"104 1444 LINE",
"104 -362 LINE",
"1128 -362 LINE",
"1128 1444 LINE"
);
},
{
closed = 1;
nodes = (
"1014 -248 LINE",
"219 -248 LINE",
"219 1329 LINE",
"1014 1329 LINE"
);
}
);
width = 1233;
}
);
note = .notdef;
},
{
glyphname = Acircumflex;
lastChange = "2016-07-20 22:44:41 +0000";
layers = (
{
layerId = "C8600398-8A20-4DEB-92AF-E95853BEE82A";
paths = (
{
closed = 1;
nodes = (
"311 1586 LINE",
"451 1586 LINE",
"616 1764 LINE",
"782 1586 LINE",
"922 1586 LINE",
"711 1852 LINE",
"522 1852 LINE"
);
},
{
closed = 1;
nodes = (
"37 0 LINE",
"246 0 LINE",
"354 389 LINE",
"877 389 LINE",
"987 0 LINE",
"1196 0 LINE",
"739 1493 LINE",
"494 1493 LINE"
);
},
{
closed = 1;
nodes = (
"403 551 LINE",
"616 1315 LINE",
"829 551 LINE"
);
}
);
width = 1233;
}
);
note = Acircumflex;
unicode = 00C2;
},
{
glyphname = Adieresis;
lastChange = "2016-07-20 22:44:41 +0000";
layers = (
{
layerId = "C8600398-8A20-4DEB-92AF-E95853BEE82A";
paths = (
{
closed = 1;
nodes = (
"512 1647 OFFCURVE",
"522 1657 OFFCURVE",
"522 1677 CURVE SMOOTH",
"522 1820 LINE SMOOTH",
"522 1840 OFFCURVE",
"512 1850 OFFCURVE",
"492 1850 CURVE SMOOTH",
"349 1850 LINE SMOOTH",
"329 1850 OFFCURVE",
"319 1840 OFFCURVE",
"319 1820 CURVE SMOOTH",
"319 1677 LINE SMOOTH",
"319 1657 OFFCURVE",
"329 1647 OFFCURVE",
"349 1647 CURVE SMOOTH",
"492 1647 LINE SMOOTH"
);
},
{
closed = 1;
nodes = (
"903 1647 OFFCURVE",
"913 1657 OFFCURVE",
"913 1677 CURVE SMOOTH",
"913 1820 LINE SMOOTH",
"913 1840 OFFCURVE",
"903 1850 OFFCURVE",
"883 1850 CURVE SMOOTH",
"741 1850 LINE SMOOTH",
"721 1850 OFFCURVE",
"711 1840 OFFCURVE",
"711 1820 CURVE SMOOTH",
"711 1677 LINE SMOOTH",
"711 1657 OFFCURVE",
"721 1647 OFFCURVE",
"741 1647 CURVE SMOOTH",
"883 1647 LINE SMOOTH"
);
},
{
closed = 1;
nodes = (
"37 0 LINE",
"246 0 LINE",
"354 389 LINE",
"877 389 LINE",
"987 0 LINE",
"1196 0 LINE",
"739 1493 LINE",
"494 1493 LINE"
);
},
{
closed = 1;
nodes = (
"403 551 LINE",
"616 1315 LINE",
"829 551 LINE"
);
}
);
width = 1233;
}
);
note = Adieresis;
unicode = 00C4;
},
{
glyphname = Agrave;
lastChange = "2016-07-20 22:44:41 +0000";
layers = (
{
layerId = "C8600398-8A20-4DEB-92AF-E95853BEE82A";
paths = (
{
closed = 1;
nodes = (
"585 1585 LINE",
"739 1585 LINE",
"542 1849 LINE",
"358 1849 LINE"
);
},
{
closed = 1;
nodes = (
"37 0 LINE",
"246 0 LINE",
"354 389 LINE",
"877 389 LINE",
"987 0 LINE",
"1196 0 LINE",
"739 1493 LINE",
"494 1493 LINE"
);
},
{
closed = 1;
nodes = (
"403 551 LINE",
"616 1315 LINE",
"829 551 LINE"
);
}
);
width = 1233;
}
);
note = Agrave;
unicode = 00C0;
},
{
glyphname = Amacron;
lastChange = "2016-07-20 22:44:41 +0000";
layers = (
{
layerId = "C8600398-8A20-4DEB-92AF-E95853BEE82A";
paths = (
{
closed = 1;
nodes = (
"317 1652 LINE",
"915 1652 LINE",
"915 1800 LINE",
"317 1800 LINE"
);
},
{
closed = 1;
nodes = (
"37 0 LINE",
"246 0 LINE",
"354 389 LINE",
"877 389 LINE",
"987 0 LINE",
"1196 0 LINE",
"739 1493 LINE",
"494 1493 LINE"
);
},
{
closed = 1;
nodes = (
"403 551 LINE",
"616 1315 LINE",
"829 551 LINE"
);
}
);
width = 1233;
}
);
note = Amacron;
unicode = 0100;
},
{
glyphname = Aogonek;
lastChange = "2016-07-20 22:44:41 +0000";
layers = (
{
layerId = "C8600398-8A20-4DEB-92AF-E95853BEE82A";
paths = (
{
closed = 1;
nodes = (
"1052 -272 OFFCURVE",
"1014 -240 OFFCURVE",
"1014 -184 CURVE SMOOTH",
"1014 -139 OFFCURVE",
"1038 -87 OFFCURVE",
"1102 0 CURVE",
"1196 0 LINE",
"739 1493 LINE",
"494 1493 LINE",
"37 0 LINE",
"246 0 LINE",
"354 389 LINE",
"877 389 LINE",
"987 0 LINE",
"983 0 LINE",
"904 -89 OFFCURVE",
"875 -154 OFFCURVE",
"875 -222 CURVE SMOOTH",
"875 -337 OFFCURVE",
"952 -395 OFFCURVE",
"1106 -395 CURVE SMOOTH",
"1150 -395 OFFCURVE",
"1173 -391 OFFCURVE",
"1233 -375 CURVE",
"1233 -242 LINE",
"1189 -263 OFFCURVE",
"1163 -272 OFFCURVE",
"1124 -272 CURVE SMOOTH"
);
},
{
closed = 1;
nodes = (
"403 551 LINE",
"616 1315 LINE",
"829 551 LINE"
);
}
);
width = 1233;
}
);
note = Aogonek;
unicode = 0104;
},
{
glyphname = Aring;
lastChange = "2016-07-20 22:44:41 +0000";
layers = (
{
layerId = "C8600398-8A20-4DEB-92AF-E95853BEE82A";
paths = (
{
closed = 1;
nodes = (
"246 0 LINE",
"354 389 LINE",
"877 389 LINE",
"987 0 LINE",
"1196 0 LINE",
"768 1399 LINE",
"848 1450 OFFCURVE",
"891 1529 OFFCURVE",
"891 1625 CURVE SMOOTH",
"891 1704 OFFCURVE",
"861 1772 OFFCURVE",
"812 1821 CURVE SMOOTH",
"761 1872 OFFCURVE",
"692 1901 OFFCURVE",
"616 1901 CURVE SMOOTH",
"541 1901 OFFCURVE",
"471 1871 OFFCURVE",
"422 1822 CURVE SMOOTH",
"371 1771 OFFCURVE",
"342 1702 OFFCURVE",
"342 1625 CURVE SMOOTH",
"342 1526 OFFCURVE",
"388 1443 OFFCURVE",
"465 1399 CURVE",
"37 0 LINE"
);
},
{
closed = 1;
nodes = (
"532 1475 OFFCURVE",
"465 1542 OFFCURVE",
"465 1626 CURVE SMOOTH",
"465 1713 OFFCURVE",
"531 1778 OFFCURVE",
"615 1778 CURVE SMOOTH",
"702 1778 OFFCURVE",
"768 1711 OFFCURVE",
"768 1626 CURVE SMOOTH",
"768 1542 OFFCURVE",
"701 1475 OFFCURVE",
"616 1475 CURVE SMOOTH"
);
},
{
closed = 1;
nodes = (
"403 551 LINE",
"616 1311 LINE",
"829 551 LINE"
);
}
);
width = 1233;
}
);
note = Aring;
unicode = 00C5;
},
{
glyphname = Atilde;
lastChange = "2016-07-20 22:44:41 +0000";
layers = (
{
layerId = "C8600398-8A20-4DEB-92AF-E95853BEE82A";
paths = (
{
closed = 1;
nodes = (
"412 1593 LINE SMOOTH",
"412 1652 OFFCURVE",
"440 1688 OFFCURVE",
"485 1688 CURVE SMOOTH",
"505 1688 OFFCURVE",
"534 1676 OFFCURVE",
"555 1663 CURVE SMOOTH",
"612 1630 LINE",
"684 1593 OFFCURVE",
"718 1587 OFFCURVE",
"757 1587 CURVE SMOOTH",
"870 1587 OFFCURVE",
"943 1673 OFFCURVE",
"946 1806 CURVE",
"821 1806 LINE",
"821 1800 LINE SMOOTH",
"821 1747 OFFCURVE",
"791 1708 OFFCURVE",
"750 1708 CURVE SMOOTH",
"729 1708 OFFCURVE",
"705 1716 OFFCURVE",
"678 1733 CURVE",
"621 1763 LINE SMOOTH",
"552 1800 OFFCURVE",
"515 1806 OFFCURVE",
"476 1806 CURVE SMOOTH",
"361 1806 OFFCURVE",
"287 1720 OFFCURVE",
"287 1587 CURVE",
"412 1587 LINE"
);
},
{
closed = 1;
nodes = (
"37 0 LINE",
"246 0 LINE",
"354 389 LINE",
"877 389 LINE",
"987 0 LINE",
"1196 0 LINE",
"739 1493 LINE",
"494 1493 LINE"
);
},
{
closed = 1;
nodes = (
"403 551 LINE",
"616 1315 LINE",
"829 551 LINE"
);
}
);
width = 1233;
}
);
note = Atilde;
unicode = 00C3;
},
{
glyphname = AE;
lastChange = "2016-07-20 22:44:41 +0000";
layers = (
{
layerId = "C8600398-8A20-4DEB-92AF-E95853BEE82A";
paths = (
{
closed = 1;
nodes = (
"0 0 LINE",
"184 0 LINE",
"285 383 LINE",
"637 383 LINE",
"637 0 LINE",
"1180 0 LINE",
"1180 170 LINE",
"823 170 LINE",
"823 711 LINE",
"1130 711 LINE",
"1130 881 LINE",
"823 881 LINE",
"823 1323 LINE",
"1161 1323 LINE",
"1161 1493 LINE",
"410 1493 LINE"
);
},
{
closed = 1;
nodes = (
"328 551 LINE",
"530 1323 LINE",
"637 1323 LINE",
"637 551 LINE"
);
}
);
width = 1233;
}
);
note = AE;
unicode = 00C6;
},
{
glyphname = B;
lastChange = "2016-07-20 22:44:41 +0000";
layers = (
{
layerId = "C8600398-8A20-4DEB-92AF-E95853BEE82A";
paths = (
{
closed = 1;
nodes = (
"166 0 LINE",
"608 0 LINE SMOOTH",
"957 0 OFFCURVE",
"1137 140 OFFCURVE",
"1137 409 CURVE SMOOTH",
"1137 625 OFFCURVE",
"1020 770 OFFCURVE",
"823 799 CURVE",
"909 812 OFFCURVE",
"975 845 OFFCURVE",
"1020 898 CURVE SMOOTH",
"1063 952 OFFCURVE",
"1085 1024 OFFCURVE",
"1085 1113 CURVE SMOOTH",
"1085 1356 OFFCURVE",
"913 1493 OFFCURVE",
"608 1493 CURVE SMOOTH",
"166 1493 LINE"
);
},
{
closed = 1;
nodes = (
"369 1327 LINE",
"604 1327 LINE SMOOTH",
"801 1327 OFFCURVE",
"881 1267 OFFCURVE",
"881 1111 CURVE SMOOTH",
"881 1030 OFFCURVE",
"859 971 OFFCURVE",
"816 934 CURVE SMOOTH",
"772 895 OFFCURVE",
"705 877 OFFCURVE",
"604 877 CURVE SMOOTH",
"369 877 LINE"
);
},
{
closed = 1;
nodes = (
"369 713 LINE",
"608 713 LINE SMOOTH",
"831 713 OFFCURVE",
"934 625 OFFCURVE",
"934 430 CURVE SMOOTH",
"934 243 OFFCURVE",
"840 166 OFFCURVE",
"608 166 CURVE SMOOTH",
"369 166 LINE"
);
}
);
width = 1233;
}
);
note = B;
unicode = 0042;
},
{
glyphname = C;
lastChange = "2016-07-20 22:44:41 +0000";
layers = (
{
layerId = "C8600398-8A20-4DEB-92AF-E95853BEE82A";
paths = (
{
closed = 1;
nodes = (
"866 -29 OFFCURVE",
"968 -2 OFFCURVE",
"1073 53 CURVE",
"1073 260 LINE",
"976 179 OFFCURVE",
"858 135 OFFCURVE",
"743 135 CURVE SMOOTH",
"480 135 OFFCURVE",
"350 337 OFFCURVE",
"350 745 CURVE SMOOTH",
"350 1154 OFFCURVE",
"481 1356 OFFCURVE",
"741 1356 CURVE SMOOTH",
"856 1356 OFFCURVE",
"974 1314 OFFCURVE",
"1073 1231 CURVE",
"1073 1438 LINE",
"1026 1463 OFFCURVE",
"966 1488 OFFCURVE",
"915 1500 CURVE SMOOTH",
"862 1513 OFFCURVE",
"804 1520 OFFCURVE",
"742 1520 CURVE SMOOTH",
"362 1520 OFFCURVE",
"139 1235 OFFCURVE",
"139 744 CURVE SMOOTH",
"139 501 OFFCURVE",
"192 311 OFFCURVE",
"297 174 CURVE SMOOTH",
"403 39 OFFCURVE",
"551 -29 OFFCURVE",
"742 -29 CURVE SMOOTH"
);
}
);
width = 1233;
}
);
note = C;
unicode = 0043;
},
{
glyphname = Cacute;
lastChange = "2016-07-20 22:44:41 +0000";
layers = (
{
layerId = "C8600398-8A20-4DEB-92AF-E95853BEE82A";
paths = (
{
closed = 1;
nodes = (
"565 1588 LINE",
"719 1588 LINE",
"948 1852 LINE",
"762 1852 LINE"
);
},
{
closed = 1;
nodes = (
"866 -29 OFFCURVE",
"968 -2 OFFCURVE",
"1073 53 CURVE",
"1073 260 LINE",
"976 179 OFFCURVE",
"858 135 OFFCURVE",
"742 135 CURVE SMOOTH",
"483 135 OFFCURVE",
"350 337 OFFCURVE",
"350 745 CURVE SMOOTH",
"350 1154 OFFCURVE",
"481 1356 OFFCURVE",
"741 1356 CURVE SMOOTH",
"856 1356 OFFCURVE",
"974 1314 OFFCURVE",
"1073 1231 CURVE",
"1073 1438 LINE",
"968 1494 OFFCURVE",
"866 1520 OFFCURVE",
"742 1520 CURVE SMOOTH",
"553 1520 OFFCURVE",
"403 1449 OFFCURVE",
"298 1316 CURVE SMOOTH",
"192 1180 OFFCURVE",
"139 989 OFFCURVE",
"139 744 CURVE SMOOTH",
"139 501 OFFCURVE",
"192 311 OFFCURVE",
"297 174 CURVE SMOOTH",
"401 41 OFFCURVE",
"551 -29 OFFCURVE",
"742 -29 CURVE SMOOTH"
);
}
);
width = 1233;
}
);
note = Cacute;
unicode = 0106;
},
{
glyphname = Ccaron;
lastChange = "2016-07-20 22:44:41 +0000";
layers = (
{
layerId = "C8600398-8A20-4DEB-92AF-E95853BEE82A";
paths = (
{
closed = 1;
nodes = (
"612 1586 LINE",
"801 1586 LINE",
"1012 1852 LINE",
"872 1852 LINE",
"706 1674 LINE",
"541 1852 LINE",
"401 1852 LINE"
);
},
{
closed = 1;
nodes = (
"866 -29 OFFCURVE",
"968 -2 OFFCURVE",
"1073 53 CURVE",
"1073 260 LINE",
"976 179 OFFCURVE",
"858 135 OFFCURVE",
"742 135 CURVE SMOOTH",
"483 135 OFFCURVE",
"350 337 OFFCURVE",
"350 745 CURVE SMOOTH",
"350 1154 OFFCURVE",
"481 1356 OFFCURVE",
"741 1356 CURVE SMOOTH",
"856 1356 OFFCURVE",
"974 1314 OFFCURVE",
"1073 1231 CURVE",
"1073 1438 LINE",
"968 1494 OFFCURVE",
"866 1520 OFFCURVE",
"742 1520 CURVE SMOOTH",
"553 1520 OFFCURVE",
"403 1449 OFFCURVE",
"298 1316 CURVE SMOOTH",
"192 1180 OFFCURVE",
"139 989 OFFCURVE",
"139 744 CURVE SMOOTH",
"139 501 OFFCURVE",
"192 311 OFFCURVE",
"297 174 CURVE SMOOTH",
"401 41 OFFCURVE",
"551 -29 OFFCURVE",
"742 -29 CURVE SMOOTH"
);
}
);
width = 1233;
}
);
note = Ccaron;
unicode = 010C;
},
{
glyphname = Ccedilla;
lastChange = "2016-07-20 22:44:41 +0000";
layers = (
{
layerId = "C8600398-8A20-4DEB-92AF-E95853BEE82A";
paths = (
{
closed = 1;
nodes = (
"856 1356 OFFCURVE",
"974 1314 OFFCURVE",
"1073 1231 CURVE",
"1073 1438 LINE",
"968 1494 OFFCURVE",
"866 1520 OFFCURVE",
"742 1520 CURVE SMOOTH",
"553 1520 OFFCURVE",
"403 1449 OFFCURVE",
"298 1316 CURVE SMOOTH",
"192 1180 OFFCURVE",
"139 989 OFFCURVE",
"139 744 CURVE SMOOTH",
"139 501 OFFCURVE",
"192 311 OFFCURVE",
"297 174 CURVE SMOOTH",
"394 51 OFFCURVE",
"528 -17 OFFCURVE",
"701 -28 CURVE",
"736 -79 OFFCURVE",
"770 -137 OFFCURVE",
"770 -180 CURVE SMOOTH",
"770 -239 OFFCURVE",
"731 -272 OFFCURVE",
"646 -272 CURVE SMOOTH",
"587 -272 OFFCURVE",
"546 -264 OFFCURVE",
"495 -240 CURVE",
"495 -371 LINE",
"551 -387 OFFCURVE",
"611 -395 OFFCURVE",
"670 -395 CURVE SMOOTH",
"749 -395 OFFCURVE",
"808 -380 OFFCURVE",
"849 -350 CURVE SMOOTH",
"889 -319 OFFCURVE",
"909 -272 OFFCURVE",
"909 -219 CURVE SMOOTH",
"909 -152 OFFCURVE",
"879 -94 OFFCURVE",
"822 -25 CURVE",
"851 -22 OFFCURVE",
"882 -17 OFFCURVE",
"915 -9 CURVE SMOOTH",
"968 5 OFFCURVE",
"1020 26 OFFCURVE",
"1073 53 CURVE",
"1073 260 LINE",
"976 179 OFFCURVE",
"858 135 OFFCURVE",
"742 135 CURVE SMOOTH",
"483 135 OFFCURVE",
"350 337 OFFCURVE",
"350 745 CURVE SMOOTH",
"350 1154 OFFCURVE",
"481 1356 OFFCURVE",
"741 1356 CURVE SMOOTH"
);
}
);
width = 1233;
}
);
note = Ccedilla;
unicode = 00C7;
},
{
glyphname = Cdotaccent;
lastChange = "2016-07-20 22:44:41 +0000";
layers = (
{
layerId = "C8600398-8A20-4DEB-92AF-E95853BEE82A";
paths = (
{
closed = 1;
nodes = (
"783 1647 OFFCURVE",
"793 1657 OFFCURVE",
"793 1677 CURVE SMOOTH",
"793 1822 LINE SMOOTH",
"793 1842 OFFCURVE",
"783 1852 OFFCURVE",
"763 1852 CURVE SMOOTH",
"618 1852 LINE SMOOTH",
"598 1852 OFFCURVE",
"588 1842 OFFCURVE",
"588 1822 CURVE SMOOTH",
"588 1677 LINE SMOOTH",
"588 1657 OFFCURVE",
"598 1647 OFFCURVE",
"618 1647 CURVE SMOOTH",
"763 1647 LINE SMOOTH"
);
},
{
closed = 1;
nodes = (
"864 -29 OFFCURVE",
"969 -3 OFFCURVE",
"1073 53 CURVE",
"1073 260 LINE",
"976 179 OFFCURVE",
"860 135 OFFCURVE",
"740 135 CURVE SMOOTH",
"480 135 OFFCURVE",
"350 338 OFFCURVE",
"350 745 CURVE SMOOTH",
"350 1152 OFFCURVE",
"480 1356 OFFCURVE",
"740 1356 CURVE SMOOTH",
"861 1356 OFFCURVE",
"972 1314 OFFCURVE",
"1073 1231 CURVE",
"1073 1438 LINE",
"969 1494 OFFCURVE",
"864 1520 OFFCURVE",
"745 1520 CURVE SMOOTH",
"618 1520 OFFCURVE",
"509 1489 OFFCURVE",
"418 1428 CURVE SMOOTH",
"237 1305 OFFCURVE",
"139 1068 OFFCURVE",
"139 743 CURVE SMOOTH",
"139 581 OFFCURVE",
"163 442 OFFCURVE",
"210 327 CURVE SMOOTH",
"305 95 OFFCURVE",
"489 -29 OFFCURVE",
"744 -29 CURVE SMOOTH"
);
}
);
width = 1233;
}
);
note = Cdotaccent;
unicode = 010A;
},
{
glyphname = D;
lastChange = "2016-07-20 22:44:41 +0000";
layers = (
{
layerId = "C8600398-8A20-4DEB-92AF-E95853BEE82A";
paths = (
{
closed = 1;
nodes = (
"137 0 LINE",
"440 0 LINE SMOOTH",
"896 0 OFFCURVE",
"1106 237 OFFCURVE",
"1106 745 CURVE SMOOTH",
"1106 1257 OFFCURVE",
"896 1493 OFFCURVE",
"440 1493 CURVE SMOOTH",
"137 1493 LINE"
);
},
{
closed = 1;
nodes = (
"340 1327 LINE",
"436 1327 LINE SMOOTH",
"779 1327 OFFCURVE",
"893 1188 OFFCURVE",
"893 747 CURVE SMOOTH",
"893 523 OFFCURVE",
"860 376 OFFCURVE",
"792 292 CURVE SMOOTH",
"725 208 OFFCURVE",
"607 166 OFFCURVE",
"436 166 CURVE SMOOTH",
"340 166 LINE"
);
}
);
width = 1233;
}
);
note = D;
unicode = 0044;
},
{
glyphname = Eth;
lastChange = "2016-07-20 22:44:41 +0000";
layers = (
{
layerId = "C8600398-8A20-4DEB-92AF-E95853BEE82A";
paths = (
{
closed = 1;
nodes = (
"133 0 LINE",
"436 0 LINE SMOOTH",
"891 0 OFFCURVE",
"1102 237 OFFCURVE",
"1102 746 CURVE SMOOTH",
"1102 1258 OFFCURVE",
"892 1493 OFFCURVE",
"436 1493 CURVE SMOOTH",
"133 1493 LINE",
"133 858 LINE",
"8 858 LINE",
"8 709 LINE",
"133 709 LINE"
);
},
{
closed = 1;
nodes = (
"340 709 LINE",
"604 709 LINE",
"604 858 LINE",
"340 858 LINE",
"340 1327 LINE",
"436 1327 LINE SMOOTH",
"611 1327 OFFCURVE",
"721 1288 OFFCURVE",
"792 1200 CURVE SMOOTH",
"860 1112 OFFCURVE",
"893 976 OFFCURVE",
"893 748 CURVE SMOOTH",
"893 523 OFFCURVE",
"860 381 OFFCURVE",
"791 293 CURVE SMOOTH",
"723 208 OFFCURVE",
"615 166 OFFCURVE",
"436 166 CURVE SMOOTH",
"340 166 LINE"
);
}
);
width = 1233;
}
);
note = Eth;
unicode = 00D0;
},
{
glyphname = Dcaron;
lastChange = "2016-07-20 22:44:41 +0000";
layers = (
{
layerId = "C8600398-8A20-4DEB-92AF-E95853BEE82A";
paths = (
{
closed = 1;
nodes = (
"444 1586 LINE",
"633 1586 LINE",
"844 1852 LINE",
"704 1852 LINE",
"538 1674 LINE",
"373 1852 LINE",
"233 1852 LINE"
);
},
{
closed = 1;
nodes = (
"137 0 LINE",
"440 0 LINE SMOOTH",
"593 0 OFFCURVE",
"718 27 OFFCURVE",
"816 81 CURVE SMOOTH",
"1012 188 OFFCURVE",
"1106 406 OFFCURVE",
"1106 747 CURVE SMOOTH",
"1106 917 OFFCURVE",
"1082 1057 OFFCURVE",
"1035 1167 CURVE SMOOTH",
"939 1387 OFFCURVE",
"745 1493 OFFCURVE",
"440 1493 CURVE SMOOTH",
"137 1493 LINE"
);
},
{
closed = 1;
nodes = (
"340 1327 LINE",
"436 1327 LINE SMOOTH",
"551 1327 OFFCURVE",
"642 1309 OFFCURVE",
"708 1273 CURVE SMOOTH",
"839 1201 OFFCURVE",
"893 1043 OFFCURVE",
"893 746 CURVE SMOOTH",
"893 598 OFFCURVE",
"879 482 OFFCURVE",
"850 399 CURVE SMOOTH",
"792 232 OFFCURVE",
"668 166 OFFCURVE",
"436 166 CURVE SMOOTH",
"340 166 LINE"
);
}
);
width = 1233;
}
);
note = Dcaron;
unicode = 010E;
},
{
glyphname = Dcroat;
lastChange = "2016-07-20 22:44:41 +0000";
layers = (
{
layerId = "C8600398-8A20-4DEB-92AF-E95853BEE82A";
paths = (
{
closed = 1;
nodes = (
"133 0 LINE",
"436 0 LINE SMOOTH",
"589 0 OFFCURVE",
"714 27 OFFCURVE",
"812 81 CURVE SMOOTH",
"1008 188 OFFCURVE",
"1102 406 OFFCURVE",
"1102 746 CURVE SMOOTH",
"1102 917 OFFCURVE",
"1078 1057 OFFCURVE",
"1030 1167 CURVE SMOOTH",
"934 1387 OFFCURVE",
"740 1493 OFFCURVE",
"436 1493 CURVE SMOOTH",
"133 1493 LINE",
"133 858 LINE",
"8 858 LINE",
"8 709 LINE",
"133 709 LINE"
);
},
{
closed = 1;
nodes = (
"340 709 LINE",
"604 709 LINE",
"604 858 LINE",
"340 858 LINE",
"340 1327 LINE",
"436 1327 LINE SMOOTH",
"551 1327 OFFCURVE",
"642 1309 OFFCURVE",
"708 1273 CURVE SMOOTH",
"839 1201 OFFCURVE",
"893 1043 OFFCURVE",
"893 746 CURVE SMOOTH",
"893 598 OFFCURVE",
"879 482 OFFCURVE",
"850 399 CURVE SMOOTH",
"792 232 OFFCURVE",
"668 166 OFFCURVE",
"436 166 CURVE SMOOTH",
"340 166 LINE"
);
}
);
width = 1233;
}
);
note = Dcroat;
unicode = 0110;
},
{
glyphname = E;
lastChange = "2016-07-20 22:44:41 +0000";
layers = (
{
layerId = "C8600398-8A20-4DEB-92AF-E95853BEE82A";
paths = (
{
closed = 1;
nodes = (
"197 0 LINE",
"1102 0 LINE",
"1102 170 LINE",
"399 170 LINE",
"399 711 LINE",
"1053 711 LINE",
"1053 881 LINE",
"399 881 LINE",
"399 1323 LINE",
"1083 1323 LINE",
"1083 1493 LINE",
"197 1493 LINE"
);
}
);
width = 1233;
}
);
note = E;
unicode = 0045;
},
{
glyphname = Eacute;
lastChange = "2016-07-20 22:44:41 +0000";
layers = (
{
layerId = "C8600398-8A20-4DEB-92AF-E95853BEE82A";
paths = (
{
closed = 1;
nodes = (
"493 1592 LINE",
"647 1592 LINE",
"876 1856 LINE",
"690 1856 LINE"
);
},
{
closed = 1;
nodes = (
"197 0 LINE",
"1102 0 LINE",
"1102 170 LINE",
"399 170 LINE",
"399 711 LINE",
"1053 711 LINE",
"1053 881 LINE",
"399 881 LINE",
"399 1323 LINE",
"1083 1323 LINE",
"1083 1493 LINE",
"197 1493 LINE"
);
}
);
width = 1233;
}
);
note = Eacute;
unicode = 00C9;
},
{
glyphname = Ecaron;
lastChange = "2016-07-20 22:44:41 +0000";
layers = (
{
layerId = "C8600398-8A20-4DEB-92AF-E95853BEE82A";
paths = (
{
closed = 1;
nodes = (
"558 1586 LINE",
"747 1586 LINE",
"958 1852 LINE",
"818 1852 LINE",
"652 1674 LINE",
"487 1852 LINE",
"347 1852 LINE"
);
},
{
closed = 1;
nodes = (
"197 0 LINE",
"1102 0 LINE",
"1102 170 LINE",
"399 170 LINE",
"399 711 LINE",
"1053 711 LINE",
"1053 881 LINE",
"399 881 LINE",
"399 1323 LINE",
"1083 1323 LINE",
"1083 1493 LINE",
"197 1493 LINE"
);
}
);
width = 1233;
}
);
note = Ecaron;
unicode = 011A;
},
{
glyphname = Ecircumflex;
lastChange = "2016-07-20 22:44:41 +0000";
layers = (
{
layerId = "C8600398-8A20-4DEB-92AF-E95853BEE82A";
paths = (
{
closed = 1;
nodes = (
"329 1586 LINE",
"469 1586 LINE",
"634 1764 LINE",
"800 1586 LINE",
"940 1586 LINE",
"729 1852 LINE",
"540 1852 LINE"
);
},
{
closed = 1;
nodes = (
"197 0 LINE",
"1102 0 LINE",
"1102 170 LINE",
"399 170 LINE",
"399 711 LINE",
"1053 711 LINE",
"1053 881 LINE",
"399 881 LINE",
"399 1323 LINE",
"1083 1323 LINE",
"1083 1493 LINE",
"197 1493 LINE"
);
}
);
width = 1233;
}
);
note = Ecircumflex;
unicode = 00CA;
},
{
glyphname = Edieresis;
lastChange = "2016-07-20 22:44:41 +0000";
layers = (
{
layerId = "C8600398-8A20-4DEB-92AF-E95853BEE82A";
paths = (
{
closed = 1;
nodes = (
"530 1647 OFFCURVE",
"540 1657 OFFCURVE",
"540 1677 CURVE SMOOTH",
"540 1820 LINE SMOOTH",
"540 1840 OFFCURVE",
"530 1850 OFFCURVE",
"510 1850 CURVE SMOOTH",
"367 1850 LINE SMOOTH",
"347 1850 OFFCURVE",
"337 1840 OFFCURVE",
"337 1820 CURVE SMOOTH",
"337 1677 LINE SMOOTH",
"337 1657 OFFCURVE",
"347 1647 OFFCURVE",
"367 1647 CURVE SMOOTH",
"510 1647 LINE SMOOTH"
);
},
{
closed = 1;
nodes = (
"921 1647 OFFCURVE",
"931 1657 OFFCURVE",
"931 1677 CURVE SMOOTH",
"931 1820 LINE SMOOTH",
"931 1840 OFFCURVE",
"921 1850 OFFCURVE",
"901 1850 CURVE SMOOTH",
"759 1850 LINE SMOOTH",
"739 1850 OFFCURVE",
"729 1840 OFFCURVE",
"729 1820 CURVE SMOOTH",
"729 1677 LINE SMOOTH",
"729 1657 OFFCURVE",
"739 1647 OFFCURVE",
"759 1647 CURVE SMOOTH",
"901 1647 LINE SMOOTH"
);
},
{
closed = 1;
nodes = (
"197 0 LINE",
"1102 0 LINE",
"1102 170 LINE",
"399 170 LINE",
"399 711 LINE",
"1053 711 LINE",
"1053 881 LINE",
"399 881 LINE",
"399 1323 LINE",
"1083 1323 LINE",
"1083 1493 LINE",
"197 1493 LINE"
);
}
);
width = 1233;
}
);
note = Edieresis;
unicode = 00CB;
},
{
glyphname = Edotaccent;
lastChange = "2016-07-20 22:44:41 +0000";
layers = (
{
layerId = "C8600398-8A20-4DEB-92AF-E95853BEE82A";
paths = (
{
closed = 1;
nodes = (
"726 1647 OFFCURVE",
"736 1657 OFFCURVE",
"736 1677 CURVE SMOOTH",
"736 1822 LINE SMOOTH",
"736 1842 OFFCURVE",
"726 1852 OFFCURVE",
"706 1852 CURVE SMOOTH",
"561 1852 LINE SMOOTH",
"541 1852 OFFCURVE",
"531 1842 OFFCURVE",
"531 1822 CURVE SMOOTH",
"531 1677 LINE SMOOTH",
"531 1657 OFFCURVE",
"541 1647 OFFCURVE",
"561 1647 CURVE SMOOTH",
"706 1647 LINE SMOOTH"
);
},
{
closed = 1;
nodes = (
"197 0 LINE",
"1102 0 LINE",
"1102 170 LINE",
"399 170 LINE",
"399 711 LINE",
"1053 711 LINE",
"1053 881 LINE",
"399 881 LINE",
"399 1323 LINE",
"1083 1323 LINE",
"1083 1493 LINE",
"197 1493 LINE"
);
}
);
width = 1233;
}
);
note = Edotaccent;
unicode = 0116;
},
{
glyphname = Egrave;
lastChange = "2016-07-20 22:44:41 +0000";
layers = (
{
layerId = "C8600398-8A20-4DEB-92AF-E95853BEE82A";
paths = (
{
closed = 1;
nodes = (
"622 1592 LINE",
"776 1592 LINE",
"579 1856 LINE",
"395 1856 LINE"
);
},
{
closed = 1;
nodes = (
"197 0 LINE",
"1102 0 LINE",
"1102 170 LINE",
"399 170 LINE",
"399 711 LINE",
"1053 711 LINE",
"1053 881 LINE",
"399 881 LINE",
"399 1323 LINE",
"1083 1323 LINE",
"1083 1493 LINE",
"197 1493 LINE"
);
}
);
width = 1233;
}
);
note = Egrave;
unicode = 00C8;
},
{
glyphname = Emacron;
lastChange = "2016-07-20 22:44:41 +0000";
layers = (
{
layerId = "C8600398-8A20-4DEB-92AF-E95853BEE82A";
paths = (
{
closed = 1;
nodes = (
"335 1652 LINE",
"933 1652 LINE",
"933 1800 LINE",
"335 1800 LINE"
);
},
{
closed = 1;
nodes = (
"197 0 LINE",
"1102 0 LINE",
"1102 170 LINE",
"399 170 LINE",
"399 711 LINE",
"1053 711 LINE",
"1053 881 LINE",
"399 881 LINE",
"399 1323 LINE",
"1083 1323 LINE",
"1083 1493 LINE",
"197 1493 LINE"
);
}
);
width = 1233;
}
);
note = Emacron;
unicode = 0112;
},
{
glyphname = Eogonek;
lastChange = "2016-07-20 22:44:41 +0000";
layers = (
{
layerId = "C8600398-8A20-4DEB-92AF-E95853BEE82A";
paths = (
{
closed = 1;
nodes = (
"1102 170 LINE",
"399 170 LINE",
"399 711 LINE",
"1053 711 LINE",
"1053 881 LINE",
"399 881 LINE",
"399 1323 LINE",
"1083 1323 LINE",
"1083 1493 LINE",
"197 1493 LINE",
"197 0 LINE",
"833 0 LINE",
"753 -91 OFFCURVE",
"725 -153 OFFCURVE",
"725 -221 CURVE SMOOTH",
"725 -337 OFFCURVE",
"802 -395 OFFCURVE",
"955 -395 CURVE SMOOTH",
"1004 -395 OFFCURVE",
"1042 -390 OFFCURVE",
"1098 -375 CURVE",
"1098 -242 LINE",
"1057 -262 OFFCURVE",
"1016 -272 OFFCURVE",
"974 -272 CURVE SMOOTH",
"902 -272 OFFCURVE",
"864 -240 OFFCURVE",
"864 -184 CURVE SMOOTH",
"864 -139 OFFCURVE",
"888 -87 OFFCURVE",
"952 0 CURVE",
"1102 0 LINE"
);
}
);
width = 1233;
}
);
note = Eogonek;
unicode = 0118;
},
{
glyphname = F;
lastChange = "2016-07-20 22:44:41 +0000";
layers = (
{
layerId = "C8600398-8A20-4DEB-92AF-E95853BEE82A";
paths = (
{
closed = 1;
nodes = (
"233 0 LINE",
"436 0 LINE",
"436 693 LINE",
"1049 693 LINE",
"1049 863 LINE",
"436 863 LINE",
"436 1323 LINE",
"1112 1323 LINE",
"1112 1493 LINE",
"233 1493 LINE"
);
}
);
width = 1233;
}
);
note = F;
unicode = 0046;
},
{
glyphname = G;
lastChange = "2016-07-20 22:44:41 +0000";
layers = (
{
layerId = "C8600398-8A20-4DEB-92AF-E95853BEE82A";
paths = (
{
closed = 1;
nodes = (
"860 -29 OFFCURVE",
"995 22 OFFCURVE",
"1104 123 CURVE",
"1104 766 LINE",
"694 766 LINE",
"694 600 LINE",
"911 600 LINE",
"911 199 LINE",
"864 160 OFFCURVE",
"791 135 OFFCURVE",
"703 135 CURVE SMOOTH",
"570 135 OFFCURVE",
"472 185 OFFCURVE",
"409 285 CURVE SMOOTH",
"345 386 OFFCURVE",
"313 534 OFFCURVE",
"313 743 CURVE SMOOTH",
"313 952 OFFCURVE",
"345 1101 OFFCURVE",
"412 1204 CURVE SMOOTH",
"480 1307 OFFCURVE",
"575 1356 OFFCURVE",
"706 1356 CURVE SMOOTH",
"770 1356 OFFCURVE",
"830 1344 OFFCURVE",
"887 1320 CURVE SMOOTH",
"947 1293 OFFCURVE",
"1002 1255 OFFCURVE",
"1053 1206 CURVE",
"1053 1413 LINE",
"949 1484 OFFCURVE",
"834 1520 OFFCURVE",
"703 1520 CURVE SMOOTH",
"516 1520 OFFCURVE",
"366 1450 OFFCURVE",
"262 1317 CURVE SMOOTH",
"157 1182 OFFCURVE",
"102 989 OFFCURVE",
"102 744 CURVE SMOOTH",
"102 259 OFFCURVE",
"323 -29 OFFCURVE",
"700 -29 CURVE SMOOTH"
);
}
);
width = 1233;
}
);
note = G;
unicode = 0047;
},
{
glyphname = Gbreve;
lastChange = "2016-07-20 22:44:41 +0000";
layers = (
{
layerId = "C8600398-8A20-4DEB-92AF-E95853BEE82A";
paths = (
{
closed = 1;
nodes = (
"849 1589 OFFCURVE",
"955 1671 OFFCURVE",
"970 1831 CURVE",
"851 1831 LINE",
"831 1757 OFFCURVE",
"767 1720 OFFCURVE",
"658 1720 CURVE SMOOTH",
"546 1720 OFFCURVE",
"478 1759 OFFCURVE",
"462 1831 CURVE",
"343 1831 LINE",
"358 1670 OFFCURVE",
"463 1589 OFFCURVE",
"656 1589 CURVE SMOOTH"
);
},
{
closed = 1;
nodes = (
"860 -29 OFFCURVE",
"995 22 OFFCURVE",
"1104 123 CURVE",
"1104 766 LINE",
"694 766 LINE",
"694 600 LINE",
"911 600 LINE",
"911 199 LINE",
"864 160 OFFCURVE",
"796 135 OFFCURVE",
"703 135 CURVE SMOOTH",
"570 135 OFFCURVE",
"476 182 OFFCURVE",
"409 285 CURVE SMOOTH",
"345 386 OFFCURVE",
"313 534 OFFCURVE",
"313 743 CURVE SMOOTH",
"313 952 OFFCURVE",
"345 1101 OFFCURVE",
"412 1204 CURVE SMOOTH",
"480 1307 OFFCURVE",
"575 1356 OFFCURVE",
"706 1356 CURVE SMOOTH",
"770 1356 OFFCURVE",
"830 1344 OFFCURVE",
"887 1320 CURVE SMOOTH",
"947 1293 OFFCURVE",
"1002 1255 OFFCURVE",
"1053 1206 CURVE",
"1053 1413 LINE",
"953 1482 OFFCURVE",
"841 1520 OFFCURVE",
"702 1520 CURVE SMOOTH",
"514 1520 OFFCURVE",
"364 1448 OFFCURVE",
"261 1316 CURVE SMOOTH",
"155 1180 OFFCURVE",
"102 989 OFFCURVE",
"102 744 CURVE SMOOTH",
"102 259 OFFCURVE",
"323 -29 OFFCURVE",
"700 -29 CURVE SMOOTH"
);
}
);
width = 1233;
}
);
note = Gbreve;
unicode = 011E;
},
{
glyphname = Gcaron;
lastChange = "2016-07-20 22:44:41 +0000";
layers = (
{
layerId = "C8600398-8A20-4DEB-92AF-E95853BEE82A";
paths = (
{
closed = 1;
nodes = (
"612 1586 LINE",
"801 1586 LINE",
"1012 1852 LINE",
"872 1852 LINE",
"706 1674 LINE",
"541 1852 LINE",
"401 1852 LINE"
);
},
{
closed = 1;
nodes = (
"860 -29 OFFCURVE",
"995 22 OFFCURVE",
"1104 123 CURVE",
"1104 766 LINE",
"694 766 LINE",
"694 600 LINE",
"911 600 LINE",
"911 199 LINE",
"855 155 OFFCURVE",
"790 135 OFFCURVE",
"705 135 CURVE SMOOTH",
"438 135 OFFCURVE",
"313 330 OFFCURVE",
"313 739 CURVE SMOOTH",
"313 1155 OFFCURVE",
"440 1356 OFFCURVE",
"707 1356 CURVE SMOOTH",
"836 1356 OFFCURVE",
"946 1309 OFFCURVE",
"1053 1206 CURVE",
"1053 1413 LINE",
"944 1485 OFFCURVE",
"834 1520 OFFCURVE",
"703 1520 CURVE SMOOTH",
"578 1520 OFFCURVE",
"471 1489 OFFCURVE",
"381 1428 CURVE SMOOTH",
"201 1305 OFFCURVE",
"102 1067 OFFCURVE",
"102 743 CURVE SMOOTH",
"102 582 OFFCURVE",
"126 443 OFFCURVE",
"173 328 CURVE SMOOTH",
"268 96 OFFCURVE",
"451 -29 OFFCURVE",
"700 -29 CURVE SMOOTH"
);
}
);
width = 1233;
}
);
note = Gcaron;
unicode = 01E6;
},
{
glyphname = uni0122;
lastChange = "2016-07-20 22:44:41 +0000";
layers = (
{
layerId = "C8600398-8A20-4DEB-92AF-E95853BEE82A";
paths = (
{
closed = 1;
nodes = (
"860 -29 OFFCURVE",
"995 22 OFFCURVE",
"1104 123 CURVE",
"1104 766 LINE",
"694 766 LINE",
"694 600 LINE",
"911 600 LINE",
"911 199 LINE",
"855 155 OFFCURVE",
"790 135 OFFCURVE",
"705 135 CURVE SMOOTH",
"438 135 OFFCURVE",
"313 330 OFFCURVE",
"313 739 CURVE SMOOTH",
"313 1155 OFFCURVE",
"440 1356 OFFCURVE",
"707 1356 CURVE SMOOTH",
"836 1356 OFFCURVE",
"946 1309 OFFCURVE",
"1053 1206 CURVE",
"1053 1413 LINE",
"944 1485 OFFCURVE",
"834 1520 OFFCURVE",
"703 1520 CURVE SMOOTH",
"578 1520 OFFCURVE",
"471 1489 OFFCURVE",
"381 1428 CURVE SMOOTH",
"201 1305 OFFCURVE",
"102 1067 OFFCURVE",
"102 743 CURVE SMOOTH",
"102 582 OFFCURVE",
"126 443 OFFCURVE",
"173 328 CURVE SMOOTH",
"268 96 OFFCURVE",
"451 -29 OFFCURVE",
"700 -29 CURVE SMOOTH"
);
},
{
closed = 1;
nodes = (
"536 -573 LINE",
"682 -573 LINE",
"869 -228 LINE",
"630 -228 LINE"
);
}
);
width = 1233;
}
);
note = uni0122;
unicode = 0122;
},
{
glyphname = Gdotaccent;
lastChange = "2016-07-20 22:44:41 +0000";
layers = (
{
layerId = "C8600398-8A20-4DEB-92AF-E95853BEE82A";
paths = (
{
closed = 1;
nodes = (
"783 1647 OFFCURVE",
"793 1657 OFFCURVE",
"793 1677 CURVE SMOOTH",
"793 1822 LINE SMOOTH",
"793 1842 OFFCURVE",
"783 1852 OFFCURVE",
"763 1852 CURVE SMOOTH",
"618 1852 LINE SMOOTH",
"598 1852 OFFCURVE",
"588 1842 OFFCURVE",
"588 1822 CURVE SMOOTH",
"588 1677 LINE SMOOTH",
"588 1657 OFFCURVE",
"598 1647 OFFCURVE",
"618 1647 CURVE SMOOTH",
"763 1647 LINE SMOOTH"
);
},
{
closed = 1;
nodes = (
"860 -29 OFFCURVE",
"995 22 OFFCURVE",
"1104 123 CURVE",
"1104 766 LINE",
"694 766 LINE",
"694 600 LINE",
"911 600 LINE",
"911 199 LINE",
"855 155 OFFCURVE",
"790 135 OFFCURVE",
"705 135 CURVE SMOOTH",
"438 135 OFFCURVE",
"313 330 OFFCURVE",
"313 739 CURVE SMOOTH",
"313 1155 OFFCURVE",
"440 1356 OFFCURVE",
"707 1356 CURVE SMOOTH",
"836 1356 OFFCURVE",
"946 1309 OFFCURVE",
"1053 1206 CURVE",
"1053 1413 LINE",
"944 1485 OFFCURVE",
"834 1520 OFFCURVE",
"703 1520 CURVE SMOOTH",
"578 1520 OFFCURVE",
"471 1489 OFFCURVE",
"381 1428 CURVE SMOOTH",
"201 1305 OFFCURVE",
"102 1067 OFFCURVE",
"102 743 CURVE SMOOTH",
"102 582 OFFCURVE",
"126 443 OFFCURVE",
"173 328 CURVE SMOOTH",
"268 96 OFFCURVE",
"451 -29 OFFCURVE",
"700 -29 CURVE SMOOTH"
);
}
);
width = 1233;
}
);
note = Gdotaccent;
unicode = 0120;
},
{
glyphname = H;
lastChange = "2016-07-20 22:44:41 +0000";
layers = (
{
layerId = "C8600398-8A20-4DEB-92AF-E95853BEE82A";
paths = (
{
closed = 1;
nodes = (
"137 0 LINE",
"340 0 LINE",
"340 711 LINE",
"893 711 LINE",
"893 0 LINE",
"1096 0 LINE",
"1096 1493 LINE",
"893 1493 LINE",
"893 881 LINE",
"340 881 LINE",
"340 1493 LINE",
"137 1493 LINE"
);
}
);
width = 1233;
}
);
note = H;
unicode = 0048;
},
{
glyphname = Hbar;
lastChange = "2016-07-20 22:44:41 +0000";
layers = (
{
layerId = "C8600398-8A20-4DEB-92AF-E95853BEE82A";
paths = (
{
closed = 1;
nodes = (
"137 0 LINE",
"339 0 LINE",
"339 711 LINE",
"893 711 LINE",
"893 0 LINE",
"1095 0 LINE",
"1095 1105 LINE",
"1230 1105 LINE",
"1230 1269 LINE",
"1095 1269 LINE",
"1095 1493 LINE",
"893 1493 LINE",
"893 1269 LINE",
"339 1269 LINE",
"339 1493 LINE",
"137 1493 LINE",
"137 1269 LINE",
"3 1269 LINE",
"3 1105 LINE",
"137 1105 LINE"
);
},
{
closed = 1;
nodes = (
"339 881 LINE",
"339 1105 LINE",
"893 1105 LINE",
"893 881 LINE"
);
}
);
width = 1233;
}
);
note = Hbar;
unicode = 0126;
},
{
glyphname = I;
lastChange = "2016-07-20 22:44:41 +0000";
layers = (
{
layerId = "C8600398-8A20-4DEB-92AF-E95853BEE82A";
paths = (
{
closed = 1;
nodes = (
"201 0 LINE",
"1030 0 LINE",
"1030 170 LINE",
"717 170 LINE",
"717 1323 LINE",
"1030 1323 LINE",
"1030 1493 LINE",
"201 1493 LINE",
"201 1323 LINE",
"514 1323 LINE",
"514 170 LINE",
"201 170 LINE"
);
}
);
width = 1233;
}
);
note = I;
unicode = 0049;
},
{
glyphname = Iacute;
lastChange = "2016-07-20 22:44:41 +0000";
layers = (
{
layerId = "C8600398-8A20-4DEB-92AF-E95853BEE82A";
paths = (
{
closed = 1;
nodes = (
"494 1592 LINE",
"648 1592 LINE",
"877 1856 LINE",
"691 1856 LINE"
);
},
{
closed = 1;
nodes = (
"201 0 LINE",
"1030 0 LINE",
"1030 170 LINE",
"717 170 LINE",
"717 1323 LINE",
"1030 1323 LINE",
"1030 1493 LINE",
"201 1493 LINE",
"201 1323 LINE",
"514 1323 LINE",
"514 170 LINE",
"201 170 LINE"
);
}
);
width = 1233;
}
);
note = Iacute;
unicode = 00CD;
},
{
glyphname = Icircumflex;
lastChange = "2016-07-20 22:44:41 +0000";
layers = (
{
layerId = "C8600398-8A20-4DEB-92AF-E95853BEE82A";
paths = (
{
closed = 1;
nodes = (
"310 1586 LINE",
"450 1586 LINE",
"615 1764 LINE",
"781 1586 LINE",
"921 1586 LINE",
"710 1852 LINE",
"521 1852 LINE"
);
},
{
closed = 1;
nodes = (
"201 0 LINE",
"1030 0 LINE",
"1030 170 LINE",
"717 170 LINE",
"717 1323 LINE",
"1030 1323 LINE",
"1030 1493 LINE",
"201 1493 LINE",
"201 1323 LINE",
"514 1323 LINE",
"514 170 LINE",
"201 170 LINE"
);
}
);
width = 1233;
}
);
note = Icircumflex;
unicode = 00CE;
},
{
glyphname = Idieresis;
lastChange = "2016-07-20 22:44:41 +0000";
layers = (
{
layerId = "C8600398-8A20-4DEB-92AF-E95853BEE82A";
paths = (
{
closed = 1;
nodes = (
"512 1647 OFFCURVE",
"522 1657 OFFCURVE",
"522 1677 CURVE SMOOTH",
"522 1820 LINE SMOOTH",
"522 1840 OFFCURVE",
"512 1850 OFFCURVE",
"492 1850 CURVE SMOOTH",
"349 1850 LINE SMOOTH",
"329 1850 OFFCURVE",
"319 1840 OFFCURVE",
"319 1820 CURVE SMOOTH",
"319 1677 LINE SMOOTH",
"319 1657 OFFCURVE",
"329 1647 OFFCURVE",
"349 1647 CURVE SMOOTH",
"492 1647 LINE SMOOTH"
);
},
{
closed = 1;
nodes = (
"903 1647 OFFCURVE",
"913 1657 OFFCURVE",
"913 1677 CURVE SMOOTH",
"913 1820 LINE SMOOTH",
"913 1840 OFFCURVE",
"903 1850 OFFCURVE",
"883 1850 CURVE SMOOTH",
"741 1850 LINE SMOOTH",
"721 1850 OFFCURVE",
"711 1840 OFFCURVE",
"711 1820 CURVE SMOOTH",
"711 1677 LINE SMOOTH",
"711 1657 OFFCURVE",
"721 1647 OFFCURVE",
"741 1647 CURVE SMOOTH",
"883 1647 LINE SMOOTH"
);
},
{
closed = 1;
nodes = (
"201 0 LINE",
"1030 0 LINE",
"1030 170 LINE",
"717 170 LINE",
"717 1323 LINE",
"1030 1323 LINE",
"1030 1493 LINE",
"201 1493 LINE",
"201 1323 LINE",
"514 1323 LINE",
"514 170 LINE",
"201 170 LINE"
);
}
);
width = 1233;
}
);
note = Idieresis;
unicode = 00CF;
},
{
glyphname = Idotaccent;
lastChange = "2016-07-20 22:44:41 +0000";
layers = (
{
layerId = "C8600398-8A20-4DEB-92AF-E95853BEE82A";
paths = (
{
closed = 1;
nodes = (
"708 1647 OFFCURVE",
"718 1657 OFFCURVE",
"718 1677 CURVE SMOOTH",
"718 1822 LINE SMOOTH",
"718 1842 OFFCURVE",
"708 1852 OFFCURVE",
"688 1852 CURVE SMOOTH",
"543 1852 LINE SMOOTH",
"523 1852 OFFCURVE",
"513 1842 OFFCURVE",
"513 1822 CURVE SMOOTH",
"513 1677 LINE SMOOTH",
"513 1657 OFFCURVE",
"523 1647 OFFCURVE",
"543 1647 CURVE SMOOTH",
"688 1647 LINE SMOOTH"
);
},
{
closed = 1;
nodes = (
"201 0 LINE",
"1030 0 LINE",
"1030 170 LINE",
"717 170 LINE",
"717 1323 LINE",
"1030 1323 LINE",
"1030 1493 LINE",
"201 1493 LINE",
"201 1323 LINE",
"514 1323 LINE",
"514 170 LINE",
"201 170 LINE"
);
}
);
width = 1233;
}
);
note = Idotaccent;
unicode = 0130;
},
{
glyphname = Igrave;
lastChange = "2016-07-20 22:44:41 +0000";
layers = (
{
layerId = "C8600398-8A20-4DEB-92AF-E95853BEE82A";
paths = (
{
closed = 1;
nodes = (
"599 1592 LINE",
"753 1592 LINE",
"556 1856 LINE",
"372 1856 LINE"
);
},
{
closed = 1;
nodes = (
"201 0 LINE",
"1030 0 LINE",
"1030 170 LINE",
"717 170 LINE",
"717 1323 LINE",
"1030 1323 LINE",
"1030 1493 LINE",
"201 1493 LINE",
"201 1323 LINE",
"514 1323 LINE",
"514 170 LINE",
"201 170 LINE"
);
}
);
width = 1233;
}
);
note = Igrave;
unicode = 00CC;
},
{
glyphname = Imacron;
lastChange = "2016-07-20 22:44:41 +0000";
layers = (
{
layerId = "C8600398-8A20-4DEB-92AF-E95853BEE82A";
paths = (
{
closed = 1;
nodes = (
"335 1652 LINE",
"933 1652 LINE",
"933 1800 LINE",
"335 1800 LINE"
);
},
{
closed = 1;
nodes = (
"201 0 LINE",
"1030 0 LINE",
"1030 170 LINE",
"717 170 LINE",
"717 1323 LINE",
"1030 1323 LINE",
"1030 1493 LINE",
"201 1493 LINE",
"201 1323 LINE",
"514 1323 LINE",
"514 170 LINE",
"201 170 LINE"
);
}
);
width = 1233;
}
);
note = Imacron;
unicode = 012A;
},
{
glyphname = Iogonek;
lastChange = "2016-07-20 22:44:41 +0000";
layers = (
{
layerId = "C8600398-8A20-4DEB-92AF-E95853BEE82A";
paths = (
{
closed = 1;
nodes = (
"1030 1323 LINE",
"1030 1493 LINE",
"201 1493 LINE",
"201 1323 LINE",
"514 1323 LINE",
"514 170 LINE",
"201 170 LINE",
"201 0 LINE",
"598 0 LINE",
"518 -91 OFFCURVE",
"490 -153 OFFCURVE",
"490 -221 CURVE SMOOTH",
"490 -337 OFFCURVE",
"567 -395 OFFCURVE",
"720 -395 CURVE SMOOTH",
"769 -395 OFFCURVE",
"807 -390 OFFCURVE",
"863 -375 CURVE",
"863 -242 LINE",
"822 -262 OFFCURVE",
"781 -272 OFFCURVE",
"739 -272 CURVE SMOOTH",
"667 -272 OFFCURVE",
"629 -240 OFFCURVE",
"629 -184 CURVE SMOOTH",
"629 -139 OFFCURVE",
"653 -87 OFFCURVE",
"717 0 CURVE",
"1030 0 LINE",
"1030 170 LINE",
"717 170 LINE",
"717 1323 LINE"
);
}
);
width = 1233;
}
);
note = Iogonek;
unicode = 012E;
},
{
glyphname = Itilde;
lastChange = "2016-07-20 22:44:41 +0000";
layers = (
{
layerId = "C8600398-8A20-4DEB-92AF-E95853BEE82A";
paths = (
{
closed = 1;
nodes = (
"412 1639 LINE SMOOTH",
"412 1698 OFFCURVE",
"440 1734 OFFCURVE",
"485 1734 CURVE SMOOTH",
"505 1734 OFFCURVE",
"534 1722 OFFCURVE",
"555 1709 CURVE SMOOTH",
"612 1676 LINE",
"684 1639 OFFCURVE",
"718 1633 OFFCURVE",
"757 1633 CURVE SMOOTH",
"870 1633 OFFCURVE",
"943 1719 OFFCURVE",
"946 1852 CURVE",
"821 1852 LINE",
"821 1846 LINE SMOOTH",
"821 1793 OFFCURVE",
"791 1754 OFFCURVE",
"750 1754 CURVE SMOOTH",
"729 1754 OFFCURVE",
"705 1762 OFFCURVE",
"678 1779 CURVE",
"621 1809 LINE SMOOTH",
"552 1846 OFFCURVE",
"515 1852 OFFCURVE",
"476 1852 CURVE SMOOTH",
"361 1852 OFFCURVE",
"287 1766 OFFCURVE",
"287 1633 CURVE",
"412 1633 LINE"
);
},
{
closed = 1;
nodes = (
"201 0 LINE",
"1030 0 LINE",
"1030 170 LINE",
"717 170 LINE",
"717 1323 LINE",
"1030 1323 LINE",
"1030 1493 LINE",
"201 1493 LINE",
"201 1323 LINE",
"514 1323 LINE",
"514 170 LINE",
"201 170 LINE"
);
}
);
width = 1233;
}
);
note = Itilde;
unicode = 0128;
},
{
glyphname = J;
lastChange = "2016-07-20 22:44:41 +0000";
layers = (
{
layerId = "C8600398-8A20-4DEB-92AF-E95853BEE82A";
paths = (
{
closed = 1;
nodes = (
"666 -29 OFFCURVE",
"777 9 OFFCURVE",
"850 89 CURVE SMOOTH",
"923 170 OFFCURVE",
"956 295 OFFCURVE",
"956 487 CURVE SMOOTH",
"956 1493 LINE",
"373 1493 LINE",
"373 1323 LINE",
"754 1323 LINE",
"754 487 LINE SMOOTH",
"754 216 OFFCURVE",
"690 135 OFFCURVE",
"499 135 CURVE SMOOTH",
"363 135 OFFCURVE",
"230 189 OFFCURVE",
"109 297 CURVE",
"109 61 LINE",
"246 0 OFFCURVE",
"361 -29 OFFCURVE",
"502 -29 CURVE SMOOTH"
);
}
);
width = 1233;
}
);
note = J;
unicode = 004A;
},
{
glyphname = K;
lastChange = "2016-07-20 22:44:41 +0000";
layers = (
{
layerId = "C8600398-8A20-4DEB-92AF-E95853BEE82A";
paths = (
{
closed = 1;
nodes = (
"137 0 LINE",
"340 0 LINE",
"340 584 LINE",
"494 748 LINE",
"981 0 LINE",
"1225 0 LINE",
"627 883 LINE",
"1208 1493 LINE",
"971 1493 LINE",
"340 829 LINE",
"340 1493 LINE",
"137 1493 LINE"
);
}
);
width = 1233;
}
);
note = K;
unicode = 004B;
},
{
glyphname = uni0136;
lastChange = "2016-07-20 22:44:41 +0000";
layers = (
{
layerId = "C8600398-8A20-4DEB-92AF-E95853BEE82A";
paths = (
{
closed = 1;
nodes = (
"137 0 LINE",
"340 0 LINE",
"340 584 LINE",
"494 748 LINE",
"981 0 LINE",
"1225 0 LINE",
"627 883 LINE",
"1208 1493 LINE",
"971 1493 LINE",
"340 829 LINE",
"340 1493 LINE",
"137 1493 LINE"
);
},
{
closed = 1;
nodes = (
"514 -544 LINE",
"660 -544 LINE",
"847 -199 LINE",
"608 -199 LINE"
);
}
);
width = 1233;
}
);
note = uni0136;
unicode = 0136;
},
{
glyphname = L;
lastChange = "2016-07-20 22:44:41 +0000";
layers = (
{
layerId = "C8600398-8A20-4DEB-92AF-E95853BEE82A";
paths = (
{
closed = 1;
nodes = (
"215 0 LINE",
"1139 0 LINE",
"1139 170 LINE",
"418 170 LINE",
"418 1493 LINE",
"215 1493 LINE"
);
}
);
width = 1233;
}
);
note = L;
unicode = 004C;
},
{
glyphname = Lacute;
lastChange = "2016-07-20 22:44:41 +0000";
layers = (
{
layerId = "C8600398-8A20-4DEB-92AF-E95853BEE82A";
paths = (
{
closed = 1;
nodes = (
"215 1592 LINE",
"369 1592 LINE",
"598 1856 LINE",
"412 1856 LINE"
);
},
{
closed = 1;
nodes = (
"215 0 LINE",
"1139 0 LINE",
"1139 170 LINE",
"418 170 LINE",
"418 1493 LINE",
"215 1493 LINE"
);
}
);
width = 1233;
}
);
note = Lacute;
unicode = 0139;
},
{
glyphname = Lcaron;
lastChange = "2016-07-20 22:44:41 +0000";
layers = (
{
layerId = "C8600398-8A20-4DEB-92AF-E95853BEE82A";
paths = (
{
closed = 1;
nodes = (
"215 0 LINE",
"1139 0 LINE",
"1139 170 LINE",
"418 170 LINE",
"418 1493 LINE",
"215 1493 LINE"
);
},
{
closed = 1;
nodes = (
"649 1115 LINE",
"803 1115 LINE",
"916 1491 LINE",
"718 1491 LINE"
);
}
);
width = 1233;
}
);
note = Lcaron;
unicode = 013D;
},
{
glyphname = uni013B;
lastChange = "2016-07-20 22:44:41 +0000";
layers = (
{
layerId = "C8600398-8A20-4DEB-92AF-E95853BEE82A";
paths = (
{
closed = 1;
nodes = (
"215 0 LINE",
"1139 0 LINE",
"1139 170 LINE",
"418 170 LINE",
"418 1493 LINE",
"215 1493 LINE"
);
},
{
closed = 1;
nodes = (
"510 -544 LINE",
"656 -544 LINE",
"843 -199 LINE",
"604 -199 LINE"
);
}
);
width = 1233;
}
);
note = uni013B;
unicode = 013B;
},
{
glyphname = Lslash;
lastChange = "2016-07-20 22:44:41 +0000";
layers = (
{
layerId = "C8600398-8A20-4DEB-92AF-E95853BEE82A";
paths = (
{
closed = 1;
nodes = (
"215 0 LINE",
"1139 0 LINE",
"1139 170 LINE",
"418 170 LINE",
"418 711 LINE",
"811 985 LINE",
"733 1096 LINE",
"418 877 LINE",
"418 1493 LINE",
"215 1493 LINE",
"215 733 LINE",
"-10 575 LINE",
"70 465 LINE",
"215 571 LINE"
);
}
);
width = 1233;
}
);
note = Lslash;
unicode = 0141;
},
{
glyphname = M;
lastChange = "2016-07-20 22:44:41 +0000";
layers = (
{
layerId = "C8600398-8A20-4DEB-92AF-E95853BEE82A";
paths = (
{
closed = 1;
nodes = (
"86 0 LINE",
"272 0 LINE",
"272 1319 LINE",
"539 532 LINE",
"692 532 LINE",
"958 1319 LINE",
"958 0 LINE",
"1145 0 LINE",
"1145 1493 LINE",
"874 1493 LINE",
"614 733 LINE",
"356 1493 LINE",
"86 1493 LINE"
);
}
);
width = 1233;
}
);
note = M;
unicode = 004D;
},
{
glyphname = N;
lastChange = "2016-07-20 22:44:41 +0000";
layers = (
{
layerId = "C8600398-8A20-4DEB-92AF-E95853BEE82A";
paths = (
{
closed = 1;
nodes = (
"139 0 LINE",
"334 0 LINE",
"334 1229 LINE",
"838 0 LINE",
"1094 0 LINE",
"1094 1493 LINE",
"899 1493 LINE",
"899 264 LINE",
"395 1493 LINE",
"139 1493 LINE"
);
}
);
width = 1233;
}
);
note = N;
unicode = 004E;
},
{
glyphname = Nacute;
lastChange = "2016-07-20 22:44:41 +0000";
layers = (
{
layerId = "C8600398-8A20-4DEB-92AF-E95853BEE82A";
paths = (
{
closed = 1;
nodes = (
"534 1592 LINE",
"688 1592 LINE",
"917 1856 LINE",
"731 1856 LINE"
);
},
{
closed = 1;
nodes = (
"139 0 LINE",
"334 0 LINE",
"334 1229 LINE",
"838 0 LINE",
"1094 0 LINE",
"1094 1493 LINE",
"899 1493 LINE",
"899 264 LINE",
"395 1493 LINE",
"139 1493 LINE"
);
}
);
width = 1233;
}
);
note = Nacute;
unicode = 0143;
},
{
glyphname = Ncaron;
lastChange = "2016-07-20 22:44:41 +0000";
layers = (
{
layerId = "C8600398-8A20-4DEB-92AF-E95853BEE82A";
paths = (
{
closed = 1;
nodes = (
"558 1586 LINE",
"747 1586 LINE",
"958 1852 LINE",
"818 1852 LINE",
"652 1674 LINE",
"487 1852 LINE",
"347 1852 LINE"
);
},
{
closed = 1;
nodes = (
"139 0 LINE",
"334 0 LINE",
"334 1229 LINE",
"838 0 LINE",
"1094 0 LINE",
"1094 1493 LINE",
"899 1493 LINE",
"899 264 LINE",
"395 1493 LINE",
"139 1493 LINE"
);
}
);
width = 1233;
}
);
note = Ncaron;
unicode = 0147;
},
{
glyphname = uni0145;
lastChange = "2016-07-20 22:44:41 +0000";
layers = (
{
layerId = "C8600398-8A20-4DEB-92AF-E95853BEE82A";
paths = (
{
closed = 1;
nodes = (
"139 0 LINE",
"334 0 LINE",
"334 1229 LINE",
"838 0 LINE",
"1094 0 LINE",
"1094 1493 LINE",
"899 1493 LINE",
"899 264 LINE",
"395 1493 LINE",
"139 1493 LINE"
);
},
{
closed = 1;
nodes = (
"450 -544 LINE",
"596 -544 LINE",
"783 -199 LINE",
"544 -199 LINE"
);
}
);
width = 1233;
}
);
note = uni0145;
unicode = 0145;
},
{
glyphname = Eng;
lastChange = "2016-07-20 22:44:41 +0000";
layers = (
{
layerId = "C8600398-8A20-4DEB-92AF-E95853BEE82A";
paths = (
{
closed = 1;
nodes = (
"536 -426 LINE",
"741 -426 LINE SMOOTH",
"962 -426 OFFCURVE",
"1085 -281 OFFCURVE",
"1085 -20 CURVE SMOOTH",
"1085 999 LINE SMOOTH",
"1085 1348 OFFCURVE",
"961 1522 OFFCURVE",
"713 1522 CURVE SMOOTH",
"545 1522 OFFCURVE",
"421 1444 OFFCURVE",
"349 1295 CURVE",
"331 1493 LINE",
"147 1493 LINE",
"147 0 LINE",
"349 0 LINE",
"349 937 LINE SMOOTH",
"349 1209 OFFCURVE",
"453 1358 OFFCURVE",
"642 1358 CURVE SMOOTH",
"807 1358 OFFCURVE",
"882 1249 OFFCURVE",
"882 1009 CURVE SMOOTH",
"882 0 LINE SMOOTH",
"882 -192 OFFCURVE",
"826 -270 OFFCURVE",
"703 -270 CURVE SMOOTH",
"536 -270 LINE"
);
}
);
width = 1233;
}
);
note = Eng;
unicode = 014A;
},
{
glyphname = Ntilde;
lastChange = "2016-07-20 22:44:41 +0000";
layers = (
{
layerId = "C8600398-8A20-4DEB-92AF-E95853BEE82A";
paths = (
{
closed = 1;
nodes = (
"412 1639 LINE SMOOTH",
"412 1698 OFFCURVE",
"440 1734 OFFCURVE",
"485 1734 CURVE SMOOTH",
"505 1734 OFFCURVE",
"534 1722 OFFCURVE",
"555 1709 CURVE SMOOTH",
"612 1676 LINE",
"684 1639 OFFCURVE",
"718 1633 OFFCURVE",
"757 1633 CURVE SMOOTH",
"870 1633 OFFCURVE",
"943 1719 OFFCURVE",
"946 1852 CURVE",
"821 1852 LINE",
"821 1846 LINE SMOOTH",
"821 1793 OFFCURVE",
"791 1754 OFFCURVE",
"750 1754 CURVE SMOOTH",
"729 1754 OFFCURVE",
"705 1762 OFFCURVE",
"678 1779 CURVE",
"621 1809 LINE SMOOTH",
"552 1846 OFFCURVE",
"515 1852 OFFCURVE",
"476 1852 CURVE SMOOTH",
"361 1852 OFFCURVE",
"287 1766 OFFCURVE",
"287 1633 CURVE",
"412 1633 LINE"
);
},
{
closed = 1;
nodes = (
"139 0 LINE",
"334 0 LINE",
"334 1229 LINE",
"838 0 LINE",
"1094 0 LINE",
"1094 1493 LINE",
"899 1493 LINE",
"899 264 LINE",
"395 1493 LINE",
"139 1493 LINE"
);
}
);
width = 1233;
}
);
note = Ntilde;
unicode = 00D1;
},
{
glyphname = O;
lastChange = "2016-07-20 22:44:41 +0000";
layers = (
{
layerId = "C8600398-8A20-4DEB-92AF-E95853BEE82A";
paths = (
{
closed = 1;
nodes = (
"955 -29 OFFCURVE",
"1116 225 OFFCURVE",
"1116 745 CURVE SMOOTH",
"1116 1266 OFFCURVE",
"955 1520 OFFCURVE",
"616 1520 CURVE SMOOTH",
"445 1520 OFFCURVE",
"325 1457 OFFCURVE",
"241 1328 CURVE SMOOTH",
"158 1201 OFFCURVE",
"117 1007 OFFCURVE",
"117 745 CURVE SMOOTH",
"117 222 OFFCURVE",
"279 -29 OFFCURVE",
"616 -29 CURVE SMOOTH"
);
},
{
closed = 1;
nodes = (
"515 135 OFFCURVE",
"441 182 OFFCURVE",
"396 276 CURVE SMOOTH",
"351 372 OFFCURVE",
"328 528 OFFCURVE",
"328 745 CURVE SMOOTH",
"328 962 OFFCURVE",
"351 1119 OFFCURVE",
"396 1215 CURVE SMOOTH",
"441 1309 OFFCURVE",
"515 1356 OFFCURVE",
"616 1356 CURVE SMOOTH",
"719 1356 OFFCURVE",
"793 1309 OFFCURVE",
"838 1215 CURVE SMOOTH",
"883 1123 OFFCURVE",
"905 966 OFFCURVE",
"905 745 CURVE SMOOTH",
"905 524 OFFCURVE",
"883 367 OFFCURVE",
"838 276 CURVE SMOOTH",
"793 182 OFFCURVE",
"719 135 OFFCURVE",
"616 135 CURVE SMOOTH"
);
}
);
width = 1233;
}
);
note = O;
unicode = 004F;
},
{
glyphname = Oacute;
lastChange = "2016-07-20 22:44:41 +0000";
layers = (
{
layerId = "C8600398-8A20-4DEB-92AF-E95853BEE82A";
paths = (
{
closed = 1;
nodes = (
"504 1592 LINE",
"658 1592 LINE",
"887 1856 LINE",
"701 1856 LINE"
);
},
{
closed = 1;
nodes = (
"955 -29 OFFCURVE",
"1116 225 OFFCURVE",
"1116 745 CURVE SMOOTH",
"1116 1266 OFFCURVE",
"955 1520 OFFCURVE",
"616 1520 CURVE SMOOTH",
"445 1520 OFFCURVE",
"325 1457 OFFCURVE",
"241 1328 CURVE SMOOTH",
"158 1201 OFFCURVE",
"117 1007 OFFCURVE",
"117 745 CURVE SMOOTH",
"117 222 OFFCURVE",
"279 -29 OFFCURVE",
"616 -29 CURVE SMOOTH"
);
},
{
closed = 1;
nodes = (
"515 135 OFFCURVE",
"441 182 OFFCURVE",
"396 276 CURVE SMOOTH",
"351 372 OFFCURVE",
"328 528 OFFCURVE",
"328 745 CURVE SMOOTH",
"328 962 OFFCURVE",
"351 1119 OFFCURVE",
"396 1215 CURVE SMOOTH",
"441 1309 OFFCURVE",
"515 1356 OFFCURVE",
"616 1356 CURVE SMOOTH",
"719 1356 OFFCURVE",
"793 1309 OFFCURVE",
"838 1215 CURVE SMOOTH",
"883 1123 OFFCURVE",
"905 966 OFFCURVE",
"905 745 CURVE SMOOTH",
"905 524 OFFCURVE",
"883 367 OFFCURVE",
"838 276 CURVE SMOOTH",
"793 182 OFFCURVE",
"719 135 OFFCURVE",
"616 135 CURVE SMOOTH"
);
}
);
width = 1233;
}
);
note = Oacute;
unicode = 00D3;
},
{
glyphname = Ocircumflex;
lastChange = "2016-07-20 22:44:41 +0000";
layers = (
{
layerId = "C8600398-8A20-4DEB-92AF-E95853BEE82A";
paths = (
{
closed = 1;
nodes = (
"329 1586 LINE",
"469 1586 LINE",
"634 1764 LINE",
"800 1586 LINE",
"940 1586 LINE",
"729 1852 LINE",
"540 1852 LINE"
);
},
{
closed = 1;
nodes = (
"955 -29 OFFCURVE",
"1116 225 OFFCURVE",
"1116 745 CURVE SMOOTH",
"1116 1266 OFFCURVE",
"955 1520 OFFCURVE",
"616 1520 CURVE SMOOTH",
"445 1520 OFFCURVE",
"325 1457 OFFCURVE",
"241 1328 CURVE SMOOTH",
"158 1201 OFFCURVE",
"117 1007 OFFCURVE",
"117 745 CURVE SMOOTH",
"117 222 OFFCURVE",
"279 -29 OFFCURVE",
"616 -29 CURVE SMOOTH"
);
},
{
closed = 1;
nodes = (
"515 135 OFFCURVE",
"441 182 OFFCURVE",
"396 276 CURVE SMOOTH",
"351 372 OFFCURVE",
"328 528 OFFCURVE",
"328 745 CURVE SMOOTH",
"328 962 OFFCURVE",
"351 1119 OFFCURVE",
"396 1215 CURVE SMOOTH",
"441 1309 OFFCURVE",
"515 1356 OFFCURVE",
"616 1356 CURVE SMOOTH",
"719 1356 OFFCURVE",
"793 1309 OFFCURVE",
"838 1215 CURVE SMOOTH",
"883 1123 OFFCURVE",
"905 966 OFFCURVE",
"905 745 CURVE SMOOTH",
"905 524 OFFCURVE",
"883 367 OFFCURVE",
"838 276 CURVE SMOOTH",
"793 182 OFFCURVE",
"719 135 OFFCURVE",
"616 135 CURVE SMOOTH"
);
}
);
width = 1233;
}
);
note = Ocircumflex;
unicode = 00D4;
},
{
glyphname = Odieresis;
lastChange = "2016-07-20 22:44:41 +0000";
layers = (
{
layerId = "C8600398-8A20-4DEB-92AF-E95853BEE82A";
paths = (
{
closed = 1;
nodes = (
"512 1647 OFFCURVE",
"522 1657 OFFCURVE",
"522 1677 CURVE SMOOTH",
"522 1820 LINE SMOOTH",
"522 1840 OFFCURVE",
"512 1850 OFFCURVE",
"492 1850 CURVE SMOOTH",
"349 1850 LINE SMOOTH",
"329 1850 OFFCURVE",
"319 1840 OFFCURVE",
"319 1820 CURVE SMOOTH",
"319 1677 LINE SMOOTH",
"319 1657 OFFCURVE",
"329 1647 OFFCURVE",
"349 1647 CURVE SMOOTH",
"492 1647 LINE SMOOTH"
);
},
{
closed = 1;
nodes = (
"903 1647 OFFCURVE",
"913 1657 OFFCURVE",
"913 1677 CURVE SMOOTH",
"913 1820 LINE SMOOTH",
"913 1840 OFFCURVE",
"903 1850 OFFCURVE",
"883 1850 CURVE SMOOTH",
"741 1850 LINE SMOOTH",
"721 1850 OFFCURVE",
"711 1840 OFFCURVE",
"711 1820 CURVE SMOOTH",
"711 1677 LINE SMOOTH",
"711 1657 OFFCURVE",
"721 1647 OFFCURVE",
"741 1647 CURVE SMOOTH",
"883 1647 LINE SMOOTH"
);
},
{
closed = 1;
nodes = (
"955 -29 OFFCURVE",
"1116 225 OFFCURVE",
"1116 745 CURVE SMOOTH",
"1116 1266 OFFCURVE",
"955 1520 OFFCURVE",
"616 1520 CURVE SMOOTH",
"445 1520 OFFCURVE",
"325 1457 OFFCURVE",
"241 1328 CURVE SMOOTH",
"158 1201 OFFCURVE",
"117 1007 OFFCURVE",
"117 745 CURVE SMOOTH",
"117 222 OFFCURVE",
"279 -29 OFFCURVE",
"616 -29 CURVE SMOOTH"
);
},
{
closed = 1;
nodes = (
"515 135 OFFCURVE",
"441 182 OFFCURVE",
"396 276 CURVE SMOOTH",
"351 372 OFFCURVE",
"328 528 OFFCURVE",
"328 745 CURVE SMOOTH",
"328 962 OFFCURVE",
"351 1119 OFFCURVE",
"396 1215 CURVE SMOOTH",
"441 1309 OFFCURVE",
"515 1356 OFFCURVE",
"616 1356 CURVE SMOOTH",
"719 1356 OFFCURVE",
"793 1309 OFFCURVE",
"838 1215 CURVE SMOOTH",
"883 1123 OFFCURVE",
"905 966 OFFCURVE",
"905 745 CURVE SMOOTH",
"905 524 OFFCURVE",
"883 367 OFFCURVE",
"838 276 CURVE SMOOTH",
"793 182 OFFCURVE",
"719 135 OFFCURVE",
"616 135 CURVE SMOOTH"
);
}
);
width = 1233;
}
);
note = Odieresis;
unicode = 00D6;
},
{
glyphname = Ograve;
lastChange = "2016-07-20 22:44:41 +0000";
layers = (
{
layerId = "C8600398-8A20-4DEB-92AF-E95853BEE82A";
paths = (
{
closed = 1;
nodes = (
"609 1592 LINE",
"763 1592 LINE",
"566 1856 LINE",
"382 1856 LINE"
);
},
{
closed = 1;
nodes = (
"955 -29 OFFCURVE",
"1116 225 OFFCURVE",
"1116 745 CURVE SMOOTH",
"1116 1266 OFFCURVE",
"955 1520 OFFCURVE",
"616 1520 CURVE SMOOTH",
"445 1520 OFFCURVE",
"325 1457 OFFCURVE",
"241 1328 CURVE SMOOTH",
"158 1201 OFFCURVE",
"117 1007 OFFCURVE",
"117 745 CURVE SMOOTH",
"117 222 OFFCURVE",
"279 -29 OFFCURVE",
"616 -29 CURVE SMOOTH"
);
},
{
closed = 1;
nodes = (
"515 135 OFFCURVE",
"441 182 OFFCURVE",
"396 276 CURVE SMOOTH",
"351 372 OFFCURVE",
"328 528 OFFCURVE",
"328 745 CURVE SMOOTH",
"328 962 OFFCURVE",
"351 1119 OFFCURVE",
"396 1215 CURVE SMOOTH",
"441 1309 OFFCURVE",
"515 1356 OFFCURVE",
"616 1356 CURVE SMOOTH",
"719 1356 OFFCURVE",
"793 1309 OFFCURVE",
"838 1215 CURVE SMOOTH",
"883 1123 OFFCURVE",
"905 966 OFFCURVE",
"905 745 CURVE SMOOTH",
"905 524 OFFCURVE",
"883 367 OFFCURVE",
"838 276 CURVE SMOOTH",
"793 182 OFFCURVE",
"719 135 OFFCURVE",
"616 135 CURVE SMOOTH"
);
}
);
width = 1233;
}
);
note = Ograve;
unicode = 00D2;
},
{
glyphname = Ohorn;
lastChange = "2016-07-20 22:44:41 +0000";
layers = (
{
layerId = "C8600398-8A20-4DEB-92AF-E95853BEE82A";
paths = (
{
closed = 1;
nodes = (
"1058 1516 OFFCURVE",
"1068 1475 OFFCURVE",
"1068 1433 CURVE SMOOTH",
"1068 1361 OFFCURVE",
"1036 1323 OFFCURVE",
"980 1323 CURVE SMOOTH",
"943 1323 OFFCURVE",
"904 1337 OFFCURVE",
"845 1376 CURVE",
"765 1472 OFFCURVE",
"652 1520 OFFCURVE",
"505 1520 CURVE SMOOTH",
"169 1520 OFFCURVE",
"6 1267 OFFCURVE",
"6 744 CURVE SMOOTH",
"6 221 OFFCURVE",
"168 -29 OFFCURVE",
"504 -29 CURVE SMOOTH",
"841 -29 OFFCURVE",
"1005 225 OFFCURVE",
"1005 745 CURVE SMOOTH",
"1005 930 OFFCURVE",
"985 1080 OFFCURVE",
"944 1196 CURVE",
"969 1188 OFFCURVE",
"993 1184 OFFCURVE",
"1017 1184 CURVE SMOOTH",
"1133 1184 OFFCURVE",
"1191 1261 OFFCURVE",
"1191 1414 CURVE SMOOTH",
"1191 1463 OFFCURVE",
"1186 1501 OFFCURVE",
"1171 1557 CURVE",
"1038 1557 LINE"
);
},
{
closed = 1;
nodes = (
"682 182 OFFCURVE",
"608 135 OFFCURVE",
"505 135 CURVE SMOOTH",
"404 135 OFFCURVE",
"330 182 OFFCURVE",
"285 276 CURVE SMOOTH",
"240 372 OFFCURVE",
"217 528 OFFCURVE",
"217 745 CURVE SMOOTH",
"217 962 OFFCURVE",
"240 1119 OFFCURVE",
"285 1215 CURVE SMOOTH",
"330 1309 OFFCURVE",
"404 1356 OFFCURVE",
"505 1356 CURVE SMOOTH",
"608 1356 OFFCURVE",
"682 1309 OFFCURVE",
"727 1215 CURVE SMOOTH",
"772 1123 OFFCURVE",
"794 966 OFFCURVE",
"794 745 CURVE SMOOTH",
"794 524 OFFCURVE",
"772 367 OFFCURVE",
"727 276 CURVE SMOOTH"
);
}
);
width = 1233;
}
);
note = Ohorn;
unicode = 01A0;
},
{
glyphname = Ohungarumlaut;
lastChange = "2016-07-20 22:44:41 +0000";
layers = (
{
layerId = "C8600398-8A20-4DEB-92AF-E95853BEE82A";
paths = (
{
closed = 1;
nodes = (
"344 1595 LINE",
"498 1595 LINE",
"727 1859 LINE",
"541 1859 LINE"
);
},
{
closed = 1;
nodes = (
"663 1595 LINE",
"817 1595 LINE",
"1046 1859 LINE",
"860 1859 LINE"
);
},
{
closed = 1;
nodes = (
"952 -29 OFFCURVE",
"1116 225 OFFCURVE",
"1116 745 CURVE SMOOTH",
"1116 1266 OFFCURVE",
"953 1520 OFFCURVE",
"616 1520 CURVE SMOOTH",
"280 1520 OFFCURVE",
"117 1267 OFFCURVE",
"117 744 CURVE SMOOTH",
"117 221 OFFCURVE",
"279 -29 OFFCURVE",
"615 -29 CURVE SMOOTH"
);
},
{
closed = 1;
nodes = (
"515 135 OFFCURVE",
"441 182 OFFCURVE",
"396 276 CURVE SMOOTH",
"351 372 OFFCURVE",
"328 528 OFFCURVE",
"328 745 CURVE SMOOTH",
"328 962 OFFCURVE",
"351 1119 OFFCURVE",
"396 1215 CURVE SMOOTH",
"441 1309 OFFCURVE",
"515 1356 OFFCURVE",
"616 1356 CURVE SMOOTH",
"719 1356 OFFCURVE",
"793 1309 OFFCURVE",
"838 1215 CURVE SMOOTH",
"883 1123 OFFCURVE",
"905 966 OFFCURVE",
"905 745 CURVE SMOOTH",
"905 524 OFFCURVE",
"883 367 OFFCURVE",
"838 276 CURVE SMOOTH",
"793 182 OFFCURVE",
"719 135 OFFCURVE",
"616 135 CURVE SMOOTH"
);
}
);
width = 1233;
}
);
note = Ohungarumlaut;
unicode = 0150;
},
{
glyphname = Omacron;
lastChange = "2016-07-20 22:44:41 +0000";
layers = (
{
layerId = "C8600398-8A20-4DEB-92AF-E95853BEE82A";
paths = (
{
closed = 1;
nodes = (
"317 1652 LINE",
"915 1652 LINE",
"915 1800 LINE",
"317 1800 LINE"
);
},
{
closed = 1;
nodes = (
"952 -29 OFFCURVE",
"1116 225 OFFCURVE",
"1116 745 CURVE SMOOTH",
"1116 1266 OFFCURVE",
"953 1520 OFFCURVE",
"616 1520 CURVE SMOOTH",
"280 1520 OFFCURVE",
"117 1267 OFFCURVE",
"117 744 CURVE SMOOTH",
"117 221 OFFCURVE",
"279 -29 OFFCURVE",
"615 -29 CURVE SMOOTH"
);
},
{
closed = 1;
nodes = (
"515 135 OFFCURVE",
"441 182 OFFCURVE",
"396 276 CURVE SMOOTH",
"351 372 OFFCURVE",
"328 528 OFFCURVE",
"328 745 CURVE SMOOTH",
"328 962 OFFCURVE",
"351 1119 OFFCURVE",
"396 1215 CURVE SMOOTH",
"441 1309 OFFCURVE",
"515 1356 OFFCURVE",
"616 1356 CURVE SMOOTH",
"719 1356 OFFCURVE",
"793 1309 OFFCURVE",
"838 1215 CURVE SMOOTH",
"883 1123 OFFCURVE",
"905 966 OFFCURVE",
"905 745 CURVE SMOOTH",
"905 524 OFFCURVE",
"883 367 OFFCURVE",
"838 276 CURVE SMOOTH",
"793 182 OFFCURVE",
"719 135 OFFCURVE",
"616 135 CURVE SMOOTH"
);
}
);
width = 1233;
}
);
note = Omacron;
unicode = 014C;
},
{
glyphname = Oslash;
lastChange = "2016-07-20 22:44:41 +0000";
layers = (
{
layerId = "C8600398-8A20-4DEB-92AF-E95853BEE82A";
paths = (
{
closed = 1;
nodes = (
"111 -70 LINE",
"254 133 LINE",
"335 25 OFFCURVE",
"456 -29 OFFCURVE",
"612 -29 CURVE SMOOTH",
"788 -29 OFFCURVE",
"912 36 OFFCURVE",
"993 163 CURVE SMOOTH",
"1075 291 OFFCURVE",
"1116 485 OFFCURVE",
"1116 744 CURVE SMOOTH",
"1116 969 OFFCURVE",
"1083 1148 OFFCURVE",
"1032 1247 CURVE",
"1200 1485 LINE",
"1100 1559 LINE",
"961 1358 LINE",
"884 1466 OFFCURVE",
"766 1520 OFFCURVE",
"615 1520 CURVE SMOOTH",
"448 1520 OFFCURVE",
"325 1459 OFFCURVE",
"241 1328 CURVE SMOOTH",
"157 1199 OFFCURVE",
"117 1011 OFFCURVE",
"117 740 CURVE SMOOTH",
"117 639 OFFCURVE",
"123 545 OFFCURVE",
"136 456 CURVE SMOOTH",
"149 363 OFFCURVE",
"163 303 OFFCURVE",
"186 252 CURVE",
"8 0 LINE"
);
},
{
closed = 1;
nodes = (
"335 496 OFFCURVE",
"333 515 OFFCURVE",
"332 529 CURVE SMOOTH",
"331 543 OFFCURVE",
"331 552 OFFCURVE",
"331 556 CURVE",
"329 584 OFFCURVE",
"328 627 OFFCURVE",
"328 686 CURVE SMOOTH",
"328 949 OFFCURVE",
"349 1105 OFFCURVE",
"394 1208 CURVE SMOOTH",
"438 1307 OFFCURVE",
"506 1356 OFFCURVE",
"615 1356 CURVE SMOOTH",
"734 1356 OFFCURVE",
"810 1295 OFFCURVE",
"842 1190 CURVE",
"338 471 LINE"
);
},
{
closed = 1;
nodes = (
"504 135 OFFCURVE",
"411 199 OFFCURVE",
"371 303 CURVE",
"885 1036 LINE",
"898 976 OFFCURVE",
"905 881 OFFCURVE",
"905 748 CURVE SMOOTH",
"905 513 OFFCURVE",
"882 368 OFFCURVE",
"838 277 CURVE SMOOTH",
"794 184 OFFCURVE",
"724 135 OFFCURVE",
"617 135 CURVE SMOOTH"
);
}
);
width = 1233;
}
);
note = Oslash;
unicode = 00D8;
},
{
glyphname = Oslashacute;
lastChange = "2016-07-20 22:44:41 +0000";
layers = (
{
layerId = "C8600398-8A20-4DEB-92AF-E95853BEE82A";
paths = (
{
closed = 1;
nodes = (
"494 1592 LINE",
"648 1592 LINE",
"877 1856 LINE",
"691 1856 LINE"
);
},
{
closed = 1;
nodes = (
"111 -70 LINE",
"254 133 LINE",
"335 25 OFFCURVE",
"455 -29 OFFCURVE",
"613 -29 CURVE SMOOTH",
"953 -29 OFFCURVE",
"1116 224 OFFCURVE",
"1116 744 CURVE SMOOTH",
"1116 965 OFFCURVE",
"1088 1140 OFFCURVE",
"1032 1247 CURVE",
"1200 1485 LINE",
"1100 1559 LINE",
"961 1358 LINE",
"884 1466 OFFCURVE",
"769 1520 OFFCURVE",
"614 1520 CURVE SMOOTH",
"279 1520 OFFCURVE",
"117 1265 OFFCURVE",
"117 744 CURVE SMOOTH",
"117 536 OFFCURVE",
"143 348 OFFCURVE",
"186 252 CURVE",
"8 0 LINE"
);
},
{
closed = 1;
nodes = (
"331 514 OFFCURVE",
"328 584 OFFCURVE",
"328 682 CURVE SMOOTH",
"328 938 OFFCURVE",
"347 1103 OFFCURVE",
"395 1210 CURVE SMOOTH",
"440 1307 OFFCURVE",
"506 1356 OFFCURVE",
"615 1356 CURVE SMOOTH",
"734 1356 OFFCURVE",
"809 1297 OFFCURVE",
"842 1190 CURVE",
"338 471 LINE"
);
},
{
closed = 1;
nodes = (
"503 135 OFFCURVE",
"414 195 OFFCURVE",
"371 303 CURVE",
"885 1036 LINE",
"898 975 OFFCURVE",
"905 881 OFFCURVE",
"905 755 CURVE SMOOTH",
"905 633 OFFCURVE",
"900 535 OFFCURVE",
"889 460 CURVE SMOOTH",
"867 310 OFFCURVE",
"822 135 OFFCURVE",
"619 135 CURVE SMOOTH"
);
}
);
width = 1233;
}
);
note = Oslashacute;
unicode = 01FE;
},
{
glyphname = Otilde;
lastChange = "2016-07-20 22:44:41 +0000";
layers = (
{
layerId = "C8600398-8A20-4DEB-92AF-E95853BEE82A";
paths = (
{
closed = 1;
nodes = (
"412 1639 LINE SMOOTH",
"412 1698 OFFCURVE",
"440 1734 OFFCURVE",
"485 1734 CURVE SMOOTH",
"505 1734 OFFCURVE",
"534 1722 OFFCURVE",
"555 1709 CURVE SMOOTH",
"612 1676 LINE",
"684 1639 OFFCURVE",
"718 1633 OFFCURVE",
"757 1633 CURVE SMOOTH",
"870 1633 OFFCURVE",
"943 1719 OFFCURVE",
"946 1852 CURVE",
"821 1852 LINE",
"821 1846 LINE SMOOTH",
"821 1793 OFFCURVE",
"791 1754 OFFCURVE",
"750 1754 CURVE SMOOTH",
"729 1754 OFFCURVE",
"705 1762 OFFCURVE",
"678 1779 CURVE",
"621 1809 LINE SMOOTH",
"552 1846 OFFCURVE",
"515 1852 OFFCURVE",
"476 1852 CURVE SMOOTH",
"361 1852 OFFCURVE",
"287 1766 OFFCURVE",
"287 1633 CURVE",
"412 1633 LINE"
);
},
{
closed = 1;
nodes = (
"955 -29 OFFCURVE",
"1116 225 OFFCURVE",
"1116 745 CURVE SMOOTH",
"1116 1266 OFFCURVE",
"955 1520 OFFCURVE",
"616 1520 CURVE SMOOTH",
"445 1520 OFFCURVE",
"325 1457 OFFCURVE",
"241 1328 CURVE SMOOTH",
"158 1201 OFFCURVE",
"117 1007 OFFCURVE",
"117 745 CURVE SMOOTH",
"117 222 OFFCURVE",
"279 -29 OFFCURVE",
"616 -29 CURVE SMOOTH"
);
},
{
closed = 1;
nodes = (
"515 135 OFFCURVE",
"441 182 OFFCURVE",
"396 276 CURVE SMOOTH",
"351 372 OFFCURVE",
"328 528 OFFCURVE",
"328 745 CURVE SMOOTH",
"328 962 OFFCURVE",
"351 1119 OFFCURVE",
"396 1215 CURVE SMOOTH",
"441 1309 OFFCURVE",
"515 1356 OFFCURVE",
"616 1356 CURVE SMOOTH",
"719 1356 OFFCURVE",
"793 1309 OFFCURVE",
"838 1215 CURVE SMOOTH",
"883 1123 OFFCURVE",
"905 966 OFFCURVE",
"905 745 CURVE SMOOTH",
"905 524 OFFCURVE",
"883 367 OFFCURVE",
"838 276 CURVE SMOOTH",
"793 182 OFFCURVE",
"719 135 OFFCURVE",
"616 135 CURVE SMOOTH"
);
}
);
width = 1233;
}
);
note = Otilde;
unicode = 00D5;
},
{
glyphname = OE;
lastChange = "2016-07-20 22:44:41 +0000";
layers = (
{
layerId = "C8600398-8A20-4DEB-92AF-E95853BEE82A";
paths = (
{
closed = 1;
nodes = (
"1217 170 LINE",
"848 170 LINE",
"848 711 LINE",
"1176 711 LINE",
"1176 881 LINE",
"848 881 LINE",
"848 1323 LINE",
"1206 1323 LINE",
"1206 1493 LINE",
"612 1493 LINE SMOOTH",
"408 1493 OFFCURVE",
"276 1438 OFFCURVE",
"195 1327 CURVE SMOOTH",
"114 1216 OFFCURVE",
"72 1035 OFFCURVE",
"72 747 CURVE SMOOTH",
"72 467 OFFCURVE",
"111 283 OFFCURVE",
"196 167 CURVE SMOOTH",
"277 56 OFFCURVE",
"407 0 OFFCURVE",
"612 0 CURVE SMOOTH",
"1217 0 LINE"
);
},
{
closed = 1;
nodes = (
"590 170 LINE SMOOTH",
"472 170 OFFCURVE",
"390 208 OFFCURVE",
"344 285 CURVE SMOOTH",
"296 362 OFFCURVE",
"274 508 OFFCURVE",
"274 745 CURVE SMOOTH",
"274 864 OFFCURVE",
"280 962 OFFCURVE",
"292 1037 CURVE SMOOTH",
"315 1187 OFFCURVE",
"354 1323 OFFCURVE",
"590 1323 CURVE SMOOTH",
"651 1323 LINE",
"651 170 LINE"
);
}
);
width = 1233;
}
);
note = OE;
unicode = 0152;
},
{
glyphname = P;
lastChange = "2016-07-20 22:44:41 +0000";
layers = (
{
layerId = "C8600398-8A20-4DEB-92AF-E95853BEE82A";
paths = (
{
closed = 1;
nodes = (
"172 0 LINE",
"374 0 LINE",
"374 600 LINE",
"608 600 LINE SMOOTH",
"945 600 OFFCURVE",
"1116 753 OFFCURVE",
"1116 1046 CURVE SMOOTH",
"1116 1192 OFFCURVE",
"1073 1303 OFFCURVE",
"987 1380 CURVE SMOOTH",
"900 1455 OFFCURVE",
"773 1493 OFFCURVE",
"608 1493 CURVE SMOOTH",
"172 1493 LINE"
);
},
{
closed = 1;
nodes = (
"374 1327 LINE",
"608 1327 LINE SMOOTH",
"799 1327 OFFCURVE",
"905 1226 OFFCURVE",
"905 1047 CURVE SMOOTH",
"905 870 OFFCURVE",
"795 766 OFFCURVE",
"608 766 CURVE SMOOTH",
"374 766 LINE"
);
}
);
width = 1233;
}
);
note = P;
unicode = 0050;
},
{
glyphname = Thorn;
lastChange = "2016-07-20 22:44:41 +0000";
layers = (
{
layerId = "C8600398-8A20-4DEB-92AF-E95853BEE82A";
paths = (
{
closed = 1;
nodes = (
"201 0 LINE",
"403 0 LINE",
"403 367 LINE",
"657 367 LINE SMOOTH",
"1004 367 OFFCURVE",
"1165 503 OFFCURVE",
"1165 794 CURVE SMOOTH",
"1165 1086 OFFCURVE",
"1002 1223 OFFCURVE",
"657 1223 CURVE SMOOTH",
"403 1223 LINE",
"403 1493 LINE",
"201 1493 LINE"
);
},
{
closed = 1;
nodes = (
"403 1057 LINE",
"637 1057 LINE SMOOTH",
"849 1057 OFFCURVE",
"952 971 OFFCURVE",
"952 795 CURVE SMOOTH",
"952 620 OFFCURVE",
"848 532 OFFCURVE",
"637 532 CURVE SMOOTH",
"403 532 LINE"
);
}
);
width = 1233;
}
);
note = Thorn;
unicode = 00DE;
},
{
glyphname = Q;
lastChange = "2016-07-20 22:44:41 +0000";
layers = (
{
layerId = "C8600398-8A20-4DEB-92AF-E95853BEE82A";
paths = (
{
closed = 1;
nodes = (
"1125 -270 LINE",
"840 20 LINE",
"1027 115 OFFCURVE",
"1116 356 OFFCURVE",
"1116 745 CURVE SMOOTH",
"1116 1266 OFFCURVE",
"955 1520 OFFCURVE",
"616 1520 CURVE SMOOTH",
"445 1520 OFFCURVE",
"325 1457 OFFCURVE",
"241 1328 CURVE SMOOTH",
"158 1201 OFFCURVE",
"117 1007 OFFCURVE",
"117 745 CURVE SMOOTH",
"117 486 OFFCURVE",
"157 295 OFFCURVE",
"241 163 CURVE SMOOTH",
"325 31 OFFCURVE",
"448 -29 OFFCURVE",
"617 -29 CURVE",
"635 -28 LINE",
"641 -27 OFFCURVE",
"648 -27 OFFCURVE",
"655 -27 CURVE",
"889 -270 LINE"
);
},
{
closed = 1;
nodes = (
"515 135 OFFCURVE",
"441 182 OFFCURVE",
"396 276 CURVE SMOOTH",
"351 372 OFFCURVE",
"328 528 OFFCURVE",
"328 745 CURVE SMOOTH",
"328 962 OFFCURVE",
"351 1119 OFFCURVE",
"396 1215 CURVE SMOOTH",
"441 1309 OFFCURVE",
"515 1356 OFFCURVE",
"616 1356 CURVE SMOOTH",
"719 1356 OFFCURVE",
"793 1309 OFFCURVE",
"838 1215 CURVE SMOOTH",
"883 1123 OFFCURVE",
"905 966 OFFCURVE",
"905 745 CURVE SMOOTH",
"905 524 OFFCURVE",
"883 367 OFFCURVE",
"838 276 CURVE SMOOTH",
"793 182 OFFCURVE",
"719 135 OFFCURVE",
"616 135 CURVE SMOOTH"
);
}
);
width = 1233;
}
);
note = Q;
unicode = 0051;
},
{
glyphname = R;
lastChange = "2016-07-20 22:44:41 +0000";
layers = (
{
layerId = "C8600398-8A20-4DEB-92AF-E95853BEE82A";
paths = (
{
closed = 1;
nodes = (
"143 0 LINE",
"346 0 LINE",
"346 631 LINE",
"539 631 LINE SMOOTH",
"675 631 OFFCURVE",
"739 589 OFFCURVE",
"838 377 CURVE SMOOTH",
"1016 0 LINE",
"1233 0 LINE",
"1030 408 LINE SMOOTH",
"971 524 OFFCURVE",
"930 591 OFFCURVE",
"893 630 CURVE SMOOTH",
"860 665 OFFCURVE",
"812 692 OFFCURVE",
"760 705 CURVE",
"859 719 OFFCURVE",
"934 757 OFFCURVE",
"987 820 CURVE SMOOTH",
"1040 884 OFFCURVE",
"1067 961 OFFCURVE",
"1067 1065 CURVE SMOOTH",
"1067 1338 OFFCURVE",
"888 1493 OFFCURVE",
"559 1493 CURVE SMOOTH",
"143 1493 LINE"
);
},
{
closed = 1;
nodes = (
"346 1327 LINE",
"559 1327 LINE SMOOTH",
"751 1327 OFFCURVE",
"854 1234 OFFCURVE",
"854 1059 CURVE SMOOTH",
"854 883 OFFCURVE",
"760 797 OFFCURVE",
"567 797 CURVE SMOOTH",
"346 797 LINE"
);
}
);
width = 1233;
}
);
note = R;
unicode = 0052;
},
{
glyphname = Racute;
lastChange = "2016-07-20 22:44:41 +0000";
layers = (
{
layerId = "C8600398-8A20-4DEB-92AF-E95853BEE82A";
paths = (
{
closed = 1;
nodes = (
"434 1592 LINE",
"588 1592 LINE",
"817 1856 LINE",
"631 1856 LINE"
);
},
{
closed = 1;
nodes = (
"143 0 LINE",
"346 0 LINE",
"346 631 LINE",
"539 631 LINE SMOOTH",
"585 631 OFFCURVE",
"623 625 OFFCURVE",
"654 613 CURVE SMOOTH",
"715 588 OFFCURVE",
"770 521 OFFCURVE",
"838 377 CURVE SMOOTH",
"1016 0 LINE",
"1233 0 LINE",
"1030 408 LINE SMOOTH",
"993 481 OFFCURVE",
"961 537 OFFCURVE",
"935 576 CURVE SMOOTH",
"882 653 OFFCURVE",
"836 684 OFFCURVE",
"760 705 CURVE",
"956 734 OFFCURVE",
"1067 860 OFFCURVE",
"1067 1069 CURVE SMOOTH",
"1067 1158 OFFCURVE",
"1047 1235 OFFCURVE",
"1008 1298 CURVE SMOOTH",
"929 1425 OFFCURVE",
"775 1493 OFFCURVE",
"559 1493 CURVE SMOOTH",
"143 1493 LINE"
);
},
{
closed = 1;
nodes = (
"346 1327 LINE",
"559 1327 LINE SMOOTH",
"752 1327 OFFCURVE",
"854 1236 OFFCURVE",
"854 1056 CURVE SMOOTH",
"854 883 OFFCURVE",
"758 797 OFFCURVE",
"567 797 CURVE SMOOTH",
"346 797 LINE"
);
}
);
width = 1233;
}
);
note = Racute;
unicode = 0154;
},
{
glyphname = Rcaron;
lastChange = "2016-07-20 22:44:41 +0000";
layers = (
{
layerId = "C8600398-8A20-4DEB-92AF-E95853BEE82A";
paths = (
{
closed = 1;
nodes = (
"468 1586 LINE",
"657 1586 LINE",
"868 1852 LINE",
"728 1852 LINE",
"562 1674 LINE",
"397 1852 LINE",
"257 1852 LINE"
);
},
{
closed = 1;
nodes = (
"143 0 LINE",
"346 0 LINE",
"346 631 LINE",
"539 631 LINE SMOOTH",
"585 631 OFFCURVE",
"623 625 OFFCURVE",
"654 613 CURVE SMOOTH",
"715 588 OFFCURVE",
"770 521 OFFCURVE",
"838 377 CURVE SMOOTH",
"1016 0 LINE",
"1233 0 LINE",
"1030 408 LINE SMOOTH",
"993 481 OFFCURVE",
"961 537 OFFCURVE",
"935 576 CURVE SMOOTH",
"882 653 OFFCURVE",
"836 684 OFFCURVE",
"760 705 CURVE",
"956 734 OFFCURVE",
"1067 860 OFFCURVE",
"1067 1069 CURVE SMOOTH",
"1067 1158 OFFCURVE",
"1047 1235 OFFCURVE",
"1008 1298 CURVE SMOOTH",
"929 1425 OFFCURVE",
"775 1493 OFFCURVE",
"559 1493 CURVE SMOOTH",
"143 1493 LINE"
);
},
{
closed = 1;
nodes = (
"346 1327 LINE",
"559 1327 LINE SMOOTH",
"752 1327 OFFCURVE",
"854 1236 OFFCURVE",
"854 1056 CURVE SMOOTH",
"854 883 OFFCURVE",
"758 797 OFFCURVE",
"567 797 CURVE SMOOTH",
"346 797 LINE"
);
}
);
width = 1233;
}
);
note = Rcaron;
unicode = 0158;
},
{
glyphname = uni0156;
lastChange = "2016-07-20 22:44:41 +0000";
layers = (
{
layerId = "C8600398-8A20-4DEB-92AF-E95853BEE82A";
paths = (
{
closed = 1;
nodes = (
"143 0 LINE",
"346 0 LINE",
"346 631 LINE",
"539 631 LINE SMOOTH",
"585 631 OFFCURVE",
"623 625 OFFCURVE",
"654 613 CURVE SMOOTH",
"715 588 OFFCURVE",
"770 521 OFFCURVE",
"838 377 CURVE SMOOTH",
"1016 0 LINE",
"1233 0 LINE",
"1030 408 LINE SMOOTH",
"993 481 OFFCURVE",
"961 537 OFFCURVE",
"935 576 CURVE SMOOTH",
"882 653 OFFCURVE",
"836 684 OFFCURVE",
"760 705 CURVE",
"956 734 OFFCURVE",
"1067 860 OFFCURVE",
"1067 1069 CURVE SMOOTH",
"1067 1158 OFFCURVE",
"1047 1235 OFFCURVE",
"1008 1298 CURVE SMOOTH",
"929 1425 OFFCURVE",
"775 1493 OFFCURVE",
"559 1493 CURVE SMOOTH",
"143 1493 LINE"
);
},
{
closed = 1;
nodes = (
"346 1327 LINE",
"559 1327 LINE SMOOTH",
"752 1327 OFFCURVE",
"854 1236 OFFCURVE",
"854 1056 CURVE SMOOTH",
"854 883 OFFCURVE",
"758 797 OFFCURVE",
"567 797 CURVE SMOOTH",
"346 797 LINE"
);
},
{
closed = 1;
nodes = (
"522 -544 LINE",
"668 -544 LINE",
"855 -199 LINE",
"616 -199 LINE"
);
}
);
width = 1233;
}
);
note = uni0156;
unicode = 0156;
},
{
glyphname = S;
lastChange = "2016-07-20 22:44:41 +0000";
layers = (
{
layerId = "C8600398-8A20-4DEB-92AF-E95853BEE82A";
paths = (
{
closed = 1;
nodes = (
"920 -29 OFFCURVE",
"1098 123 OFFCURVE",
"1098 410 CURVE SMOOTH",
"1098 651 OFFCURVE",
"972 785 OFFCURVE",
"696 848 CURVE SMOOTH",
"590 872 LINE SMOOTH",
"489 895 OFFCURVE",
"427 921 OFFCURVE",
"387 960 CURVE SMOOTH",
"351 995 OFFCURVE",
"332 1040 OFFCURVE",
"332 1105 CURVE SMOOTH",
"332 1184 OFFCURVE",
"359 1246 OFFCURVE",
"414 1290 CURVE SMOOTH",
"469 1334 OFFCURVE",
"549 1356 OFFCURVE",
"642 1356 CURVE SMOOTH",
"766 1356 OFFCURVE",
"892 1314 OFFCURVE",
"1012 1237 CURVE",
"1012 1442 LINE",
"879 1493 OFFCURVE",
"747 1520 OFFCURVE",
"631 1520 CURVE SMOOTH",
"482 1520 OFFCURVE",
"361 1478 OFFCURVE",
"274 1401 CURVE SMOOTH",
"186 1324 OFFCURVE",
"139 1214 OFFCURVE",
"139 1079 CURVE SMOOTH",
"139 972 OFFCURVE",
"170 887 OFFCURVE",
"233 824 CURVE SMOOTH",
"298 757 OFFCURVE",
"395 714 OFFCURVE",
"535 682 CURVE SMOOTH",
"643 657 LINE SMOOTH",
"746 633 OFFCURVE",
"806 608 OFFCURVE",
"847 565 CURVE SMOOTH",
"887 525 OFFCURVE",
"905 475 OFFCURVE",
"905 400 CURVE SMOOTH",
"905 228 OFFCURVE",
"785 135 OFFCURVE",
"581 135 CURVE SMOOTH",
"442 135 OFFCURVE",
"309 180 OFFCURVE",
"158 276 CURVE",
"158 61 LINE",
"307 0 OFFCURVE",
"435 -29 OFFCURVE",
"584 -29 CURVE SMOOTH"
);
}
);
width = 1233;
}
);
note = S;
unicode = 0053;
},
{
glyphname = Sacute;
lastChange = "2016-07-20 22:44:41 +0000";
layers = (
{
layerId = "C8600398-8A20-4DEB-92AF-E95853BEE82A";
paths = (
{
closed = 1;
nodes = (
"504 1592 LINE",
"658 1592 LINE",
"887 1856 LINE",
"701 1856 LINE"
);
},
{
closed = 1;
nodes = (
"918 -29 OFFCURVE",
"1098 124 OFFCURVE",
"1098 411 CURVE SMOOTH",
"1098 647 OFFCURVE",
"976 785 OFFCURVE",
"696 848 CURVE SMOOTH",
"590 872 LINE SMOOTH",
"525 886 OFFCURVE",
"474 903 OFFCURVE",
"437 924 CURVE SMOOTH",
"362 964 OFFCURVE",
"332 1020 OFFCURVE",
"332 1101 CURVE SMOOTH",
"332 1264 OFFCURVE",
"449 1356 OFFCURVE",
"640 1356 CURVE SMOOTH",
"765 1356 OFFCURVE",
"889 1316 OFFCURVE",
"1012 1237 CURVE",
"1012 1442 LINE",
"872 1494 OFFCURVE",
"745 1520 OFFCURVE",
"631 1520 CURVE SMOOTH",
"533 1520 OFFCURVE",
"447 1502 OFFCURVE",
"373 1466 CURVE SMOOTH",
"224 1393 OFFCURVE",
"139 1254 OFFCURVE",
"139 1077 CURVE SMOOTH",
"139 868 OFFCURVE",
"258 746 OFFCURVE",
"535 682 CURVE SMOOTH",
"643 657 LINE SMOOTH",
"708 642 OFFCURVE",
"760 623 OFFCURVE",
"798 601 CURVE SMOOTH",
"874 557 OFFCURVE",
"905 497 OFFCURVE",
"905 405 CURVE SMOOTH",
"905 228 OFFCURVE",
"790 135 OFFCURVE",
"583 135 CURVE SMOOTH",
"443 135 OFFCURVE",
"311 179 OFFCURVE",
"158 276 CURVE",
"158 61 LINE",
"303 1 OFFCURVE",
"441 -29 OFFCURVE",
"586 -29 CURVE SMOOTH"
);
}
);
width = 1233;
}
);
note = Sacute;
unicode = 015A;
},
{
glyphname = Scaron;
lastChange = "2016-07-20 22:44:41 +0000";
layers = (
{
layerId = "C8600398-8A20-4DEB-92AF-E95853BEE82A";
paths = (
{
closed = 1;
nodes = (
"538 1586 LINE",
"727 1586 LINE",
"938 1852 LINE",
"798 1852 LINE",
"632 1674 LINE",
"467 1852 LINE",
"327 1852 LINE"
);
},
{
closed = 1;
nodes = (
"921 -29 OFFCURVE",
"1098 123 OFFCURVE",
"1098 410 CURVE SMOOTH",
"1098 651 OFFCURVE",
"968 787 OFFCURVE",
"696 848 CURVE SMOOTH",
"590 872 LINE SMOOTH",
"490 895 OFFCURVE",
"427 923 OFFCURVE",
"387 960 CURVE SMOOTH",
"347 997 OFFCURVE",
"332 1045 OFFCURVE",
"332 1105 CURVE SMOOTH",
"332 1184 OFFCURVE",
"359 1245 OFFCURVE",
"414 1290 CURVE SMOOTH",
"466 1333 OFFCURVE",
"545 1356 OFFCURVE",
"642 1356 CURVE SMOOTH",
"766 1356 OFFCURVE",
"895 1312 OFFCURVE",
"1012 1237 CURVE",
"1012 1442 LINE",
"879 1493 OFFCURVE",
"747 1520 OFFCURVE",
"631 1520 CURVE SMOOTH",
"482 1520 OFFCURVE",
"361 1478 OFFCURVE",
"274 1401 CURVE SMOOTH",
"187 1324 OFFCURVE",
"139 1214 OFFCURVE",
"139 1079 CURVE SMOOTH",
"139 970 OFFCURVE",
"170 888 OFFCURVE",
"233 824 CURVE SMOOTH",
"298 757 OFFCURVE",
"395 714 OFFCURVE",
"535 682 CURVE SMOOTH",
"643 657 LINE SMOOTH",
"742 634 OFFCURVE",
"808 607 OFFCURVE",
"847 566 CURVE SMOOTH",
"886 526 OFFCURVE",
"905 470 OFFCURVE",
"905 399 CURVE SMOOTH",
"905 230 OFFCURVE",
"785 135 OFFCURVE",
"582 135 CURVE SMOOTH",
"443 135 OFFCURVE",
"309 180 OFFCURVE",
"158 276 CURVE",
"158 61 LINE",
"311 -2 OFFCURVE",
"425 -29 OFFCURVE",
"584 -29 CURVE SMOOTH"
);
}
);
width = 1233;
}
);
note = Scaron;
unicode = 0160;
},
{
glyphname = Scedilla;
lastChange = "2016-07-20 22:44:41 +0000";
layers = (
{
layerId = "C8600398-8A20-4DEB-92AF-E95853BEE82A";
paths = (
{
closed = 1;
nodes = (
"934 766 OFFCURVE",
"832 817 OFFCURVE",
"696 848 CURVE SMOOTH",
"590 872 LINE SMOOTH",
"490 895 OFFCURVE",
"427 923 OFFCURVE",
"387 960 CURVE SMOOTH",
"347 997 OFFCURVE",
"332 1045 OFFCURVE",
"332 1105 CURVE SMOOTH",
"332 1184 OFFCURVE",
"359 1245 OFFCURVE",
"414 1290 CURVE SMOOTH",
"466 1333 OFFCURVE",
"545 1356 OFFCURVE",
"642 1356 CURVE SMOOTH",
"766 1356 OFFCURVE",
"895 1312 OFFCURVE",
"1012 1237 CURVE",
"1012 1442 LINE",
"879 1493 OFFCURVE",
"747 1520 OFFCURVE",
"631 1520 CURVE SMOOTH",
"482 1520 OFFCURVE",
"361 1478 OFFCURVE",
"274 1401 CURVE SMOOTH",
"187 1324 OFFCURVE",
"139 1214 OFFCURVE",
"139 1079 CURVE SMOOTH",
"139 970 OFFCURVE",
"170 888 OFFCURVE",
"233 824 CURVE SMOOTH",
"298 757 OFFCURVE",
"395 714 OFFCURVE",
"535 682 CURVE SMOOTH",
"643 657 LINE SMOOTH",
"742 634 OFFCURVE",
"808 607 OFFCURVE",
"847 566 CURVE SMOOTH",
"886 526 OFFCURVE",
"905 470 OFFCURVE",
"905 399 CURVE SMOOTH",
"905 230 OFFCURVE",
"785 135 OFFCURVE",
"582 135 CURVE SMOOTH",
"443 135 OFFCURVE",
"309 180 OFFCURVE",
"158 276 CURVE",
"158 61 LINE",
"311 -2 OFFCURVE",
"425 -29 OFFCURVE",
"584 -29 CURVE SMOOTH",
"602 -29 LINE",
"650 -102 OFFCURVE",
"670 -137 OFFCURVE",
"670 -180 CURVE SMOOTH",
"670 -239 OFFCURVE",
"631 -272 OFFCURVE",
"546 -272 CURVE SMOOTH",
"487 -272 OFFCURVE",
"446 -264 OFFCURVE",
"395 -240 CURVE",
"395 -371 LINE",
"451 -387 OFFCURVE",
"513 -395 OFFCURVE",
"570 -395 CURVE SMOOTH",
"649 -395 OFFCURVE",
"708 -380 OFFCURVE",
"749 -350 CURVE SMOOTH",
"789 -319 OFFCURVE",
"809 -272 OFFCURVE",
"809 -219 CURVE SMOOTH",
"809 -152 OFFCURVE",
"781 -97 OFFCURVE",
"717 -20 CURVE",
"925 12 OFFCURVE",
"1098 123 OFFCURVE",
"1098 410 CURVE SMOOTH",
"1098 531 OFFCURVE",
"1066 625 OFFCURVE",
"1001 694 CURVE SMOOTH"
);
}
);
width = 1233;
}
);
note = Scedilla;
unicode = 015E;
},
{
glyphname = uni0218;
lastChange = "2016-07-20 22:44:41 +0000";
layers = (
{
layerId = "C8600398-8A20-4DEB-92AF-E95853BEE82A";
paths = (
{
closed = 1;
nodes = (
"918 -29 OFFCURVE",
"1098 124 OFFCURVE",
"1098 411 CURVE SMOOTH",
"1098 647 OFFCURVE",
"976 785 OFFCURVE",
"696 848 CURVE SMOOTH",
"590 872 LINE SMOOTH",
"525 886 OFFCURVE",
"474 903 OFFCURVE",
"437 924 CURVE SMOOTH",
"362 964 OFFCURVE",
"332 1020 OFFCURVE",
"332 1101 CURVE SMOOTH",
"332 1264 OFFCURVE",
"449 1356 OFFCURVE",
"640 1356 CURVE SMOOTH",
"765 1356 OFFCURVE",
"889 1316 OFFCURVE",
"1012 1237 CURVE",
"1012 1442 LINE",
"872 1494 OFFCURVE",
"745 1520 OFFCURVE",
"631 1520 CURVE SMOOTH",
"533 1520 OFFCURVE",
"447 1502 OFFCURVE",
"373 1466 CURVE SMOOTH",
"224 1393 OFFCURVE",
"139 1254 OFFCURVE",
"139 1077 CURVE SMOOTH",
"139 868 OFFCURVE",
"258 746 OFFCURVE",
"535 682 CURVE SMOOTH",
"643 657 LINE SMOOTH",
"708 642 OFFCURVE",
"760 623 OFFCURVE",
"798 601 CURVE SMOOTH",
"874 557 OFFCURVE",
"905 497 OFFCURVE",
"905 405 CURVE SMOOTH",
"905 228 OFFCURVE",
"790 135 OFFCURVE",
"583 135 CURVE SMOOTH",
"443 135 OFFCURVE",
"311 179 OFFCURVE",
"158 276 CURVE",
"158 61 LINE",
"303 1 OFFCURVE",
"441 -29 OFFCURVE",
"586 -29 CURVE SMOOTH"
);
},
{
closed = 1;
nodes = (
"408 -542 LINE",
"554 -542 LINE",
"741 -197 LINE",
"502 -197 LINE"
);
}
);
width = 1233;
}
);
note = uni0218;
unicode = 0218;
},
{
glyphname = T;
lastChange = "2016-07-20 22:44:41 +0000";
layers = (
{
layerId = "C8600398-8A20-4DEB-92AF-E95853BEE82A";
paths = (
{
closed = 1;
nodes = (
"516 0 LINE",
"719 0 LINE",
"719 1323 LINE",
"1186 1323 LINE",
"1186 1493 LINE",
"47 1493 LINE",
"47 1323 LINE",
"516 1323 LINE"
);
}
);
width = 1233;
}
);
note = T;
unicode = 0054;
},
{
glyphname = Tbar;
lastChange = "2016-07-20 22:44:41 +0000";
layers = (
{
layerId = "C8600398-8A20-4DEB-92AF-E95853BEE82A";
paths = (
{
closed = 1;
nodes = (
"516 0 LINE",
"719 0 LINE",
"719 577 LINE",
"984 577 LINE",
"984 747 LINE",
"719 747 LINE",
"719 1323 LINE",
"1186 1323 LINE",
"1186 1493 LINE",
"47 1493 LINE",
"47 1323 LINE",
"516 1323 LINE",
"516 747 LINE",
"251 747 LINE",
"251 577 LINE",
"516 577 LINE"
);
}
);
width = 1233;
}
);
note = Tbar;
unicode = 0166;
},
{
glyphname = Tcaron;
lastChange = "2016-07-20 22:44:41 +0000";
layers = (
{
layerId = "C8600398-8A20-4DEB-92AF-E95853BEE82A";
paths = (
{
closed = 1;
nodes = (
"528 1586 LINE",
"717 1586 LINE",
"928 1852 LINE",
"788 1852 LINE",
"622 1674 LINE",
"457 1852 LINE",
"317 1852 LINE"
);
},
{
closed = 1;
nodes = (
"516 0 LINE",
"719 0 LINE",
"719 1323 LINE",
"1186 1323 LINE",
"1186 1493 LINE",
"47 1493 LINE",
"47 1323 LINE",
"516 1323 LINE"
);
}
);
width = 1233;
}
);
note = Tcaron;
unicode = 0164;
},
{
glyphname = uni021A;
lastChange = "2016-07-20 22:44:41 +0000";
layers = (
{
layerId = "C8600398-8A20-4DEB-92AF-E95853BEE82A";
paths = (
{
closed = 1;
nodes = (
"719 1323 LINE",
"1186 1323 LINE",
"1186 1493 LINE",
"47 1493 LINE",
"47 1323 LINE",
"516 1323 LINE",
"516 0 LINE",
"582 0 LINE",
"646 -89 OFFCURVE",
"670 -141 OFFCURVE",
"670 -182 CURVE SMOOTH",
"670 -242 OFFCURVE",
"627 -272 OFFCURVE",
"542 -272 CURVE SMOOTH",
"489 -272 OFFCURVE",
"434 -261 OFFCURVE",
"395 -240 CURVE",
"395 -371 LINE",
"454 -387 OFFCURVE",
"512 -395 OFFCURVE",
"569 -395 CURVE SMOOTH",
"728 -395 OFFCURVE",
"809 -333 OFFCURVE",
"809 -220 CURVE SMOOTH",
"809 -148 OFFCURVE",
"777 -85 OFFCURVE",
"700 0 CURVE",
"719 0 LINE"
);
}
);
width = 1233;
}
);
note = uni021A;
unicode = 021A;
},
{
glyphname = U;
lastChange = "2016-07-20 22:44:41 +0000";
layers = (
{
layerId = "C8600398-8A20-4DEB-92AF-E95853BEE82A";
paths = (
{
closed = 1;
nodes = (
"687 -29 OFFCURVE",
"750 -19 OFFCURVE",
"806 0 CURVE SMOOTH",
"931 45 OFFCURVE",
"1021 120 OFFCURVE",
"1057 249 CURVE SMOOTH",
"1074 316 OFFCURVE",
"1085 409 OFFCURVE",
"1085 573 CURVE SMOOTH",
"1085 1493 LINE",
"883 1493 LINE",
"883 479 LINE SMOOTH",
"883 408 OFFCURVE",
"881 356 OFFCURVE",
"877 325 CURVE SMOOTH",
"874 297 OFFCURVE",
"867 273 OFFCURVE",
"856 254 CURVE SMOOTH",
"815 178 OFFCURVE",
"732 135 OFFCURVE",
"616 135 CURVE SMOOTH",
"559 135 OFFCURVE",
"510 145 OFFCURVE",
"470 165 CURVE SMOOTH",
"389 205 OFFCURVE",
"364 263 OFFCURVE",
"356 326 CURVE SMOOTH",
"352 357 OFFCURVE",
"350 409 OFFCURVE",
"350 481 CURVE SMOOTH",
"350 1493 LINE",
"147 1493 LINE",
"147 573 LINE SMOOTH",
"147 410 OFFCURVE",
"156 317 OFFCURVE",
"177 249 CURVE SMOOTH",
"200 176 OFFCURVE",
"230 127 OFFCURVE",
"273 88 CURVE SMOOTH",
"312 53 OFFCURVE",
"364 23 OFFCURVE",
"427 0 CURVE SMOOTH",
"484 -19 OFFCURVE",
"547 -29 OFFCURVE",
"616 -29 CURVE SMOOTH"
);
}
);
width = 1233;
}
);
note = U;
unicode = 0055;
},
{
glyphname = Uacute;
lastChange = "2016-07-20 22:44:41 +0000";
layers = (
{
layerId = "C8600398-8A20-4DEB-92AF-E95853BEE82A";
paths = (
{
closed = 1;
nodes = (
"475 1592 LINE",
"629 1592 LINE",
"858 1856 LINE",
"672 1856 LINE"
);
},
{
closed = 1;
nodes = (
"687 -29 OFFCURVE",
"750 -19 OFFCURVE",
"806 0 CURVE SMOOTH",
"931 45 OFFCURVE",
"1021 120 OFFCURVE",
"1057 249 CURVE SMOOTH",
"1074 316 OFFCURVE",
"1085 409 OFFCURVE",
"1085 573 CURVE SMOOTH",
"1085 1493 LINE",
"883 1493 LINE",
"883 479 LINE SMOOTH",
"883 408 OFFCURVE",
"881 356 OFFCURVE",
"877 325 CURVE SMOOTH",
"874 297 OFFCURVE",
"867 273 OFFCURVE",
"856 254 CURVE SMOOTH",
"815 178 OFFCURVE",
"732 135 OFFCURVE",
"616 135 CURVE SMOOTH",
"559 135 OFFCURVE",
"510 145 OFFCURVE",
"470 165 CURVE SMOOTH",
"389 205 OFFCURVE",
"364 263 OFFCURVE",
"356 326 CURVE SMOOTH",
"352 357 OFFCURVE",
"350 409 OFFCURVE",
"350 481 CURVE SMOOTH",
"350 1493 LINE",
"147 1493 LINE",
"147 573 LINE SMOOTH",
"147 410 OFFCURVE",
"156 317 OFFCURVE",
"177 249 CURVE SMOOTH",
"200 176 OFFCURVE",
"230 127 OFFCURVE",
"273 88 CURVE SMOOTH",
"312 53 OFFCURVE",
"364 23 OFFCURVE",
"427 0 CURVE SMOOTH",
"484 -19 OFFCURVE",
"547 -29 OFFCURVE",
"616 -29 CURVE SMOOTH"
);
}
);
width = 1233;
}
);
note = Uacute;
unicode = 00DA;
},
{
glyphname = Ucircumflex;
lastChange = "2016-07-20 22:44:41 +0000";
layers = (
{
layerId = "C8600398-8A20-4DEB-92AF-E95853BEE82A";
paths = (
{
closed = 1;
nodes = (
"311 1586 LINE",
"451 1586 LINE",
"616 1764 LINE",
"782 1586 LINE",
"922 1586 LINE",
"711 1852 LINE",
"522 1852 LINE"
);
},
{
closed = 1;
nodes = (
"687 -29 OFFCURVE",
"750 -19 OFFCURVE",
"806 0 CURVE SMOOTH",
"931 45 OFFCURVE",
"1021 120 OFFCURVE",
"1057 249 CURVE SMOOTH",
"1074 316 OFFCURVE",
"1085 409 OFFCURVE",
"1085 573 CURVE SMOOTH",
"1085 1493 LINE",
"883 1493 LINE",
"883 479 LINE SMOOTH",
"883 408 OFFCURVE",
"881 356 OFFCURVE",
"877 325 CURVE SMOOTH",
"874 297 OFFCURVE",
"867 273 OFFCURVE",
"856 254 CURVE SMOOTH",
"815 178 OFFCURVE",
"732 135 OFFCURVE",
"616 135 CURVE SMOOTH",
"559 135 OFFCURVE",
"510 145 OFFCURVE",
"470 165 CURVE SMOOTH",
"389 205 OFFCURVE",
"364 263 OFFCURVE",
"356 326 CURVE SMOOTH",
"352 357 OFFCURVE",
"350 409 OFFCURVE",
"350 481 CURVE SMOOTH",
"350 1493 LINE",
"147 1493 LINE",
"147 573 LINE SMOOTH",
"147 410 OFFCURVE",
"156 317 OFFCURVE",
"177 249 CURVE SMOOTH",
"200 176 OFFCURVE",
"230 127 OFFCURVE",
"273 88 CURVE SMOOTH",
"312 53 OFFCURVE",
"364 23 OFFCURVE",
"427 0 CURVE SMOOTH",
"484 -19 OFFCURVE",
"547 -29 OFFCURVE",
"616 -29 CURVE SMOOTH"
);
}
);
width = 1233;
}
);
note = Ucircumflex;
unicode = 00DB;
},
{
glyphname = Udieresis;
lastChange = "2016-07-20 22:44:41 +0000";
layers = (
{
layerId = "C8600398-8A20-4DEB-92AF-E95853BEE82A";
paths = (
{
closed = 1;
nodes = (
"512 1647 OFFCURVE",
"522 1657 OFFCURVE",
"522 1677 CURVE SMOOTH",
"522 1820 LINE SMOOTH",
"522 1840 OFFCURVE",
"512 1850 OFFCURVE",
"492 1850 CURVE SMOOTH",
"349 1850 LINE SMOOTH",
"329 1850 OFFCURVE",
"319 1840 OFFCURVE",
"319 1820 CURVE SMOOTH",
"319 1677 LINE SMOOTH",
"319 1657 OFFCURVE",
"329 1647 OFFCURVE",
"349 1647 CURVE SMOOTH",
"492 1647 LINE SMOOTH"
);
},
{
closed = 1;
nodes = (
"903 1647 OFFCURVE",
"913 1657 OFFCURVE",
"913 1677 CURVE SMOOTH",
"913 1820 LINE SMOOTH",
"913 1840 OFFCURVE",
"903 1850 OFFCURVE",
"883 1850 CURVE SMOOTH",
"741 1850 LINE SMOOTH",
"721 1850 OFFCURVE",
"711 1840 OFFCURVE",
"711 1820 CURVE SMOOTH",
"711 1677 LINE SMOOTH",
"711 1657 OFFCURVE",
"721 1647 OFFCURVE",
"741 1647 CURVE SMOOTH",
"883 1647 LINE SMOOTH"
);
},
{
closed = 1;
nodes = (
"687 -29 OFFCURVE",
"750 -19 OFFCURVE",
"806 0 CURVE SMOOTH",
"931 45 OFFCURVE",
"1021 120 OFFCURVE",
"1057 249 CURVE SMOOTH",
"1074 316 OFFCURVE",
"1085 409 OFFCURVE",
"1085 573 CURVE SMOOTH",
"1085 1493 LINE",
"883 1493 LINE",
"883 479 LINE SMOOTH",
"883 408 OFFCURVE",
"881 356 OFFCURVE",
"877 325 CURVE SMOOTH",
"874 297 OFFCURVE",
"867 273 OFFCURVE",
"856 254 CURVE SMOOTH",
"815 178 OFFCURVE",
"732 135 OFFCURVE",
"616 135 CURVE SMOOTH",
"559 135 OFFCURVE",
"510 145 OFFCURVE",
"470 165 CURVE SMOOTH",
"389 205 OFFCURVE",
"364 263 OFFCURVE",
"356 326 CURVE SMOOTH",
"352 357 OFFCURVE",
"350 409 OFFCURVE",
"350 481 CURVE SMOOTH",
"350 1493 LINE",
"147 1493 LINE",
"147 573 LINE SMOOTH",
"147 410 OFFCURVE",
"156 317 OFFCURVE",
"177 249 CURVE SMOOTH",
"200 176 OFFCURVE",
"230 127 OFFCURVE",
"273 88 CURVE SMOOTH",
"312 53 OFFCURVE",
"364 23 OFFCURVE",
"427 0 CURVE SMOOTH",
"484 -19 OFFCURVE",
"547 -29 OFFCURVE",
"616 -29 CURVE SMOOTH"
);
}
);
width = 1233;
}
);
note = Udieresis;
unicode = 00DC;
},
{
glyphname = Ugrave;
lastChange = "2016-07-20 22:44:41 +0000";
layers = (
{
layerId = "C8600398-8A20-4DEB-92AF-E95853BEE82A";
paths = (
{
closed = 1;
nodes = (
"604 1588 LINE",
"758 1588 LINE",
"561 1852 LINE",
"377 1852 LINE"
);
},
{
closed = 1;
nodes = (
"687 -29 OFFCURVE",
"750 -19 OFFCURVE",
"806 0 CURVE SMOOTH",
"931 45 OFFCURVE",
"1021 120 OFFCURVE",
"1057 249 CURVE SMOOTH",
"1074 316 OFFCURVE",
"1085 409 OFFCURVE",
"1085 573 CURVE SMOOTH",
"1085 1493 LINE",
"883 1493 LINE",
"883 479 LINE SMOOTH",
"883 408 OFFCURVE",
"881 356 OFFCURVE",
"877 325 CURVE SMOOTH",
"874 297 OFFCURVE",
"867 273 OFFCURVE",
"856 254 CURVE SMOOTH",
"815 178 OFFCURVE",
"732 135 OFFCURVE",
"616 135 CURVE SMOOTH",
"559 135 OFFCURVE",
"510 145 OFFCURVE",
"470 165 CURVE SMOOTH",
"389 205 OFFCURVE",
"364 263 OFFCURVE",
"356 326 CURVE SMOOTH",
"352 357 OFFCURVE",
"350 409 OFFCURVE",
"350 481 CURVE SMOOTH",
"350 1493 LINE",
"147 1493 LINE",
"147 573 LINE SMOOTH",
"147 410 OFFCURVE",
"156 317 OFFCURVE",
"177 249 CURVE SMOOTH",
"200 176 OFFCURVE",
"230 127 OFFCURVE",
"273 88 CURVE SMOOTH",
"312 53 OFFCURVE",
"364 23 OFFCURVE",
"427 0 CURVE SMOOTH",
"484 -19 OFFCURVE",
"547 -29 OFFCURVE",
"616 -29 CURVE SMOOTH"
);
}
);
width = 1233;
}
);
note = Ugrave;
unicode = 00D9;
},
{
glyphname = Uhorn;
lastChange = "2016-07-20 22:44:41 +0000";
layers = (
{
layerId = "C8600398-8A20-4DEB-92AF-E95853BEE82A";
paths = (
{
closed = 1;
nodes = (
"1091 1520 OFFCURVE",
"1101 1479 OFFCURVE",
"1101 1437 CURVE SMOOTH",
"1101 1365 OFFCURVE",
"1069 1327 OFFCURVE",
"1013 1327 CURVE SMOOTH",
"994 1327 OFFCURVE",
"972 1332 OFFCURVE",
"947 1342 CURVE",
"947 1493 LINE",
"745 1493 LINE",
"745 479 LINE SMOOTH",
"745 408 OFFCURVE",
"743 356 OFFCURVE",
"739 325 CURVE SMOOTH",
"736 297 OFFCURVE",
"729 273 OFFCURVE",
"719 254 CURVE SMOOTH",
"682 178 OFFCURVE",
"591 135 OFFCURVE",
"478 135 CURVE SMOOTH",
"421 135 OFFCURVE",
"372 145 OFFCURVE",
"332 164 CURVE SMOOTH",
"201 225 OFFCURVE",
"212 337 OFFCURVE",
"212 481 CURVE SMOOTH",
"212 1493 LINE",
"9 1493 LINE",
"9 573 LINE SMOOTH",
"9 270 OFFCURVE",
"45 170 OFFCURVE",
"136 87 CURVE SMOOTH",
"217 14 OFFCURVE",
"337 -29 OFFCURVE",
"480 -29 CURVE SMOOTH",
"547 -29 OFFCURVE",
"610 -19 OFFCURVE",
"669 0 CURVE SMOOTH",
"785 39 OFFCURVE",
"879 117 OFFCURVE",
"918 248 CURVE SMOOTH",
"938 319 OFFCURVE",
"947 410 OFFCURVE",
"947 573 CURVE SMOOTH",
"947 1213 LINE",
"978 1196 OFFCURVE",
"1013 1188 OFFCURVE",
"1050 1188 CURVE SMOOTH",
"1166 1188 OFFCURVE",
"1224 1265 OFFCURVE",
"1224 1418 CURVE SMOOTH",
"1224 1467 OFFCURVE",
"1219 1505 OFFCURVE",
"1204 1561 CURVE",
"1071 1561 LINE"
);
}
);
width = 1233;
}
);
note = Uhorn;
unicode = 01AF;
},
{
glyphname = Uhungarumlaut;
lastChange = "2016-07-20 22:44:41 +0000";
layers = (
{
layerId = "C8600398-8A20-4DEB-92AF-E95853BEE82A";
paths = (
{
closed = 1;
nodes = (
"344 1588 LINE",
"498 1588 LINE",
"727 1852 LINE",
"541 1852 LINE"
);
},
{
closed = 1;
nodes = (
"663 1588 LINE",
"817 1588 LINE",
"1046 1852 LINE",
"860 1852 LINE"
);
},
{
closed = 1;
nodes = (
"685 -29 OFFCURVE",
"748 -19 OFFCURVE",
"807 0 CURVE SMOOTH",
"923 39 OFFCURVE",
"1017 117 OFFCURVE",
"1056 248 CURVE SMOOTH",
"1076 319 OFFCURVE",
"1085 410 OFFCURVE",
"1085 573 CURVE SMOOTH",
"1085 1493 LINE",
"883 1493 LINE",
"883 479 LINE SMOOTH",
"883 408 OFFCURVE",
"881 356 OFFCURVE",
"877 325 CURVE SMOOTH",
"874 297 OFFCURVE",
"867 273 OFFCURVE",
"857 254 CURVE SMOOTH",
"820 178 OFFCURVE",
"729 135 OFFCURVE",
"616 135 CURVE SMOOTH",
"559 135 OFFCURVE",
"510 145 OFFCURVE",
"470 164 CURVE SMOOTH",
"339 225 OFFCURVE",
"350 337 OFFCURVE",
"350 481 CURVE SMOOTH",
"350 1493 LINE",
"147 1493 LINE",
"147 573 LINE SMOOTH",
"147 270 OFFCURVE",
"183 170 OFFCURVE",
"274 87 CURVE SMOOTH",
"355 14 OFFCURVE",
"475 -29 OFFCURVE",
"618 -29 CURVE SMOOTH"
);
}
);
width = 1233;
}
);
note = Uhungarumlaut;
unicode = 0170;
},
{
glyphname = Umacron;
lastChange = "2016-07-20 22:44:41 +0000";
layers = (
{
layerId = "C8600398-8A20-4DEB-92AF-E95853BEE82A";
paths = (
{
closed = 1;
nodes = (
"317 1652 LINE",
"915 1652 LINE",
"915 1800 LINE",
"317 1800 LINE"
);
},
{
closed = 1;
nodes = (
"685 -29 OFFCURVE",
"748 -19 OFFCURVE",
"807 0 CURVE SMOOTH",
"923 39 OFFCURVE",
"1017 117 OFFCURVE",
"1056 248 CURVE SMOOTH",
"1076 319 OFFCURVE",
"1085 410 OFFCURVE",
"1085 573 CURVE SMOOTH",
"1085 1493 LINE",
"883 1493 LINE",
"883 479 LINE SMOOTH",
"883 408 OFFCURVE",
"881 356 OFFCURVE",
"877 325 CURVE SMOOTH",
"874 297 OFFCURVE",
"867 273 OFFCURVE",
"857 254 CURVE SMOOTH",
"820 178 OFFCURVE",
"729 135 OFFCURVE",
"616 135 CURVE SMOOTH",
"559 135 OFFCURVE",
"510 145 OFFCURVE",
"470 164 CURVE SMOOTH",
"339 225 OFFCURVE",
"350 337 OFFCURVE",
"350 481 CURVE SMOOTH",
"350 1493 LINE",
"147 1493 LINE",
"147 573 LINE SMOOTH",
"147 270 OFFCURVE",
"183 170 OFFCURVE",
"274 87 CURVE SMOOTH",
"355 14 OFFCURVE",
"475 -29 OFFCURVE",
"618 -29 CURVE SMOOTH"
);
}
);
width = 1233;
}
);
note = Umacron;
unicode = 016A;
},
{
glyphname = Uogonek;
lastChange = "2016-07-20 22:44:41 +0000";
layers = (
{
layerId = "C8600398-8A20-4DEB-92AF-E95853BEE82A";
paths = (
{
closed = 1;
nodes = (
"883 1493 LINE",
"883 479 LINE SMOOTH",
"883 408 OFFCURVE",
"881 356 OFFCURVE",
"877 325 CURVE SMOOTH",
"874 297 OFFCURVE",
"867 273 OFFCURVE",
"857 254 CURVE SMOOTH",
"820 178 OFFCURVE",
"729 135 OFFCURVE",
"616 135 CURVE SMOOTH",
"559 135 OFFCURVE",
"510 145 OFFCURVE",
"470 164 CURVE SMOOTH",
"339 225 OFFCURVE",
"350 337 OFFCURVE",
"350 481 CURVE SMOOTH",
"350 1493 LINE",
"147 1493 LINE",
"147 573 LINE SMOOTH",
"147 422 OFFCURVE",
"157 314 OFFCURVE",
"176 250 CURVE SMOOTH",
"216 115 OFFCURVE",
"325 -4 OFFCURVE",
"548 -25 CURVE",
"475 -108 OFFCURVE",
"448 -170 OFFCURVE",
"448 -237 CURVE SMOOTH",
"448 -353 OFFCURVE",
"525 -411 OFFCURVE",
"678 -411 CURVE SMOOTH",
"727 -411 OFFCURVE",
"765 -406 OFFCURVE",
"821 -391 CURVE",
"821 -258 LINE",
"780 -278 OFFCURVE",
"739 -288 OFFCURVE",
"697 -288 CURVE SMOOTH",
"625 -288 OFFCURVE",
"587 -256 OFFCURVE",
"587 -200 CURVE SMOOTH",
"587 -156 OFFCURVE",
"610 -107 OFFCURVE",
"667 -27 CURVE",
"717 -24 OFFCURVE",
"764 -15 OFFCURVE",
"807 0 CURVE SMOOTH",
"923 39 OFFCURVE",
"1017 117 OFFCURVE",
"1056 248 CURVE SMOOTH",
"1076 319 OFFCURVE",
"1085 410 OFFCURVE",
"1085 573 CURVE SMOOTH",
"1085 1493 LINE"
);
}
);
width = 1233;
}
);
note = Uogonek;
unicode = 0172;
},
{
glyphname = Uring;
lastChange = "2016-07-20 22:44:41 +0000";
layers = (
{
layerId = "C8600398-8A20-4DEB-92AF-E95853BEE82A";
paths = (
{
closed = 1;
nodes = (
"678 1352 OFFCURVE",
"724 1364 OFFCURVE",
"766 1389 CURVE SMOOTH",
"850 1437 OFFCURVE",
"901 1526 OFFCURVE",
"901 1627 CURVE SMOOTH",
"901 1677 OFFCURVE",
"889 1723 OFFCURVE",
"865 1765 CURVE SMOOTH",
"817 1849 OFFCURVE",
"728 1901 OFFCURVE",
"627 1901 CURVE SMOOTH",
"576 1901 OFFCURVE",
"530 1889 OFFCURVE",
"488 1865 CURVE SMOOTH",
"404 1816 OFFCURVE",
"352 1727 OFFCURVE",
"352 1627 CURVE SMOOTH",
"352 1577 OFFCURVE",
"364 1531 OFFCURVE",
"389 1489 CURVE SMOOTH",
"437 1404 OFFCURVE",
"526 1352 OFFCURVE",
"627 1352 CURVE SMOOTH"
);
},
{
closed = 1;
nodes = (
"598 1475 OFFCURVE",
"573 1482 OFFCURVE",
"550 1495 CURVE SMOOTH",
"504 1522 OFFCURVE",
"475 1571 OFFCURVE",
"475 1627 CURVE SMOOTH",
"475 1655 OFFCURVE",
"482 1681 OFFCURVE",
"495 1704 CURVE SMOOTH",
"522 1750 OFFCURVE",
"570 1778 OFFCURVE",
"626 1778 CURVE SMOOTH",
"653 1778 OFFCURVE",
"679 1771 OFFCURVE",
"702 1758 CURVE SMOOTH",
"749 1731 OFFCURVE",
"778 1682 OFFCURVE",
"778 1627 CURVE SMOOTH",
"778 1600 OFFCURVE",
"771 1574 OFFCURVE",
"758 1551 CURVE SMOOTH",
"730 1504 OFFCURVE",
"681 1475 OFFCURVE",
"626 1475 CURVE SMOOTH"
);
},
{
closed = 1;
nodes = (
"685 -29 OFFCURVE",
"748 -19 OFFCURVE",
"807 0 CURVE SMOOTH",
"923 39 OFFCURVE",
"1017 117 OFFCURVE",
"1056 248 CURVE SMOOTH",
"1076 319 OFFCURVE",
"1085 410 OFFCURVE",
"1085 573 CURVE SMOOTH",
"1085 1493 LINE",
"883 1493 LINE",
"883 479 LINE SMOOTH",
"883 408 OFFCURVE",
"881 356 OFFCURVE",
"877 325 CURVE SMOOTH",
"874 297 OFFCURVE",
"867 273 OFFCURVE",
"857 254 CURVE SMOOTH",
"820 178 OFFCURVE",
"729 135 OFFCURVE",
"616 135 CURVE SMOOTH",
"559 135 OFFCURVE",
"510 145 OFFCURVE",
"470 164 CURVE SMOOTH",
"339 225 OFFCURVE",
"350 337 OFFCURVE",
"350 481 CURVE SMOOTH",
"350 1493 LINE",
"147 1493 LINE",
"147 573 LINE SMOOTH",
"147 270 OFFCURVE",
"183 170 OFFCURVE",
"274 87 CURVE SMOOTH",
"355 14 OFFCURVE",
"475 -29 OFFCURVE",
"618 -29 CURVE SMOOTH"
);
}
);
width = 1233;
}
);
note = Uring;
unicode = 016E;
},
{
glyphname = Utilde;
lastChange = "2016-07-20 22:44:41 +0000";
layers = (
{
layerId = "C8600398-8A20-4DEB-92AF-E95853BEE82A";
paths = (
{
closed = 1;
nodes = (
"412 1639 LINE SMOOTH",
"412 1699 OFFCURVE",
"441 1734 OFFCURVE",
"486 1734 CURVE SMOOTH",
"505 1734 OFFCURVE",
"522 1728 OFFCURVE",
"555 1709 CURVE SMOOTH",
"612 1676 LINE SMOOTH",
"672 1644 OFFCURVE",
"710 1633 OFFCURVE",
"753 1633 CURVE SMOOTH",
"874 1633 OFFCURVE",
"941 1717 OFFCURVE",
"946 1852 CURVE",
"821 1852 LINE",
"821 1846 LINE SMOOTH",
"821 1791 OFFCURVE",
"791 1754 OFFCURVE",
"750 1754 CURVE SMOOTH",
"731 1754 OFFCURVE",
"707 1762 OFFCURVE",
"678 1779 CURVE",
"621 1809 LINE SMOOTH",
"562 1840 OFFCURVE",
"531 1852 OFFCURVE",
"482 1852 CURVE SMOOTH",
"358 1852 OFFCURVE",
"287 1770 OFFCURVE",
"287 1633 CURVE",
"412 1633 LINE"
);
},
{
closed = 1;
nodes = (
"685 -29 OFFCURVE",
"748 -19 OFFCURVE",
"807 0 CURVE SMOOTH",
"923 39 OFFCURVE",
"1017 117 OFFCURVE",
"1056 248 CURVE SMOOTH",
"1076 319 OFFCURVE",
"1085 410 OFFCURVE",
"1085 573 CURVE SMOOTH",
"1085 1493 LINE",
"883 1493 LINE",
"883 479 LINE SMOOTH",
"883 408 OFFCURVE",
"881 356 OFFCURVE",
"877 325 CURVE SMOOTH",
"874 297 OFFCURVE",
"867 273 OFFCURVE",
"857 254 CURVE SMOOTH",
"820 178 OFFCURVE",
"729 135 OFFCURVE",
"616 135 CURVE SMOOTH",
"559 135 OFFCURVE",
"510 145 OFFCURVE",
"470 164 CURVE SMOOTH",
"339 225 OFFCURVE",
"350 337 OFFCURVE",
"350 481 CURVE SMOOTH",
"350 1493 LINE",
"147 1493 LINE",
"147 573 LINE SMOOTH",
"147 270 OFFCURVE",
"183 170 OFFCURVE",
"274 87 CURVE SMOOTH",
"355 14 OFFCURVE",
"475 -29 OFFCURVE",
"618 -29 CURVE SMOOTH"
);
}
);
width = 1233;
}
);
note = Utilde;
unicode = 0168;
},
{
glyphname = V;
lastChange = "2016-07-20 22:44:41 +0000";
layers = (
{
layerId = "C8600398-8A20-4DEB-92AF-E95853BEE82A";
paths = (
{
closed = 1;
nodes = (
"494 0 LINE",
"739 0 LINE",
"1176 1493 LINE",
"967 1493 LINE",
"616 170 LINE",
"266 1493 LINE",
"57 1493 LINE"
);
}
);
width = 1233;
}
);
note = V;
unicode = 0056;
},
{
glyphname = W;
lastChange = "2016-07-20 22:44:41 +0000";
layers = (
{
layerId = "C8600398-8A20-4DEB-92AF-E95853BEE82A";
paths = (
{
closed = 1;
nodes = (
"223 0 LINE",
"414 0 LINE",
"616 887 LINE",
"819 0 LINE",
"1010 0 LINE",
"1233 1493 LINE",
"1036 1493 LINE",
"893 279 LINE",
"721 1083 LINE",
"510 1083 LINE",
"340 281 LINE",
"197 1493 LINE",
"0 1493 LINE"
);
}
);
width = 1233;
}
);
note = W;
unicode = 0057;
},
{
glyphname = Wacute;
lastChange = "2016-07-20 22:44:41 +0000";
layers = (
{
layerId = "C8600398-8A20-4DEB-92AF-E95853BEE82A";
paths = (
{
closed = 1;
nodes = (
"475 1592 LINE",
"629 1592 LINE",
"858 1856 LINE",
"672 1856 LINE"
);
},
{
closed = 1;
nodes = (
"223 0 LINE",
"414 0 LINE",
"616 887 LINE",
"819 0 LINE",
"1010 0 LINE",
"1233 1493 LINE",
"1036 1493 LINE",
"893 279 LINE",
"721 1083 LINE",
"510 1083 LINE",
"340 281 LINE",
"197 1493 LINE",
"0 1493 LINE"
);
}
);
width = 1233;
}
);
note = Wacute;
unicode = 1E82;
},
{
glyphname = Wcircumflex;
lastChange = "2016-07-20 22:44:41 +0000";
layers = (
{
layerId = "C8600398-8A20-4DEB-92AF-E95853BEE82A";
paths = (
{
closed = 1;
nodes = (
"311 1586 LINE",
"451 1586 LINE",
"616 1764 LINE",
"782 1586 LINE",
"922 1586 LINE",
"711 1852 LINE",
"522 1852 LINE"
);
},
{
closed = 1;
nodes = (
"223 0 LINE",
"414 0 LINE",
"616 887 LINE",
"819 0 LINE",
"1010 0 LINE",
"1233 1493 LINE",
"1036 1493 LINE",
"893 279 LINE",
"721 1083 LINE",
"510 1083 LINE",
"340 281 LINE",
"197 1493 LINE",
"0 1493 LINE"
);
}
);
width = 1233;
}
);
note = Wcircumflex;
unicode = 0174;
},
{
glyphname = Wdieresis;
lastChange = "2016-07-20 22:44:41 +0000";
layers = (
{
layerId = "C8600398-8A20-4DEB-92AF-E95853BEE82A";
paths = (
{
closed = 1;
nodes = (
"508 1650 OFFCURVE",
"522 1664 OFFCURVE",
"522 1681 CURVE SMOOTH",
"522 1821 LINE SMOOTH",
"522 1838 OFFCURVE",
"508 1852 OFFCURVE",
"491 1852 CURVE SMOOTH",
"350 1852 LINE SMOOTH",
"333 1852 OFFCURVE",
"319 1838 OFFCURVE",
"319 1821 CURVE SMOOTH",
"319 1681 LINE SMOOTH",
"319 1664 OFFCURVE",
"333 1650 OFFCURVE",
"350 1650 CURVE SMOOTH",
"491 1650 LINE SMOOTH"
);
},
{
closed = 1;
nodes = (
"899 1650 OFFCURVE",
"913 1664 OFFCURVE",
"913 1681 CURVE SMOOTH",
"913 1821 LINE SMOOTH",
"913 1838 OFFCURVE",
"899 1852 OFFCURVE",
"882 1852 CURVE SMOOTH",
"742 1852 LINE SMOOTH",
"725 1852 OFFCURVE",
"711 1838 OFFCURVE",
"711 1821 CURVE SMOOTH",
"711 1681 LINE SMOOTH",
"711 1664 OFFCURVE",
"725 1650 OFFCURVE",
"742 1650 CURVE SMOOTH",
"882 1650 LINE SMOOTH"
);
},
{
closed = 1;
nodes = (
"223 0 LINE",
"414 0 LINE",
"616 887 LINE",
"819 0 LINE",
"1010 0 LINE",
"1233 1493 LINE",
"1036 1493 LINE",
"893 279 LINE",
"721 1083 LINE",
"510 1083 LINE",
"340 281 LINE",
"197 1493 LINE",
"0 1493 LINE"
);
}
);
width = 1233;
}
);
note = Wdieresis;
unicode = 1E84;
},
{
glyphname = Wgrave;
lastChange = "2016-07-20 22:44:41 +0000";
layers = (
{
layerId = "C8600398-8A20-4DEB-92AF-E95853BEE82A";
paths = (
{
closed = 1;
nodes = (
"604 1588 LINE",
"758 1588 LINE",
"561 1852 LINE",
"377 1852 LINE"
);
},
{
closed = 1;
nodes = (
"223 0 LINE",
"414 0 LINE",
"616 887 LINE",
"819 0 LINE",
"1010 0 LINE",
"1233 1493 LINE",
"1036 1493 LINE",
"893 279 LINE",
"721 1083 LINE",
"510 1083 LINE",
"340 281 LINE",
"197 1493 LINE",
"0 1493 LINE"
);
}
);
width = 1233;
}
);
note = Wgrave;
unicode = 1E80;
},
{
glyphname = X;
lastChange = "2016-07-20 22:44:41 +0000";
layers = (
{
layerId = "C8600398-8A20-4DEB-92AF-E95853BEE82A";
paths = (
{
closed = 1;
nodes = (
"18 0 LINE",
"236 0 LINE",
"631 643 LINE",
"997 0 LINE",
"1214 0 LINE",
"735 791 LINE",
"1182 1493 LINE",
"965 1493 LINE",
"631 930 LINE",
"303 1493 LINE",
"86 1493 LINE",
"518 791 LINE"
);
}
);
width = 1233;
}
);
note = X;
unicode = 0058;
},
{
glyphname = Y;
lastChange = "2016-07-20 22:44:41 +0000";
layers = (
{
layerId = "C8600398-8A20-4DEB-92AF-E95853BEE82A";
paths = (
{
closed = 1;
nodes = (
"514 0 LINE",
"717 0 LINE",
"717 670 LINE",
"1196 1493 LINE",
"979 1493 LINE",
"616 834 LINE",
"252 1493 LINE",
"37 1493 LINE",
"514 670 LINE"
);
}
);
width = 1233;
}
);
note = Y;
unicode = 0059;
},
{
glyphname = Yacute;
lastChange = "2016-07-20 22:44:41 +0000";
layers = (
{
layerId = "C8600398-8A20-4DEB-92AF-E95853BEE82A";
paths = (
{
closed = 1;
nodes = (
"475 1588 LINE",
"629 1588 LINE",
"858 1852 LINE",
"672 1852 LINE"
);
},
{
closed = 1;
nodes = (
"514 0 LINE",
"717 0 LINE",
"717 670 LINE",
"1196 1493 LINE",
"979 1493 LINE",
"616 834 LINE",
"252 1493 LINE",
"37 1493 LINE",
"514 670 LINE"
);
}
);
width = 1233;
}
);
note = Yacute;
unicode = 00DD;
},
{
glyphname = Ycircumflex;
lastChange = "2016-07-20 22:44:41 +0000";
layers = (
{
layerId = "C8600398-8A20-4DEB-92AF-E95853BEE82A";
paths = (
{
closed = 1;
nodes = (
"311 1586 LINE",
"451 1586 LINE",
"616 1764 LINE",
"782 1586 LINE",
"922 1586 LINE",
"711 1852 LINE",
"522 1852 LINE"
);
},
{
closed = 1;
nodes = (
"514 0 LINE",
"717 0 LINE",
"717 670 LINE",
"1196 1493 LINE",
"979 1493 LINE",
"616 834 LINE",
"252 1493 LINE",
"37 1493 LINE",
"514 670 LINE"
);
}
);
width = 1233;
}
);
note = Ycircumflex;
unicode = 0176;
},
{
glyphname = Ydieresis;
lastChange = "2016-07-20 22:44:41 +0000";
layers = (
{
layerId = "C8600398-8A20-4DEB-92AF-E95853BEE82A";
paths = (
{
closed = 1;
nodes = (
"512 1649 OFFCURVE",
"522 1659 OFFCURVE",
"522 1679 CURVE SMOOTH",
"522 1822 LINE SMOOTH",
"522 1842 OFFCURVE",
"512 1852 OFFCURVE",
"492 1852 CURVE SMOOTH",
"349 1852 LINE SMOOTH",
"329 1852 OFFCURVE",
"319 1842 OFFCURVE",
"319 1822 CURVE SMOOTH",
"319 1679 LINE SMOOTH",
"319 1659 OFFCURVE",
"329 1649 OFFCURVE",
"349 1649 CURVE SMOOTH",
"492 1649 LINE SMOOTH"
);
},
{
closed = 1;
nodes = (
"903 1649 OFFCURVE",
"913 1659 OFFCURVE",
"913 1679 CURVE SMOOTH",
"913 1822 LINE SMOOTH",
"913 1842 OFFCURVE",
"903 1852 OFFCURVE",
"883 1852 CURVE SMOOTH",
"741 1852 LINE SMOOTH",
"721 1852 OFFCURVE",
"711 1842 OFFCURVE",
"711 1822 CURVE SMOOTH",
"711 1679 LINE SMOOTH",
"711 1659 OFFCURVE",
"721 1649 OFFCURVE",
"741 1649 CURVE SMOOTH",
"883 1649 LINE SMOOTH"
);
},
{
closed = 1;
nodes = (
"514 0 LINE",
"717 0 LINE",
"717 670 LINE",
"1196 1493 LINE",
"979 1493 LINE",
"616 834 LINE",
"252 1493 LINE",
"37 1493 LINE",
"514 670 LINE"
);
}
);
width = 1233;
}
);
note = Ydieresis;
unicode = 0178;
},
{
glyphname = Ygrave;
lastChange = "2016-07-20 22:44:41 +0000";
layers = (
{
layerId = "C8600398-8A20-4DEB-92AF-E95853BEE82A";
paths = (
{
closed = 1;
nodes = (
"604 1588 LINE",
"758 1588 LINE",
"561 1852 LINE",
"377 1852 LINE"
);
},
{
closed = 1;
nodes = (
"514 0 LINE",
"717 0 LINE",
"717 670 LINE",
"1196 1493 LINE",
"979 1493 LINE",
"616 834 LINE",
"252 1493 LINE",
"37 1493 LINE",
"514 670 LINE"
);
}
);
width = 1233;
}
);
note = Ygrave;
unicode = 1EF2;
},
{
glyphname = Z;
lastChange = "2016-07-20 22:44:41 +0000";
layers = (
{
layerId = "C8600398-8A20-4DEB-92AF-E95853BEE82A";
paths = (
{
closed = 1;
nodes = (
"110 0 LINE",
"1123 0 LINE",
"1123 170 LINE",
"321 170 LINE",
"1101 1339 LINE",
"1101 1493 LINE",
"132 1493 LINE",
"132 1323 LINE",
"869 1323 LINE",
"110 154 LINE"
);
}
);
width = 1233;
}
);
note = Z;
unicode = 005A;
},
{
glyphname = Zacute;
lastChange = "2016-07-20 22:44:41 +0000";
layers = (
{
layerId = "C8600398-8A20-4DEB-92AF-E95853BEE82A";
paths = (
{
closed = 1;
nodes = (
"456 1588 LINE",
"610 1588 LINE",
"839 1852 LINE",
"653 1852 LINE"
);
},
{
closed = 1;
nodes = (
"110 0 LINE",
"1123 0 LINE",
"1123 170 LINE",
"321 170 LINE",
"1101 1339 LINE",
"1101 1493 LINE",
"132 1493 LINE",
"132 1323 LINE",
"869 1323 LINE",
"110 154 LINE"
);
}
);
width = 1233;
}
);
note = Zacute;
unicode = 0179;
},
{
glyphname = Zcaron;
lastChange = "2016-07-20 22:44:41 +0000";
layers = (
{
layerId = "C8600398-8A20-4DEB-92AF-E95853BEE82A";
paths = (
{
closed = 1;
nodes = (
"476 1586 LINE",
"665 1586 LINE",
"876 1852 LINE",
"736 1852 LINE",
"570 1674 LINE",
"405 1852 LINE",
"265 1852 LINE"
);
},
{
closed = 1;
nodes = (
"110 0 LINE",
"1123 0 LINE",
"1123 170 LINE",
"321 170 LINE",
"1101 1339 LINE",
"1101 1493 LINE",
"132 1493 LINE",
"132 1323 LINE",
"869 1323 LINE",
"110 154 LINE"
);
}
);
width = 1233;
}
);
note = Zcaron;
unicode = 017D;
},
{
glyphname = Zdotaccent;
lastChange = "2016-07-20 22:44:41 +0000";
layers = (
{
layerId = "C8600398-8A20-4DEB-92AF-E95853BEE82A";
paths = (
{
closed = 1;
nodes = (
"712 1647 OFFCURVE",
"722 1657 OFFCURVE",
"722 1677 CURVE SMOOTH",
"722 1822 LINE SMOOTH",
"722 1842 OFFCURVE",
"712 1852 OFFCURVE",
"692 1852 CURVE SMOOTH",
"547 1852 LINE SMOOTH",
"527 1852 OFFCURVE",
"517 1842 OFFCURVE",
"517 1822 CURVE SMOOTH",
"517 1677 LINE SMOOTH",
"517 1657 OFFCURVE",
"527 1647 OFFCURVE",
"547 1647 CURVE SMOOTH",
"692 1647 LINE SMOOTH"
);
},
{
closed = 1;
nodes = (
"110 0 LINE",
"1123 0 LINE",
"1123 170 LINE",
"321 170 LINE",
"1101 1339 LINE",
"1101 1493 LINE",
"132 1493 LINE",
"132 1323 LINE",
"869 1323 LINE",
"110 154 LINE"
);
}
);
width = 1233;
}
);
note = Zdotaccent;
unicode = 017B;
},
{
glyphname = a;
lastChange = "2016-07-20 22:44:41 +0000";
layers = (
{
layerId = "C8600398-8A20-4DEB-92AF-E95853BEE82A";
paths = (
{
closed = 1;
nodes = (
"595 -29 OFFCURVE",
"667 -13 OFFCURVE",
"729 19 CURVE SMOOTH",
"793 52 OFFCURVE",
"856 107 OFFCURVE",
"893 170 CURVE",
"901 115 OFFCURVE",
"919 40 OFFCURVE",
"936 0 CURVE",
"1121 0 LINE",
"1116 15 OFFCURVE",
"1102 55 OFFCURVE",
"1094 91 CURVE",
"1079 144 OFFCURVE",
"1067 235 OFFCURVE",
"1064 346 CURVE SMOOTH",
"1062 410 LINE",
"1062 639 LINE SMOOTH",
"1062 839 OFFCURVE",
"1044 912 OFFCURVE",
"992 984 CURVE SMOOTH",
"917 1085 OFFCURVE",
"780 1147 OFFCURVE",
"597 1147 CURVE SMOOTH",
"472 1147 OFFCURVE",
"357 1121 OFFCURVE",
"218 1069 CURVE",
"218 885 LINE",
"337 954 OFFCURVE",
"469 991 OFFCURVE",
"596 991 CURVE SMOOTH",
"694 991 OFFCURVE",
"765 971 OFFCURVE",
"809 931 CURVE SMOOTH",
"853 891 OFFCURVE",
"877 821 OFFCURVE",
"877 736 CURVE SMOOTH",
"877 707 LINE",
"630 707 LINE SMOOTH",
"305 707 OFFCURVE",
"136 575 OFFCURVE",
"136 327 CURVE SMOOTH",
"136 214 OFFCURVE",
"171 132 OFFCURVE",
"238 68 CURVE SMOOTH",
"305 3 OFFCURVE",
"396 -29 OFFCURVE",
"513 -29 CURVE SMOOTH"
);
},
{
closed = 1;
nodes = (
"407 125 OFFCURVE",
"320 204 OFFCURVE",
"320 337 CURVE SMOOTH",
"320 413 OFFCURVE",
"346 468 OFFCURVE",
"402 507 CURVE SMOOTH",
"457 544 OFFCURVE",
"538 563 OFFCURVE",
"644 563 CURVE SMOOTH",
"877 563 LINE",
"877 522 LINE SMOOTH",
"877 277 OFFCURVE",
"752 125 OFFCURVE",
"551 125 CURVE SMOOTH"
);
}
);
width = 1233;
}
);
note = a;
unicode = 0061;
},
{
glyphname = aacute;
lastChange = "2016-07-20 22:44:41 +0000";
layers = (
{
layerId = "C8600398-8A20-4DEB-92AF-E95853BEE82A";
paths = (
{
closed = 1;
nodes = (
"478 1297 LINE",
"632 1297 LINE",
"957 1673 LINE",
"759 1673 LINE"
);
},
{
closed = 1;
nodes = (
"595 -29 OFFCURVE",
"667 -13 OFFCURVE",
"729 19 CURVE SMOOTH",
"793 52 OFFCURVE",
"856 107 OFFCURVE",
"893 170 CURVE",
"901 115 OFFCURVE",
"919 40 OFFCURVE",
"936 0 CURVE",
"1121 0 LINE",
"1116 15 OFFCURVE",
"1102 55 OFFCURVE",
"1094 91 CURVE",
"1079 144 OFFCURVE",
"1067 235 OFFCURVE",
"1064 346 CURVE SMOOTH",
"1062 410 LINE",
"1062 639 LINE SMOOTH",
"1062 839 OFFCURVE",
"1044 912 OFFCURVE",
"992 984 CURVE SMOOTH",
"917 1085 OFFCURVE",
"780 1147 OFFCURVE",
"597 1147 CURVE SMOOTH",
"472 1147 OFFCURVE",
"357 1121 OFFCURVE",
"218 1069 CURVE",
"218 885 LINE",
"337 954 OFFCURVE",
"469 991 OFFCURVE",
"596 991 CURVE SMOOTH",
"694 991 OFFCURVE",
"765 971 OFFCURVE",
"809 931 CURVE SMOOTH",
"853 891 OFFCURVE",
"877 821 OFFCURVE",
"877 736 CURVE SMOOTH",
"877 707 LINE",
"630 707 LINE SMOOTH",
"305 707 OFFCURVE",
"136 575 OFFCURVE",
"136 327 CURVE SMOOTH",
"136 214 OFFCURVE",
"171 132 OFFCURVE",
"238 68 CURVE SMOOTH",
"305 3 OFFCURVE",
"396 -29 OFFCURVE",
"513 -29 CURVE SMOOTH"
);
},
{
closed = 1;
nodes = (
"407 125 OFFCURVE",
"320 204 OFFCURVE",
"320 337 CURVE SMOOTH",
"320 413 OFFCURVE",
"346 468 OFFCURVE",
"402 507 CURVE SMOOTH",
"457 544 OFFCURVE",
"538 563 OFFCURVE",
"644 563 CURVE SMOOTH",
"877 563 LINE",
"877 522 LINE SMOOTH",
"877 277 OFFCURVE",
"752 125 OFFCURVE",
"551 125 CURVE SMOOTH"
);
}
);
width = 1233;
}
);
note = aacute;
unicode = 00E1;
},
{
glyphname = abreve;
lastChange = "2016-07-20 22:44:41 +0000";
layers = (
{
layerId = "C8600398-8A20-4DEB-92AF-E95853BEE82A";
paths = (
{
closed = 1;
nodes = (
"813 1296 OFFCURVE",
"918 1392 OFFCURVE",
"933 1583 CURVE",
"814 1583 LINE",
"795 1482 OFFCURVE",
"733 1433 OFFCURVE",
"618 1433 CURVE SMOOTH",
"501 1433 OFFCURVE",
"441 1484 OFFCURVE",
"425 1583 CURVE",
"306 1583 LINE",
"321 1392 OFFCURVE",
"426 1296 OFFCURVE",
"619 1296 CURVE SMOOTH"
);
},
{
closed = 1;
nodes = (
"595 -29 OFFCURVE",
"667 -13 OFFCURVE",
"729 19 CURVE SMOOTH",
"793 52 OFFCURVE",
"856 107 OFFCURVE",
"893 170 CURVE",
"901 115 OFFCURVE",
"919 40 OFFCURVE",
"936 0 CURVE",
"1121 0 LINE",
"1116 15 OFFCURVE",
"1102 55 OFFCURVE",
"1094 91 CURVE",
"1079 144 OFFCURVE",
"1067 235 OFFCURVE",
"1064 346 CURVE SMOOTH",
"1062 410 LINE",
"1062 639 LINE SMOOTH",
"1062 839 OFFCURVE",
"1044 912 OFFCURVE",
"992 984 CURVE SMOOTH",
"917 1085 OFFCURVE",
"780 1147 OFFCURVE",
"597 1147 CURVE SMOOTH",
"472 1147 OFFCURVE",
"357 1121 OFFCURVE",
"218 1069 CURVE",
"218 885 LINE",
"337 954 OFFCURVE",
"469 991 OFFCURVE",
"596 991 CURVE SMOOTH",
"694 991 OFFCURVE",
"765 971 OFFCURVE",
"809 931 CURVE SMOOTH",
"853 891 OFFCURVE",
"877 821 OFFCURVE",
"877 736 CURVE SMOOTH",
"877 707 LINE",
"630 707 LINE SMOOTH",
"305 707 OFFCURVE",
"136 575 OFFCURVE",
"136 327 CURVE SMOOTH",
"136 214 OFFCURVE",
"171 132 OFFCURVE",
"238 68 CURVE SMOOTH",
"305 3 OFFCURVE",
"396 -29 OFFCURVE",
"513 -29 CURVE SMOOTH"
);
},
{
closed = 1;
nodes = (
"407 125 OFFCURVE",
"320 204 OFFCURVE",
"320 337 CURVE SMOOTH",
"320 413 OFFCURVE",
"346 468 OFFCURVE",
"402 507 CURVE SMOOTH",
"457 544 OFFCURVE",
"538 563 OFFCURVE",
"644 563 CURVE SMOOTH",
"877 563 LINE",
"877 522 LINE SMOOTH",
"877 277 OFFCURVE",
"752 125 OFFCURVE",
"551 125 CURVE SMOOTH"
);
}
);
width = 1233;
}
);
note = abreve;
unicode = 0103;
},
{
glyphname = acircumflex;
lastChange = "2016-07-20 22:44:41 +0000";
layers = (
{
layerId = "C8600398-8A20-4DEB-92AF-E95853BEE82A";
paths = (
{
closed = 1;
nodes = (
"300 1297 LINE",
"439 1297 LINE",
"619 1542 LINE",
"800 1297 LINE",
"939 1297 LINE",
"693 1673 LINE",
"546 1673 LINE"
);
},
{
closed = 1;
nodes = (
"595 -29 OFFCURVE",
"667 -13 OFFCURVE",
"729 19 CURVE SMOOTH",
"793 52 OFFCURVE",
"856 107 OFFCURVE",
"893 170 CURVE",
"901 115 OFFCURVE",
"919 40 OFFCURVE",
"936 0 CURVE",
"1121 0 LINE",
"1116 15 OFFCURVE",
"1102 55 OFFCURVE",
"1094 91 CURVE",
"1079 144 OFFCURVE",
"1067 235 OFFCURVE",
"1064 346 CURVE SMOOTH",
"1062 410 LINE",
"1062 639 LINE SMOOTH",
"1062 839 OFFCURVE",
"1044 912 OFFCURVE",
"992 984 CURVE SMOOTH",
"917 1085 OFFCURVE",
"780 1147 OFFCURVE",
"597 1147 CURVE SMOOTH",
"472 1147 OFFCURVE",
"357 1121 OFFCURVE",
"218 1069 CURVE",
"218 885 LINE",
"337 954 OFFCURVE",
"469 991 OFFCURVE",
"596 991 CURVE SMOOTH",
"694 991 OFFCURVE",
"765 971 OFFCURVE",
"809 931 CURVE SMOOTH",
"853 891 OFFCURVE",
"877 821 OFFCURVE",
"877 736 CURVE SMOOTH",
"877 707 LINE",
"630 707 LINE SMOOTH",
"305 707 OFFCURVE",
"136 575 OFFCURVE",
"136 327 CURVE SMOOTH",
"136 214 OFFCURVE",
"171 132 OFFCURVE",
"238 68 CURVE SMOOTH",
"305 3 OFFCURVE",
"396 -29 OFFCURVE",
"513 -29 CURVE SMOOTH"
);
},
{
closed = 1;
nodes = (
"407 125 OFFCURVE",
"320 204 OFFCURVE",
"320 337 CURVE SMOOTH",
"320 413 OFFCURVE",
"346 468 OFFCURVE",
"402 507 CURVE SMOOTH",
"457 544 OFFCURVE",
"538 563 OFFCURVE",
"644 563 CURVE SMOOTH",
"877 563 LINE",
"877 522 LINE SMOOTH",
"877 277 OFFCURVE",
"752 125 OFFCURVE",
"551 125 CURVE SMOOTH"
);
}
);
width = 1233;
}
);
note = acircumflex;
unicode = 00E2;
},
{
glyphname = adieresis;
lastChange = "2016-07-20 22:44:41 +0000";
layers = (
{
layerId = "C8600398-8A20-4DEB-92AF-E95853BEE82A";
paths = (
{
closed = 1;
nodes = (
"515 1350 OFFCURVE",
"525 1360 OFFCURVE",
"525 1380 CURVE SMOOTH",
"525 1522 LINE SMOOTH",
"525 1542 OFFCURVE",
"515 1552 OFFCURVE",
"495 1552 CURVE SMOOTH",
"352 1552 LINE SMOOTH",
"332 1552 OFFCURVE",
"322 1542 OFFCURVE",
"322 1522 CURVE SMOOTH",
"322 1380 LINE SMOOTH",
"322 1360 OFFCURVE",
"332 1350 OFFCURVE",
"352 1350 CURVE SMOOTH",
"495 1350 LINE SMOOTH"
);
},
{
closed = 1;
nodes = (
"906 1350 OFFCURVE",
"916 1360 OFFCURVE",
"916 1380 CURVE SMOOTH",
"916 1522 LINE SMOOTH",
"916 1542 OFFCURVE",
"906 1552 OFFCURVE",
"886 1552 CURVE SMOOTH",
"744 1552 LINE SMOOTH",
"724 1552 OFFCURVE",
"714 1542 OFFCURVE",
"714 1522 CURVE SMOOTH",
"714 1380 LINE SMOOTH",
"714 1360 OFFCURVE",
"724 1350 OFFCURVE",
"744 1350 CURVE SMOOTH",
"886 1350 LINE SMOOTH"
);
},
{
closed = 1;
nodes = (
"595 -29 OFFCURVE",
"667 -13 OFFCURVE",
"729 19 CURVE SMOOTH",
"793 52 OFFCURVE",
"856 107 OFFCURVE",
"893 170 CURVE",
"901 115 OFFCURVE",
"919 40 OFFCURVE",
"936 0 CURVE",
"1121 0 LINE",
"1116 15 OFFCURVE",
"1102 55 OFFCURVE",
"1094 91 CURVE",
"1079 144 OFFCURVE",
"1067 235 OFFCURVE",
"1064 346 CURVE SMOOTH",
"1062 410 LINE",
"1062 639 LINE SMOOTH",
"1062 839 OFFCURVE",
"1044 912 OFFCURVE",
"992 984 CURVE SMOOTH",
"917 1085 OFFCURVE",
"780 1147 OFFCURVE",
"597 1147 CURVE SMOOTH",
"472 1147 OFFCURVE",
"357 1121 OFFCURVE",
"218 1069 CURVE",
"218 885 LINE",
"337 954 OFFCURVE",
"469 991 OFFCURVE",
"596 991 CURVE SMOOTH",
"694 991 OFFCURVE",
"765 971 OFFCURVE",
"809 931 CURVE SMOOTH",
"853 891 OFFCURVE",
"877 821 OFFCURVE",
"877 736 CURVE SMOOTH",
"877 707 LINE",
"630 707 LINE SMOOTH",
"305 707 OFFCURVE",
"136 575 OFFCURVE",
"136 327 CURVE SMOOTH",
"136 214 OFFCURVE",
"171 132 OFFCURVE",
"238 68 CURVE SMOOTH",
"305 3 OFFCURVE",
"396 -29 OFFCURVE",
"513 -29 CURVE SMOOTH"
);
},
{
closed = 1;
nodes = (
"407 125 OFFCURVE",
"320 204 OFFCURVE",
"320 337 CURVE SMOOTH",
"320 413 OFFCURVE",
"346 468 OFFCURVE",
"402 507 CURVE SMOOTH",
"457 544 OFFCURVE",
"538 563 OFFCURVE",
"644 563 CURVE SMOOTH",
"877 563 LINE",
"877 522 LINE SMOOTH",
"877 277 OFFCURVE",
"752 125 OFFCURVE",
"551 125 CURVE SMOOTH"
);
}
);
width = 1233;
}
);
note = adieresis;
unicode = 00E4;
},
{
glyphname = agrave;
lastChange = "2016-07-20 22:44:41 +0000";
layers = (
{
layerId = "C8600398-8A20-4DEB-92AF-E95853BEE82A";
paths = (
{
closed = 1;
nodes = (
"607 1297 LINE",
"761 1297 LINE",
"480 1673 LINE",
"282 1673 LINE"
);
},
{
closed = 1;
nodes = (
"595 -29 OFFCURVE",
"667 -13 OFFCURVE",
"729 19 CURVE SMOOTH",
"793 52 OFFCURVE",
"856 107 OFFCURVE",
"893 170 CURVE",
"901 115 OFFCURVE",
"919 40 OFFCURVE",
"936 0 CURVE",
"1121 0 LINE",
"1116 15 OFFCURVE",
"1102 55 OFFCURVE",
"1094 91 CURVE",
"1079 144 OFFCURVE",
"1067 235 OFFCURVE",
"1064 346 CURVE SMOOTH",
"1062 410 LINE",
"1062 639 LINE SMOOTH",
"1062 839 OFFCURVE",
"1044 912 OFFCURVE",
"992 984 CURVE SMOOTH",
"917 1085 OFFCURVE",
"780 1147 OFFCURVE",
"597 1147 CURVE SMOOTH",
"472 1147 OFFCURVE",
"357 1121 OFFCURVE",
"218 1069 CURVE",
"218 885 LINE",
"337 954 OFFCURVE",
"469 991 OFFCURVE",
"596 991 CURVE SMOOTH",
"694 991 OFFCURVE",
"765 971 OFFCURVE",
"809 931 CURVE SMOOTH",
"853 891 OFFCURVE",
"877 821 OFFCURVE",
"877 736 CURVE SMOOTH",
"877 707 LINE",
"630 707 LINE SMOOTH",
"305 707 OFFCURVE",
"136 575 OFFCURVE",
"136 327 CURVE SMOOTH",
"136 214 OFFCURVE",
"171 132 OFFCURVE",
"238 68 CURVE SMOOTH",
"305 3 OFFCURVE",
"396 -29 OFFCURVE",
"513 -29 CURVE SMOOTH"
);
},
{
closed = 1;
nodes = (
"407 125 OFFCURVE",
"320 204 OFFCURVE",
"320 337 CURVE SMOOTH",
"320 413 OFFCURVE",
"346 468 OFFCURVE",
"402 507 CURVE SMOOTH",
"457 544 OFFCURVE",
"538 563 OFFCURVE",
"644 563 CURVE SMOOTH",
"877 563 LINE",
"877 522 LINE SMOOTH",
"877 277 OFFCURVE",
"752 125 OFFCURVE",
"551 125 CURVE SMOOTH"
);
}
);
width = 1233;
}
);
note = agrave;
unicode = 00E0;
},
{
glyphname = amacron;
lastChange = "2016-07-20 22:44:41 +0000";
layers = (
{
layerId = "C8600398-8A20-4DEB-92AF-E95853BEE82A";
paths = (
{
closed = 1;
nodes = (
"320 1348 LINE",
"918 1348 LINE",
"918 1496 LINE",
"320 1496 LINE"
);
},
{
closed = 1;
nodes = (
"595 -29 OFFCURVE",
"667 -13 OFFCURVE",
"729 19 CURVE SMOOTH",
"793 52 OFFCURVE",
"856 107 OFFCURVE",
"893 170 CURVE",
"901 115 OFFCURVE",
"919 40 OFFCURVE",
"936 0 CURVE",
"1121 0 LINE",
"1116 15 OFFCURVE",
"1102 55 OFFCURVE",
"1094 91 CURVE",
"1079 144 OFFCURVE",
"1067 235 OFFCURVE",
"1064 346 CURVE SMOOTH",
"1062 410 LINE",
"1062 639 LINE SMOOTH",
"1062 839 OFFCURVE",
"1044 912 OFFCURVE",
"992 984 CURVE SMOOTH",
"917 1085 OFFCURVE",
"780 1147 OFFCURVE",
"597 1147 CURVE SMOOTH",
"472 1147 OFFCURVE",
"357 1121 OFFCURVE",
"218 1069 CURVE",
"218 885 LINE",
"337 954 OFFCURVE",
"469 991 OFFCURVE",
"596 991 CURVE SMOOTH",
"694 991 OFFCURVE",
"765 971 OFFCURVE",
"809 931 CURVE SMOOTH",
"853 891 OFFCURVE",
"877 821 OFFCURVE",
"877 736 CURVE SMOOTH",
"877 707 LINE",
"630 707 LINE SMOOTH",
"305 707 OFFCURVE",
"136 575 OFFCURVE",
"136 327 CURVE SMOOTH",
"136 214 OFFCURVE",
"171 132 OFFCURVE",
"238 68 CURVE SMOOTH",
"305 3 OFFCURVE",
"396 -29 OFFCURVE",
"513 -29 CURVE SMOOTH"
);
},
{
closed = 1;
nodes = (
"407 125 OFFCURVE",
"320 204 OFFCURVE",
"320 337 CURVE SMOOTH",
"320 413 OFFCURVE",
"346 468 OFFCURVE",
"402 507 CURVE SMOOTH",
"457 544 OFFCURVE",
"538 563 OFFCURVE",
"644 563 CURVE SMOOTH",
"877 563 LINE",
"877 522 LINE SMOOTH",
"877 277 OFFCURVE",
"752 125 OFFCURVE",
"551 125 CURVE SMOOTH"
);
}
);
width = 1233;
}
);
note = amacron;
unicode = 0101;
},
{
glyphname = aogonek;
lastChange = "2016-07-20 22:44:41 +0000";
layers = (
{
layerId = "C8600398-8A20-4DEB-92AF-E95853BEE82A";
paths = (
{
closed = 1;
nodes = (
"1006 -269 OFFCURVE",
"968 -237 OFFCURVE",
"968 -181 CURVE SMOOTH",
"968 -136 OFFCURVE",
"993 -84 OFFCURVE",
"1054 0 CURVE",
"1121 0 LINE",
"1116 15 OFFCURVE",
"1102 55 OFFCURVE",
"1094 91 CURVE",
"1079 144 OFFCURVE",
"1067 235 OFFCURVE",
"1064 346 CURVE SMOOTH",
"1062 410 LINE",
"1062 639 LINE SMOOTH",
"1062 839 OFFCURVE",
"1044 912 OFFCURVE",
"992 984 CURVE SMOOTH",
"917 1085 OFFCURVE",
"780 1147 OFFCURVE",
"597 1147 CURVE SMOOTH",
"472 1147 OFFCURVE",
"357 1121 OFFCURVE",
"218 1069 CURVE",
"218 885 LINE",
"337 954 OFFCURVE",
"469 991 OFFCURVE",
"596 991 CURVE SMOOTH",
"694 991 OFFCURVE",
"765 971 OFFCURVE",
"809 931 CURVE SMOOTH",
"853 891 OFFCURVE",
"877 821 OFFCURVE",
"877 736 CURVE SMOOTH",
"877 707 LINE",
"630 707 LINE SMOOTH",
"305 707 OFFCURVE",
"136 575 OFFCURVE",
"136 327 CURVE SMOOTH",
"136 214 OFFCURVE",
"171 132 OFFCURVE",
"238 68 CURVE SMOOTH",
"305 3 OFFCURVE",
"396 -29 OFFCURVE",
"513 -29 CURVE SMOOTH",
"595 -29 OFFCURVE",
"667 -13 OFFCURVE",
"729 19 CURVE SMOOTH",
"793 52 OFFCURVE",
"856 107 OFFCURVE",
"893 170 CURVE",
"901 115 OFFCURVE",
"920 38 OFFCURVE",
"935 1 CURVE",
"856 -90 OFFCURVE",
"829 -150 OFFCURVE",
"829 -218 CURVE SMOOTH",
"829 -334 OFFCURVE",
"906 -392 OFFCURVE",
"1059 -392 CURVE SMOOTH",
"1108 -392 OFFCURVE",
"1146 -387 OFFCURVE",
"1202 -372 CURVE",
"1202 -239 LINE",
"1161 -259 OFFCURVE",
"1120 -269 OFFCURVE",
"1078 -269 CURVE SMOOTH"
);
},
{
closed = 1;
nodes = (
"877 522 LINE SMOOTH",
"877 277 OFFCURVE",
"752 125 OFFCURVE",
"551 125 CURVE SMOOTH",
"407 125 OFFCURVE",
"320 204 OFFCURVE",
"320 337 CURVE SMOOTH",
"320 413 OFFCURVE",
"346 468 OFFCURVE",
"402 507 CURVE SMOOTH",
"457 544 OFFCURVE",
"538 563 OFFCURVE",
"644 563 CURVE SMOOTH",
"877 563 LINE"
);
}
);
width = 1233;
}
);
note = aogonek;
unicode = 0105;
},
{
glyphname = aring;
lastChange = "2016-07-20 22:44:41 +0000";
layers = (
{
layerId = "C8600398-8A20-4DEB-92AF-E95853BEE82A";
paths = (
{
closed = 1;
nodes = (
"774 1249 OFFCURVE",
"894 1369 OFFCURVE",
"894 1524 CURVE SMOOTH",
"894 1679 OFFCURVE",
"775 1798 OFFCURVE",
"619 1798 CURVE SMOOTH",
"466 1798 OFFCURVE",
"345 1677 OFFCURVE",
"345 1524 CURVE SMOOTH",
"345 1371 OFFCURVE",
"467 1249 OFFCURVE",
"619 1249 CURVE SMOOTH"
);
},
{
closed = 1;
nodes = (
"535 1372 OFFCURVE",
"468 1439 OFFCURVE",
"468 1524 CURVE SMOOTH",
"468 1609 OFFCURVE",
"534 1675 OFFCURVE",
"618 1675 CURVE SMOOTH",
"705 1675 OFFCURVE",
"771 1608 OFFCURVE",
"771 1524 CURVE SMOOTH",
"771 1439 OFFCURVE",
"704 1372 OFFCURVE",
"619 1372 CURVE SMOOTH"
);
},
{
closed = 1;
nodes = (
"595 -29 OFFCURVE",
"667 -13 OFFCURVE",
"729 19 CURVE SMOOTH",
"793 52 OFFCURVE",
"856 107 OFFCURVE",
"893 170 CURVE",
"901 115 OFFCURVE",
"919 40 OFFCURVE",
"936 0 CURVE",
"1121 0 LINE",
"1116 15 OFFCURVE",
"1102 55 OFFCURVE",
"1094 91 CURVE",
"1079 144 OFFCURVE",
"1067 235 OFFCURVE",
"1064 346 CURVE SMOOTH",
"1062 410 LINE",
"1062 639 LINE SMOOTH",
"1062 839 OFFCURVE",
"1044 912 OFFCURVE",
"992 984 CURVE SMOOTH",
"917 1085 OFFCURVE",
"780 1147 OFFCURVE",
"597 1147 CURVE SMOOTH",
"472 1147 OFFCURVE",
"357 1121 OFFCURVE",
"218 1069 CURVE",
"218 885 LINE",
"337 954 OFFCURVE",
"469 991 OFFCURVE",
"596 991 CURVE SMOOTH",
"694 991 OFFCURVE",
"765 971 OFFCURVE",
"809 931 CURVE SMOOTH",
"853 891 OFFCURVE",
"877 821 OFFCURVE",
"877 736 CURVE SMOOTH",
"877 707 LINE",
"630 707 LINE SMOOTH",
"305 707 OFFCURVE",
"136 575 OFFCURVE",
"136 327 CURVE SMOOTH",
"136 214 OFFCURVE",
"171 132 OFFCURVE",
"238 68 CURVE SMOOTH",
"305 3 OFFCURVE",
"396 -29 OFFCURVE",
"513 -29 CURVE SMOOTH"
);
},
{
closed = 1;
nodes = (
"407 125 OFFCURVE",
"320 204 OFFCURVE",
"320 337 CURVE SMOOTH",
"320 413 OFFCURVE",
"346 468 OFFCURVE",
"402 507 CURVE SMOOTH",
"457 544 OFFCURVE",
"538 563 OFFCURVE",
"644 563 CURVE SMOOTH",
"877 563 LINE",
"877 522 LINE SMOOTH",
"877 277 OFFCURVE",
"752 125 OFFCURVE",
"551 125 CURVE SMOOTH"
);
}
);
width = 1233;
}
);
note = aring;
unicode = 00E5;
},
{
glyphname = atilde;
lastChange = "2016-07-20 22:44:41 +0000";
layers = (
{
layerId = "C8600398-8A20-4DEB-92AF-E95853BEE82A";
paths = (
{
closed = 1;
nodes = (
"415 1393 OFFCURVE",
"422 1432 OFFCURVE",
"434 1457 CURVE SMOOTH",
"446 1482 OFFCURVE",
"465 1494 OFFCURVE",
"490 1494 CURVE SMOOTH",
"510 1494 OFFCURVE",
"531 1480 OFFCURVE",
"558 1455 CURVE SMOOTH",
"615 1400 LINE",
"664 1357 OFFCURVE",
"705 1339 OFFCURVE",
"756 1339 CURVE SMOOTH",
"876 1339 OFFCURVE",
"948 1444 OFFCURVE",
"949 1621 CURVE",
"824 1621 LINE",
"823 1568 OFFCURVE",
"817 1528 OFFCURVE",
"805 1503 CURVE SMOOTH",
"793 1478 OFFCURVE",
"774 1466 OFFCURVE",
"749 1466 CURVE SMOOTH",
"738 1466 OFFCURVE",
"732 1468 OFFCURVE",
"719 1476 CURVE SMOOTH",
"708 1483 OFFCURVE",
"696 1492 OFFCURVE",
"681 1505 CURVE",
"624 1560 LINE",
"575 1603 OFFCURVE",
"534 1621 OFFCURVE",
"483 1621 CURVE SMOOTH",
"363 1621 OFFCURVE",
"291 1516 OFFCURVE",
"290 1339 CURVE",
"414 1339 LINE"
);
},
{
closed = 1;
nodes = (
"595 -29 OFFCURVE",
"667 -13 OFFCURVE",
"729 19 CURVE SMOOTH",
"793 52 OFFCURVE",
"856 107 OFFCURVE",
"893 170 CURVE",
"901 115 OFFCURVE",
"919 40 OFFCURVE",
"936 0 CURVE",
"1121 0 LINE",
"1116 15 OFFCURVE",
"1102 55 OFFCURVE",
"1094 91 CURVE",
"1079 144 OFFCURVE",
"1067 235 OFFCURVE",
"1064 346 CURVE SMOOTH",
"1062 410 LINE",
"1062 639 LINE SMOOTH",
"1062 839 OFFCURVE",
"1044 912 OFFCURVE",
"992 984 CURVE SMOOTH",
"917 1085 OFFCURVE",
"780 1147 OFFCURVE",
"597 1147 CURVE SMOOTH",
"472 1147 OFFCURVE",
"357 1121 OFFCURVE",
"218 1069 CURVE",
"218 885 LINE",
"337 954 OFFCURVE",
"469 991 OFFCURVE",
"596 991 CURVE SMOOTH",
"694 991 OFFCURVE",
"765 971 OFFCURVE",
"809 931 CURVE SMOOTH",
"853 891 OFFCURVE",
"877 821 OFFCURVE",
"877 736 CURVE SMOOTH",
"877 707 LINE",
"630 707 LINE SMOOTH",
"305 707 OFFCURVE",
"136 575 OFFCURVE",
"136 327 CURVE SMOOTH",
"136 214 OFFCURVE",
"171 132 OFFCURVE",
"238 68 CURVE SMOOTH",
"305 3 OFFCURVE",
"396 -29 OFFCURVE",
"513 -29 CURVE SMOOTH"
);
},
{
closed = 1;
nodes = (
"407 125 OFFCURVE",
"320 204 OFFCURVE",
"320 337 CURVE SMOOTH",
"320 413 OFFCURVE",
"346 468 OFFCURVE",
"402 507 CURVE SMOOTH",
"457 544 OFFCURVE",
"538 563 OFFCURVE",
"644 563 CURVE SMOOTH",
"877 563 LINE",
"877 522 LINE SMOOTH",
"877 277 OFFCURVE",
"752 125 OFFCURVE",
"551 125 CURVE SMOOTH"
);
}
);
width = 1233;
}
);
note = atilde;
unicode = 00E3;
},
{
glyphname = ae;
lastChange = "2016-07-20 22:44:41 +0000";
layers = (
{
layerId = "C8600398-8A20-4DEB-92AF-E95853BEE82A";
paths = (
{
closed = 1;
nodes = (
"490 -29 OFFCURVE",
"577 26 OFFCURVE",
"629 131 CURVE",
"672 27 OFFCURVE",
"774 -29 OFFCURVE",
"917 -29 CURVE SMOOTH",
"1020 -29 OFFCURVE",
"1099 -1 OFFCURVE",
"1178 55 CURVE",
"1178 227 LINE",
"1110 159 OFFCURVE",
"1022 125 OFFCURVE",
"923 125 CURVE SMOOTH",
"846 125 OFFCURVE",
"793 147 OFFCURVE",
"758 196 CURVE SMOOTH",
"725 243 OFFCURVE",
"707 318 OFFCURVE",
"707 443 CURVE SMOOTH",
"707 460 OFFCURVE",
"707 470 OFFCURVE",
"708 474 CURVE",
"708 478 OFFCURVE",
"708 481 OFFCURVE",
"708 482 CURVE SMOOTH",
"708 496 OFFCURVE",
"708 507 OFFCURVE",
"709 514 CURVE",
"1200 514 LINE",
"1200 604 LINE SMOOTH",
"1200 1013 OFFCURVE",
"1115 1147 OFFCURVE",
"882 1147 CURVE SMOOTH",
"762 1147 OFFCURVE",
"671 1101 OFFCURVE",
"627 1020 CURVE",
"578 1107 OFFCURVE",
"497 1147 OFFCURVE",
"376 1147 CURVE SMOOTH",
"291 1147 OFFCURVE",
"214 1127 OFFCURVE",
"106 1079 CURVE",
"106 911 LINE",
"183 962 OFFCURVE",
"277 993 OFFCURVE",
"357 993 CURVE SMOOTH",
"482 993 OFFCURVE",
"549 905 OFFCURVE",
"549 745 CURVE SMOOTH",
"549 657 LINE",
"432 657 LINE SMOOTH",
"305 657 OFFCURVE",
"208 627 OFFCURVE",
"141 568 CURVE SMOOTH",
"72 507 OFFCURVE",
"41 420 OFFCURVE",
"41 304 CURVE SMOOTH",
"41 89 OFFCURVE",
"153 -29 OFFCURVE",
"358 -29 CURVE SMOOTH"
);
},
{
closed = 1;
nodes = (
"709 657 LINE",
"709 700 LINE SMOOTH",
"709 909 OFFCURVE",
"756 993 OFFCURVE",
"872 993 CURVE SMOOTH",
"989 993 OFFCURVE",
"1036 909 OFFCURVE",
"1036 709 CURVE SMOOTH",
"1036 657 LINE"
);
},
{
closed = 1;
nodes = (
"268 125 OFFCURVE",
"205 192 OFFCURVE",
"205 313 CURVE SMOOTH",
"205 460 OFFCURVE",
"269 514 OFFCURVE",
"494 514 CURVE SMOOTH",
"543 514 LINE",
"543 442 LINE SMOOTH",
"543 377 OFFCURVE",
"540 324 OFFCURVE",
"534 285 CURVE SMOOTH",
"521 206 OFFCURVE",
"500 125 OFFCURVE",
"375 125 CURVE SMOOTH"
);
}
);
width = 1233;
}
);
note = ae;
unicode = 00E6;
},
{
glyphname = b;
lastChange = "2016-07-20 22:44:41 +0000";
layers = (
{
layerId = "C8600398-8A20-4DEB-92AF-E95853BEE82A";
paths = (
{
closed = 1;
nodes = (
"949 -29 OFFCURVE",
"1112 196 OFFCURVE",
"1112 561 CURVE SMOOTH",
"1112 744 OFFCURVE",
"1073 888 OFFCURVE",
"996 993 CURVE SMOOTH",
"917 1096 OFFCURVE",
"809 1147 OFFCURVE",
"680 1147 CURVE SMOOTH",
"541 1147 OFFCURVE",
"436 1088 OFFCURVE",
"377 977 CURVE",
"377 1556 LINE",
"193 1556 LINE",
"193 0 LINE",
"359 0 LINE",
"377 141 LINE",
"408 86 OFFCURVE",
"449 44 OFFCURVE",
"500 15 CURVE SMOOTH",
"555 -16 OFFCURVE",
"608 -29 OFFCURVE",
"676 -29 CURVE SMOOTH"
);
},
{
closed = 1;
nodes = (
"470 127 OFFCURVE",
"377 276 OFFCURVE",
"377 559 CURVE SMOOTH",
"377 844 OFFCURVE",
"470 991 OFFCURVE",
"649 991 CURVE SMOOTH",
"828 991 OFFCURVE",
"918 843 OFFCURVE",
"918 559 CURVE SMOOTH",
"918 275 OFFCURVE",
"827 127 OFFCURVE",
"650 127 CURVE SMOOTH"
);
}
);
width = 1233;
}
);
note = b;
unicode = 0062;
},
{
glyphname = c;
lastChange = "2016-07-20 22:44:41 +0000";
layers = (
{
layerId = "C8600398-8A20-4DEB-92AF-E95853BEE82A";
paths = (
{
closed = 1;
nodes = (
"832 -29 OFFCURVE",
"942 4 OFFCURVE",
"1030 57 CURVE",
"1030 248 LINE",
"986 207 OFFCURVE",
"946 178 OFFCURVE",
"889 157 CURVE SMOOTH",
"840 137 OFFCURVE",
"784 127 OFFCURVE",
"721 127 CURVE SMOOTH",
"488 127 OFFCURVE",
"358 281 OFFCURVE",
"358 560 CURVE SMOOTH",
"358 836 OFFCURVE",
"486 991 OFFCURVE",
"718 991 CURVE SMOOTH",
"838 991 OFFCURVE",
"929 957 OFFCURVE",
"1030 868 CURVE",
"1030 1061 LINE",
"921 1121 OFFCURVE",
"834 1147 OFFCURVE",
"713 1147 CURVE SMOOTH",
"374 1147 OFFCURVE",
"164 928 OFFCURVE",
"164 559 CURVE SMOOTH",
"164 376 OFFCURVE",
"213 232 OFFCURVE",
"310 127 CURVE SMOOTH",
"406 24 OFFCURVE",
"544 -29 OFFCURVE",
"712 -29 CURVE SMOOTH"
);
}
);
width = 1233;
}
);
note = c;
unicode = 0063;
},
{
glyphname = cacute;
lastChange = "2016-07-20 22:44:41 +0000";
layers = (
{
layerId = "C8600398-8A20-4DEB-92AF-E95853BEE82A";
paths = (
{
closed = 1;
nodes = (
"534 1297 LINE",
"688 1297 LINE",
"1013 1673 LINE",
"815 1673 LINE"
);
},
{
closed = 1;
nodes = (
"832 -29 OFFCURVE",
"942 4 OFFCURVE",
"1030 57 CURVE",
"1030 248 LINE",
"986 207 OFFCURVE",
"946 178 OFFCURVE",
"889 157 CURVE SMOOTH",
"840 137 OFFCURVE",
"784 127 OFFCURVE",
"721 127 CURVE SMOOTH",
"488 127 OFFCURVE",
"358 281 OFFCURVE",
"358 560 CURVE SMOOTH",
"358 836 OFFCURVE",
"486 991 OFFCURVE",
"718 991 CURVE SMOOTH",
"838 991 OFFCURVE",
"929 957 OFFCURVE",
"1030 868 CURVE",
"1030 1061 LINE",
"921 1121 OFFCURVE",
"834 1147 OFFCURVE",
"713 1147 CURVE SMOOTH",
"374 1147 OFFCURVE",
"164 928 OFFCURVE",
"164 559 CURVE SMOOTH",
"164 376 OFFCURVE",
"214 230 OFFCURVE",
"310 127 CURVE SMOOTH",
"406 24 OFFCURVE",
"544 -29 OFFCURVE",
"712 -29 CURVE SMOOTH"
);
}
);
width = 1233;
}
);
note = cacute;
unicode = 0107;
},
{
glyphname = ccaron;
lastChange = "2016-07-20 22:44:41 +0000";
layers = (
{
layerId = "C8600398-8A20-4DEB-92AF-E95853BEE82A";
paths = (
{
closed = 1;
nodes = (
"602 1297 LINE",
"749 1297 LINE",
"995 1673 LINE",
"856 1673 LINE",
"675 1428 LINE",
"495 1673 LINE",
"356 1673 LINE"
);
},
{
closed = 1;
nodes = (
"832 -29 OFFCURVE",
"942 4 OFFCURVE",
"1030 57 CURVE",
"1030 248 LINE",
"986 207 OFFCURVE",
"946 178 OFFCURVE",
"889 157 CURVE SMOOTH",
"840 137 OFFCURVE",
"784 127 OFFCURVE",
"721 127 CURVE SMOOTH",
"488 127 OFFCURVE",
"358 281 OFFCURVE",
"358 560 CURVE SMOOTH",
"358 836 OFFCURVE",
"486 991 OFFCURVE",
"718 991 CURVE SMOOTH",
"838 991 OFFCURVE",
"929 957 OFFCURVE",
"1030 868 CURVE",
"1030 1061 LINE",
"921 1121 OFFCURVE",
"834 1147 OFFCURVE",
"713 1147 CURVE SMOOTH",
"374 1147 OFFCURVE",
"164 928 OFFCURVE",
"164 559 CURVE SMOOTH",
"164 376 OFFCURVE",
"214 230 OFFCURVE",
"310 127 CURVE SMOOTH",
"406 24 OFFCURVE",
"544 -29 OFFCURVE",
"712 -29 CURVE SMOOTH"
);
}
);
width = 1233;
}
);
note = ccaron;
unicode = 010D;
},
{
glyphname = ccedilla;
lastChange = "2016-07-20 22:44:41 +0000";
layers = (
{
layerId = "C8600398-8A20-4DEB-92AF-E95853BEE82A";
paths = (
{
closed = 1;
nodes = (
"838 991 OFFCURVE",
"929 957 OFFCURVE",
"1030 868 CURVE",
"1030 1061 LINE",
"921 1121 OFFCURVE",
"834 1147 OFFCURVE",
"713 1147 CURVE SMOOTH",
"374 1147 OFFCURVE",
"164 928 OFFCURVE",
"164 559 CURVE SMOOTH",
"164 376 OFFCURVE",
"214 230 OFFCURVE",
"310 127 CURVE SMOOTH",
"398 32 OFFCURVE",
"523 -20 OFFCURVE",
"674 -28 CURVE",
"709 -79 OFFCURVE",
"743 -137 OFFCURVE",
"743 -180 CURVE SMOOTH",
"743 -239 OFFCURVE",
"704 -272 OFFCURVE",
"619 -272 CURVE SMOOTH",
"560 -272 OFFCURVE",
"519 -264 OFFCURVE",
"468 -240 CURVE",
"468 -371 LINE",
"524 -387 OFFCURVE",
"584 -395 OFFCURVE",
"643 -395 CURVE SMOOTH",
"722 -395 OFFCURVE",
"781 -380 OFFCURVE",
"822 -350 CURVE SMOOTH",
"862 -319 OFFCURVE",
"882 -272 OFFCURVE",
"882 -219 CURVE SMOOTH",
"882 -152 OFFCURVE",
"846 -85 OFFCURVE",
"794 -24 CURVE",
"818 -22 OFFCURVE",
"846 -17 OFFCURVE",
"878 -8 CURVE SMOOTH",
"935 9 OFFCURVE",
"986 30 OFFCURVE",
"1030 57 CURVE",
"1030 248 LINE",
"986 207 OFFCURVE",
"946 178 OFFCURVE",
"889 157 CURVE SMOOTH",
"840 137 OFFCURVE",
"784 127 OFFCURVE",
"721 127 CURVE SMOOTH",
"488 127 OFFCURVE",
"358 281 OFFCURVE",
"358 560 CURVE SMOOTH",
"358 836 OFFCURVE",
"486 991 OFFCURVE",
"718 991 CURVE SMOOTH"
);
}
);
width = 1233;
}
);
note = ccedilla;
unicode = 00E7;
},
{
glyphname = cdotaccent;
lastChange = "2016-07-20 22:44:41 +0000";
layers = (
{
layerId = "C8600398-8A20-4DEB-92AF-E95853BEE82A";
paths = (
{
closed = 1;
nodes = (
"752 1348 OFFCURVE",
"762 1358 OFFCURVE",
"762 1378 CURVE SMOOTH",
"762 1522 LINE SMOOTH",
"762 1542 OFFCURVE",
"752 1552 OFFCURVE",
"732 1552 CURVE SMOOTH",
"587 1552 LINE SMOOTH",
"567 1552 OFFCURVE",
"557 1542 OFFCURVE",
"557 1522 CURVE SMOOTH",
"557 1378 LINE SMOOTH",
"557 1358 OFFCURVE",
"567 1348 OFFCURVE",
"587 1348 CURVE SMOOTH",
"732 1348 LINE SMOOTH"
);
},
{
closed = 1;
nodes = (
"826 -29 OFFCURVE",
"931 0 OFFCURVE",
"1030 57 CURVE",
"1030 248 LINE",
"942 164 OFFCURVE",
"846 127 OFFCURVE",
"717 127 CURVE SMOOTH",
"486 127 OFFCURVE",
"358 282 OFFCURVE",
"358 559 CURVE SMOOTH",
"358 838 OFFCURVE",
"485 991 OFFCURVE",
"717 991 CURVE SMOOTH",
"841 991 OFFCURVE",
"933 955 OFFCURVE",
"1030 868 CURVE",
"1030 1061 LINE",
"927 1120 OFFCURVE",
"826 1147 OFFCURVE",
"717 1147 CURVE SMOOTH",
"602 1147 OFFCURVE",
"504 1124 OFFCURVE",
"421 1077 CURVE SMOOTH",
"255 984 OFFCURVE",
"164 803 OFFCURVE",
"164 559 CURVE SMOOTH",
"164 437 OFFCURVE",
"186 332 OFFCURVE",
"230 244 CURVE SMOOTH",
"318 67 OFFCURVE",
"488 -29 OFFCURVE",
"717 -29 CURVE SMOOTH"
);
}
);
width = 1233;
}
);
note = cdotaccent;
unicode = 010B;
},
{
glyphname = d;
lastChange = "2016-07-20 22:44:41 +0000";
layers = (
{
layerId = "C8600398-8A20-4DEB-92AF-E95853BEE82A";
paths = (
{
closed = 1;
nodes = (
"626 -29 OFFCURVE",
"685 -14 OFFCURVE",
"736 15 CURVE SMOOTH",
"788 44 OFFCURVE",
"825 85 OFFCURVE",
"858 141 CURVE",
"876 0 LINE",
"1042 0 LINE",
"1042 1556 LINE",
"858 1556 LINE",
"858 977 LINE",
"799 1088 OFFCURVE",
"695 1147 OFFCURVE",
"559 1147 CURVE SMOOTH",
"428 1147 OFFCURVE",
"318 1095 OFFCURVE",
"239 992 CURVE SMOOTH",
"162 889 OFFCURVE",
"123 742 OFFCURVE",
"123 562 CURVE SMOOTH",
"123 382 OFFCURVE",
"162 233 OFFCURVE",
"239 129 CURVE SMOOTH",
"312 28 OFFCURVE",
"422 -29 OFFCURVE",
"559 -29 CURVE SMOOTH"
);
},
{
closed = 1;
nodes = (
"408 127 OFFCURVE",
"317 275 OFFCURVE",
"317 559 CURVE SMOOTH",
"317 843 OFFCURVE",
"407 991 OFFCURVE",
"586 991 CURVE SMOOTH",
"765 991 OFFCURVE",
"858 844 OFFCURVE",
"858 559 CURVE SMOOTH",
"858 276 OFFCURVE",
"765 127 OFFCURVE",
"585 127 CURVE SMOOTH"
);
}
);
width = 1233;
}
);
note = d;
unicode = 0064;
},
{
glyphname = eth;
lastChange = "2016-07-20 22:44:41 +0000";
layers = (
{
layerId = "C8600398-8A20-4DEB-92AF-E95853BEE82A";
paths = (
{
closed = 1;
nodes = (
"922 -29 OFFCURVE",
"1096 181 OFFCURVE",
"1096 528 CURVE SMOOTH",
"1096 671 OFFCURVE",
"1066 796 OFFCURVE",
"1005 925 CURVE SMOOTH",
"944 1052 OFFCURVE",
"848 1186 OFFCURVE",
"717 1327 CURVE",
"967 1407 LINE",
"934 1505 LINE",
"645 1411 LINE",
"518 1556 LINE",
"299 1556 LINE",
"481 1356 LINE",
"244 1276 LINE",
"274 1178 LINE",
"553 1270 LINE",
"568 1253 LINE SMOOTH",
"621 1192 OFFCURVE",
"625 1186 OFFCURVE",
"682 1110 CURVE SMOOTH",
"687 1103 OFFCURVE",
"692 1097 OFFCURVE",
"696 1092 CURVE",
"683 1094 LINE",
"663 1095 LINE",
"662 1095 OFFCURVE",
"659 1095 OFFCURVE",
"656 1096 CURVE",
"652 1096 OFFCURVE",
"644 1096 OFFCURVE",
"631 1096 CURVE SMOOTH",
"463 1096 OFFCURVE",
"345 1049 OFFCURVE",
"262 949 CURVE SMOOTH",
"179 850 OFFCURVE",
"137 711 OFFCURVE",
"137 533 CURVE SMOOTH",
"137 356 OFFCURVE",
"179 218 OFFCURVE",
"262 119 CURVE SMOOTH",
"347 20 OFFCURVE",
"465 -29 OFFCURVE",
"617 -29 CURVE SMOOTH"
);
},
{
closed = 1;
nodes = (
"433 127 OFFCURVE",
"332 275 OFFCURVE",
"332 534 CURVE SMOOTH",
"332 799 OFFCURVE",
"433 944 OFFCURVE",
"638 944 CURVE SMOOTH",
"689 944 OFFCURVE",
"748 935 OFFCURVE",
"793 918 CURVE",
"862 819 OFFCURVE",
"901 680 OFFCURVE",
"901 531 CURVE SMOOTH",
"901 279 OFFCURVE",
"800 127 OFFCURVE",
"616 127 CURVE SMOOTH"
);
}
);
width = 1233;
}
);
note = eth;
unicode = 00F0;
},
{
glyphname = dcaron;
lastChange = "2016-07-20 22:44:41 +0000";
layers = (
{
layerId = "C8600398-8A20-4DEB-92AF-E95853BEE82A";
paths = (
{
closed = 1;
nodes = (
"1045 1181 LINE",
"1199 1181 LINE",
"1312 1557 LINE",
"1114 1557 LINE"
);
},
{
closed = 1;
nodes = (
"663 -29 OFFCURVE",
"767 29 OFFCURVE",
"828 141 CURVE",
"846 0 LINE",
"1012 0 LINE",
"1012 1556 LINE",
"828 1556 LINE",
"828 977 LINE",
"768 1089 OFFCURVE",
"666 1147 OFFCURVE",
"527 1147 CURVE SMOOTH",
"438 1147 OFFCURVE",
"361 1124 OFFCURVE",
"296 1077 CURVE SMOOTH",
"165 983 OFFCURVE",
"93 802 OFFCURVE",
"93 561 CURVE SMOOTH",
"93 440 OFFCURVE",
"111 335 OFFCURVE",
"146 246 CURVE SMOOTH",
"216 69 OFFCURVE",
"349 -29 OFFCURVE",
"526 -29 CURVE SMOOTH"
);
},
{
closed = 1;
nodes = (
"377 127 OFFCURVE",
"287 271 OFFCURVE",
"287 559 CURVE SMOOTH",
"287 847 OFFCURVE",
"377 991 OFFCURVE",
"556 991 CURVE SMOOTH",
"735 991 OFFCURVE",
"828 844 OFFCURVE",
"828 559 CURVE SMOOTH",
"828 274 OFFCURVE",
"735 127 OFFCURVE",
"556 127 CURVE SMOOTH"
);
}
);
width = 1233;
}
);
note = dcaron;
unicode = 010F;
},
{
glyphname = dcroat;
lastChange = "2016-07-20 22:44:41 +0000";
layers = (
{
layerId = "C8600398-8A20-4DEB-92AF-E95853BEE82A";
paths = (
{
closed = 1;
nodes = (
"626 -29 OFFCURVE",
"685 -14 OFFCURVE",
"736 15 CURVE SMOOTH",
"788 44 OFFCURVE",
"825 85 OFFCURVE",
"858 141 CURVE",
"876 0 LINE",
"1042 0 LINE",
"1042 1286 LINE",
"1233 1286 LINE",
"1233 1407 LINE",
"1042 1407 LINE",
"1042 1556 LINE",
"858 1556 LINE",
"858 1407 LINE",
"553 1407 LINE",
"553 1286 LINE",
"858 1286 LINE",
"858 977 LINE",
"799 1088 OFFCURVE",
"695 1147 OFFCURVE",
"559 1147 CURVE SMOOTH",
"428 1147 OFFCURVE",
"318 1095 OFFCURVE",
"239 992 CURVE SMOOTH",
"162 889 OFFCURVE",
"123 742 OFFCURVE",
"123 562 CURVE SMOOTH",
"123 382 OFFCURVE",
"162 233 OFFCURVE",
"239 129 CURVE SMOOTH",
"312 28 OFFCURVE",
"422 -29 OFFCURVE",
"559 -29 CURVE SMOOTH"
);
},
{
closed = 1;
nodes = (
"408 127 OFFCURVE",
"317 275 OFFCURVE",
"317 559 CURVE SMOOTH",
"317 843 OFFCURVE",
"407 991 OFFCURVE",
"586 991 CURVE SMOOTH",
"765 991 OFFCURVE",
"858 844 OFFCURVE",
"858 559 CURVE SMOOTH",
"858 276 OFFCURVE",
"765 127 OFFCURVE",
"585 127 CURVE SMOOTH"
);
}
);
width = 1233;
}
);
note = dcroat;
unicode = 0111;
},
{
glyphname = e;
lastChange = "2016-07-20 22:44:41 +0000";
layers = (
{
layerId = "C8600398-8A20-4DEB-92AF-E95853BEE82A";
paths = (
{
closed = 1;
nodes = (
"812 -29 OFFCURVE",
"933 1 OFFCURVE",
"1070 57 CURVE",
"1070 240 LINE",
"919 163 OFFCURVE",
"803 127 OFFCURVE",
"680 127 CURVE SMOOTH",
"449 127 OFFCURVE",
"316 267 OFFCURVE",
"316 510 CURVE SMOOTH",
"316 516 LINE",
"1113 516 LINE",
"1113 606 LINE SMOOTH",
"1113 945 OFFCURVE",
"938 1147 OFFCURVE",
"649 1147 CURVE SMOOTH",
"496 1147 OFFCURVE",
"363 1094 OFFCURVE",
"267 987 CURVE SMOOTH",
"172 880 OFFCURVE",
"124 737 OFFCURVE",
"124 558 CURVE SMOOTH",
"124 376 OFFCURVE",
"173 232 OFFCURVE",
"271 127 CURVE SMOOTH",
"367 24 OFFCURVE",
"505 -29 OFFCURVE",
"677 -29 CURVE SMOOTH"
);
},
{
closed = 1;
nodes = (
"346 867 OFFCURVE",
"465 991 OFFCURVE",
"645 991 CURVE SMOOTH",
"733 991 OFFCURVE",
"805 963 OFFCURVE",
"853 907 CURVE SMOOTH",
"901 852 OFFCURVE",
"926 769 OFFCURVE",
"929 660 CURVE",
"323 659 LINE"
);
}
);
width = 1233;
}
);
note = e;
unicode = 0065;
},
{
glyphname = eacute;
lastChange = "2016-07-20 22:44:41 +0000";
layers = (
{
layerId = "C8600398-8A20-4DEB-92AF-E95853BEE82A";
paths = (
{
closed = 1;
nodes = (
"490 1297 LINE",
"644 1297 LINE",
"969 1673 LINE",
"771 1673 LINE"
);
},
{
closed = 1;
nodes = (
"812 -29 OFFCURVE",
"923 -3 OFFCURVE",
"1070 57 CURVE",
"1070 240 LINE",
"919 163 OFFCURVE",
"803 127 OFFCURVE",
"680 127 CURVE SMOOTH",
"449 127 OFFCURVE",
"316 267 OFFCURVE",
"316 510 CURVE SMOOTH",
"316 516 LINE",
"1113 516 LINE",
"1113 606 LINE SMOOTH",
"1113 945 OFFCURVE",
"938 1147 OFFCURVE",
"649 1147 CURVE SMOOTH",
"496 1147 OFFCURVE",
"363 1094 OFFCURVE",
"267 987 CURVE SMOOTH",
"172 880 OFFCURVE",
"124 737 OFFCURVE",
"124 558 CURVE SMOOTH",
"124 376 OFFCURVE",
"173 232 OFFCURVE",
"271 127 CURVE SMOOTH",
"367 24 OFFCURVE",
"505 -29 OFFCURVE",
"677 -29 CURVE SMOOTH"
);
},
{
closed = 1;
nodes = (
"346 867 OFFCURVE",
"465 991 OFFCURVE",
"645 991 CURVE SMOOTH",
"733 991 OFFCURVE",
"805 963 OFFCURVE",
"853 907 CURVE SMOOTH",
"901 852 OFFCURVE",
"926 769 OFFCURVE",
"929 660 CURVE",
"323 659 LINE"
);
}
);
width = 1233;
}
);
note = eacute;
unicode = 00E9;
},
{
glyphname = ecaron;
lastChange = "2016-07-20 22:44:41 +0000";
layers = (
{
layerId = "C8600398-8A20-4DEB-92AF-E95853BEE82A";
paths = (
{
closed = 1;
nodes = (
"579 1297 LINE",
"726 1297 LINE",
"972 1673 LINE",
"833 1673 LINE",
"652 1428 LINE",
"472 1673 LINE",
"333 1673 LINE"
);
},
{
closed = 1;
nodes = (
"797 -29 OFFCURVE",
"928 0 OFFCURVE",
"1070 57 CURVE",
"1070 240 LINE",
"925 164 OFFCURVE",
"799 127 OFFCURVE",
"680 127 CURVE SMOOTH",
"449 127 OFFCURVE",
"316 266 OFFCURVE",
"316 510 CURVE SMOOTH",
"316 516 LINE",
"1113 516 LINE",
"1113 606 LINE SMOOTH",
"1113 717 OFFCURVE",
"1095 814 OFFCURVE",
"1058 895 CURVE SMOOTH",
"984 1058 OFFCURVE",
"841 1147 OFFCURVE",
"645 1147 CURVE SMOOTH",
"542 1147 OFFCURVE",
"451 1123 OFFCURVE",
"372 1074 CURVE SMOOTH",
"215 977 OFFCURVE",
"124 792 OFFCURVE",
"124 555 CURVE SMOOTH",
"124 436 OFFCURVE",
"146 332 OFFCURVE",
"190 244 CURVE SMOOTH",
"278 68 OFFCURVE",
"448 -29 OFFCURVE",
"677 -29 CURVE SMOOTH"
);
},
{
closed = 1;
nodes = (
"346 870 OFFCURVE",
"466 991 OFFCURVE",
"647 991 CURVE SMOOTH",
"826 991 OFFCURVE",
"925 871 OFFCURVE",
"929 660 CURVE",
"323 659 LINE"
);
}
);
width = 1233;
}
);
note = ecaron;
unicode = 011B;
},
{
glyphname = ecircumflex;
lastChange = "2016-07-20 22:44:41 +0000";
layers = (
{
layerId = "C8600398-8A20-4DEB-92AF-E95853BEE82A";
paths = (
{
closed = 1;
nodes = (
"312 1297 LINE",
"451 1297 LINE",
"631 1542 LINE",
"812 1297 LINE",
"951 1297 LINE",
"705 1673 LINE",
"558 1673 LINE"
);
},
{
closed = 1;
nodes = (
"812 -29 OFFCURVE",
"923 -3 OFFCURVE",
"1070 57 CURVE",
"1070 240 LINE",
"919 163 OFFCURVE",
"803 127 OFFCURVE",
"680 127 CURVE SMOOTH",
"449 127 OFFCURVE",
"316 267 OFFCURVE",
"316 510 CURVE SMOOTH",
"316 516 LINE",
"1113 516 LINE",
"1113 606 LINE SMOOTH",
"1113 945 OFFCURVE",
"938 1147 OFFCURVE",
"649 1147 CURVE SMOOTH",
"496 1147 OFFCURVE",
"363 1094 OFFCURVE",
"267 987 CURVE SMOOTH",
"172 880 OFFCURVE",
"124 737 OFFCURVE",
"124 558 CURVE SMOOTH",
"124 376 OFFCURVE",
"173 232 OFFCURVE",
"271 127 CURVE SMOOTH",
"367 24 OFFCURVE",
"505 -29 OFFCURVE",
"677 -29 CURVE SMOOTH"
);
},
{
closed = 1;
nodes = (
"346 867 OFFCURVE",
"465 991 OFFCURVE",
"645 991 CURVE SMOOTH",
"733 991 OFFCURVE",
"805 963 OFFCURVE",
"853 907 CURVE SMOOTH",
"901 852 OFFCURVE",
"926 769 OFFCURVE",
"929 660 CURVE",
"323 659 LINE"
);
}
);
width = 1233;
}
);
note = ecircumflex;
unicode = 00EA;
},
{
glyphname = edieresis;
lastChange = "2016-07-20 22:44:41 +0000";
layers = (
{
layerId = "C8600398-8A20-4DEB-92AF-E95853BEE82A";
paths = (
{
closed = 1;
nodes = (
"527 1350 OFFCURVE",
"537 1360 OFFCURVE",
"537 1380 CURVE SMOOTH",
"537 1522 LINE SMOOTH",
"537 1542 OFFCURVE",
"527 1552 OFFCURVE",
"507 1552 CURVE SMOOTH",
"364 1552 LINE SMOOTH",
"344 1552 OFFCURVE",
"334 1542 OFFCURVE",
"334 1522 CURVE SMOOTH",
"334 1380 LINE SMOOTH",
"334 1360 OFFCURVE",
"344 1350 OFFCURVE",
"364 1350 CURVE SMOOTH",
"507 1350 LINE SMOOTH"
);
},
{
closed = 1;
nodes = (
"918 1350 OFFCURVE",
"928 1360 OFFCURVE",
"928 1380 CURVE SMOOTH",
"928 1522 LINE SMOOTH",
"928 1542 OFFCURVE",
"918 1552 OFFCURVE",
"898 1552 CURVE SMOOTH",
"756 1552 LINE SMOOTH",
"736 1552 OFFCURVE",
"726 1542 OFFCURVE",
"726 1522 CURVE SMOOTH",
"726 1380 LINE SMOOTH",
"726 1360 OFFCURVE",
"736 1350 OFFCURVE",
"756 1350 CURVE SMOOTH",
"898 1350 LINE SMOOTH"
);
},
{
closed = 1;
nodes = (
"812 -29 OFFCURVE",
"923 -3 OFFCURVE",
"1070 57 CURVE",
"1070 240 LINE",
"919 163 OFFCURVE",
"803 127 OFFCURVE",
"680 127 CURVE SMOOTH",
"449 127 OFFCURVE",
"316 267 OFFCURVE",
"316 510 CURVE SMOOTH",
"316 516 LINE",
"1113 516 LINE",
"1113 606 LINE SMOOTH",
"1113 945 OFFCURVE",
"938 1147 OFFCURVE",
"649 1147 CURVE SMOOTH",
"496 1147 OFFCURVE",
"363 1094 OFFCURVE",
"267 987 CURVE SMOOTH",
"172 880 OFFCURVE",
"124 737 OFFCURVE",
"124 558 CURVE SMOOTH",
"124 376 OFFCURVE",
"173 232 OFFCURVE",
"271 127 CURVE SMOOTH",
"367 24 OFFCURVE",
"505 -29 OFFCURVE",
"677 -29 CURVE SMOOTH"
);
},
{
closed = 1;
nodes = (
"346 867 OFFCURVE",
"465 991 OFFCURVE",
"645 991 CURVE SMOOTH",
"733 991 OFFCURVE",
"805 963 OFFCURVE",
"853 907 CURVE SMOOTH",
"901 852 OFFCURVE",
"926 769 OFFCURVE",
"929 660 CURVE",
"323 659 LINE"
);
}
);
width = 1233;
}
);
note = edieresis;
unicode = 00EB;
},
{
glyphname = edotaccent;
lastChange = "2016-07-20 22:44:41 +0000";
layers = (
{
layerId = "C8600398-8A20-4DEB-92AF-E95853BEE82A";
paths = (
{
closed = 1;
nodes = (
"723 1348 OFFCURVE",
"733 1358 OFFCURVE",
"733 1378 CURVE SMOOTH",
"733 1522 LINE SMOOTH",
"733 1542 OFFCURVE",
"723 1552 OFFCURVE",
"703 1552 CURVE SMOOTH",
"558 1552 LINE SMOOTH",
"538 1552 OFFCURVE",
"528 1542 OFFCURVE",
"528 1522 CURVE SMOOTH",
"528 1378 LINE SMOOTH",
"528 1358 OFFCURVE",
"538 1348 OFFCURVE",
"558 1348 CURVE SMOOTH",
"703 1348 LINE SMOOTH"
);
},
{
closed = 1;
nodes = (
"797 -29 OFFCURVE",
"928 0 OFFCURVE",
"1070 57 CURVE",
"1070 240 LINE",
"925 164 OFFCURVE",
"799 127 OFFCURVE",
"680 127 CURVE SMOOTH",
"449 127 OFFCURVE",
"316 266 OFFCURVE",
"316 510 CURVE SMOOTH",
"316 516 LINE",
"1113 516 LINE",
"1113 606 LINE SMOOTH",
"1113 717 OFFCURVE",
"1095 814 OFFCURVE",
"1058 895 CURVE SMOOTH",
"984 1058 OFFCURVE",
"841 1147 OFFCURVE",
"645 1147 CURVE SMOOTH",
"542 1147 OFFCURVE",
"451 1123 OFFCURVE",
"372 1074 CURVE SMOOTH",
"215 977 OFFCURVE",
"124 792 OFFCURVE",
"124 555 CURVE SMOOTH",
"124 436 OFFCURVE",
"146 332 OFFCURVE",
"190 244 CURVE SMOOTH",
"278 68 OFFCURVE",
"448 -29 OFFCURVE",
"677 -29 CURVE SMOOTH"
);
},
{
closed = 1;
nodes = (
"346 870 OFFCURVE",
"466 991 OFFCURVE",
"647 991 CURVE SMOOTH",
"826 991 OFFCURVE",
"925 871 OFFCURVE",
"929 660 CURVE",
"323 659 LINE"
);
}
);
width = 1233;
}
);
note = edotaccent;
unicode = 0117;
},
{
glyphname = egrave;
lastChange = "2016-07-20 22:44:41 +0000";
layers = (
{
layerId = "C8600398-8A20-4DEB-92AF-E95853BEE82A";
paths = (
{
closed = 1;
nodes = (
"619 1297 LINE",
"773 1297 LINE",
"492 1673 LINE",
"294 1673 LINE"
);
},
{
closed = 1;
nodes = (
"812 -29 OFFCURVE",
"923 -3 OFFCURVE",
"1070 57 CURVE",
"1070 240 LINE",
"919 163 OFFCURVE",
"803 127 OFFCURVE",
"680 127 CURVE SMOOTH",
"449 127 OFFCURVE",
"316 267 OFFCURVE",
"316 510 CURVE SMOOTH",
"316 516 LINE",
"1113 516 LINE",
"1113 606 LINE SMOOTH",
"1113 945 OFFCURVE",
"938 1147 OFFCURVE",
"649 1147 CURVE SMOOTH",
"496 1147 OFFCURVE",
"363 1094 OFFCURVE",
"267 987 CURVE SMOOTH",
"172 880 OFFCURVE",
"124 737 OFFCURVE",
"124 558 CURVE SMOOTH",
"124 376 OFFCURVE",
"173 232 OFFCURVE",
"271 127 CURVE SMOOTH",
"367 24 OFFCURVE",
"505 -29 OFFCURVE",
"677 -29 CURVE SMOOTH"
);
},
{
closed = 1;
nodes = (
"346 867 OFFCURVE",
"465 991 OFFCURVE",
"645 991 CURVE SMOOTH",
"733 991 OFFCURVE",
"805 963 OFFCURVE",
"853 907 CURVE SMOOTH",
"901 852 OFFCURVE",
"926 769 OFFCURVE",
"929 660 CURVE",
"323 659 LINE"
);
}
);
width = 1233;
}
);
note = egrave;
unicode = 00E8;
},
{
glyphname = emacron;
lastChange = "2016-07-20 22:44:41 +0000";
layers = (
{
layerId = "C8600398-8A20-4DEB-92AF-E95853BEE82A";
paths = (
{
closed = 1;
nodes = (
"353 1348 LINE",
"951 1348 LINE",
"951 1496 LINE",
"353 1496 LINE"
);
},
{
closed = 1;
nodes = (
"797 -29 OFFCURVE",
"928 0 OFFCURVE",
"1070 57 CURVE",
"1070 240 LINE",
"925 164 OFFCURVE",
"799 127 OFFCURVE",
"680 127 CURVE SMOOTH",
"449 127 OFFCURVE",
"316 266 OFFCURVE",
"316 510 CURVE SMOOTH",
"316 516 LINE",
"1113 516 LINE",
"1113 606 LINE SMOOTH",
"1113 717 OFFCURVE",
"1095 814 OFFCURVE",
"1058 895 CURVE SMOOTH",
"984 1058 OFFCURVE",
"841 1147 OFFCURVE",
"645 1147 CURVE SMOOTH",
"542 1147 OFFCURVE",
"451 1123 OFFCURVE",
"372 1074 CURVE SMOOTH",
"215 977 OFFCURVE",
"124 792 OFFCURVE",
"124 555 CURVE SMOOTH",
"124 436 OFFCURVE",
"146 332 OFFCURVE",
"190 244 CURVE SMOOTH",
"278 68 OFFCURVE",
"448 -29 OFFCURVE",
"677 -29 CURVE SMOOTH"
);
},
{
closed = 1;
nodes = (
"346 870 OFFCURVE",
"466 991 OFFCURVE",
"647 991 CURVE SMOOTH",
"826 991 OFFCURVE",
"925 871 OFFCURVE",
"929 660 CURVE",
"323 659 LINE"
);
}
);
width = 1233;
}
);
note = emacron;
unicode = 0113;
},
{
glyphname = eogonek;
lastChange = "2016-07-20 22:44:41 +0000";
layers = (
{
layerId = "C8600398-8A20-4DEB-92AF-E95853BEE82A";
paths = (
{
closed = 1;
nodes = (
"1113 516 LINE",
"1113 606 LINE SMOOTH",
"1113 717 OFFCURVE",
"1095 814 OFFCURVE",
"1058 895 CURVE SMOOTH",
"984 1058 OFFCURVE",
"841 1147 OFFCURVE",
"645 1147 CURVE SMOOTH",
"542 1147 OFFCURVE",
"451 1123 OFFCURVE",
"372 1074 CURVE SMOOTH",
"215 977 OFFCURVE",
"124 792 OFFCURVE",
"124 555 CURVE SMOOTH",
"124 436 OFFCURVE",
"146 332 OFFCURVE",
"190 244 CURVE SMOOTH",
"278 68 OFFCURVE",
"448 -29 OFFCURVE",
"677 -29 CURVE SMOOTH",
"704 -29 OFFCURVE",
"730 -28 OFFCURVE",
"754 -25 CURVE",
"690 -101 OFFCURVE",
"667 -160 OFFCURVE",
"667 -221 CURVE SMOOTH",
"667 -337 OFFCURVE",
"744 -395 OFFCURVE",
"897 -395 CURVE SMOOTH",
"946 -395 OFFCURVE",
"984 -390 OFFCURVE",
"1040 -375 CURVE",
"1040 -242 LINE",
"999 -262 OFFCURVE",
"957 -272 OFFCURVE",
"916 -272 CURVE SMOOTH",
"844 -272 OFFCURVE",
"806 -240 OFFCURVE",
"806 -184 CURVE SMOOTH",
"806 -139 OFFCURVE",
"830 -88 OFFCURVE",
"893 -1 CURVE",
"959 16 OFFCURVE",
"1018 36 OFFCURVE",
"1070 57 CURVE",
"1070 240 LINE",
"925 164 OFFCURVE",
"799 127 OFFCURVE",
"680 127 CURVE SMOOTH",
"449 127 OFFCURVE",
"316 266 OFFCURVE",
"316 510 CURVE SMOOTH",
"316 516 LINE"
);
},
{
closed = 1;
nodes = (
"826 991 OFFCURVE",
"925 871 OFFCURVE",
"929 660 CURVE",
"323 659 LINE",
"346 870 OFFCURVE",
"466 991 OFFCURVE",
"647 991 CURVE SMOOTH"
);
}
);
width = 1233;
}
);
note = eogonek;
unicode = 0119;
},
{
glyphname = f;
lastChange = "2017-05-31 12:26:01 +0000";
layers = (
{
layerId = "C8600398-8A20-4DEB-92AF-E95853BEE82A";
paths = (
{
closed = 1;
nodes = (
"466 0 LINE",
"650 0 LINE",
"650 977 LINE",
"1035 977 LINE",
"1035 1120 LINE",
"650 1120 LINE",
"650 1219 LINE SMOOTH",
"650 1358 OFFCURVE",
"694 1403 OFFCURVE",
"826 1403 CURVE SMOOTH",
"1035 1403 LINE",
"1035 1556 LINE",
"814 1556 LINE SMOOTH",
"695 1556 OFFCURVE",
"607 1527 OFFCURVE",
"551 1469 CURVE SMOOTH",
"494 1412 OFFCURVE",
"466 1322 OFFCURVE",
"466 1198 CURVE SMOOTH",
"466 1120 LINE",
"167 1120 LINE",
"167 977 LINE",
"466 977 LINE"
);
}
);
width = 1233;
}
);
note = f;
unicode = 0066;
},
{
glyphname = g;
lastChange = "2016-07-20 22:44:41 +0000";
layers = (
{
layerId = "C8600398-8A20-4DEB-92AF-E95853BEE82A";
paths = (
{
closed = 1;
nodes = (
"910 -440 OFFCURVE",
"1070 -263 OFFCURVE",
"1070 72 CURVE SMOOTH",
"1070 1116 LINE",
"904 1116 LINE",
"886 971 LINE",
"822 1092 OFFCURVE",
"723 1147 OFFCURVE",
"583 1147 CURVE SMOOTH",
"448 1147 OFFCURVE",
"348 1095 OFFCURVE",
"268 990 CURVE SMOOTH",
"190 885 OFFCURVE",
"151 745 OFFCURVE",
"151 569 CURVE SMOOTH",
"151 220 OFFCURVE",
"319 -8 OFFCURVE",
"582 -8 CURVE SMOOTH",
"726 -8 OFFCURVE",
"827 53 OFFCURVE",
"886 178 CURVE",
"886 45 LINE SMOOTH",
"886 -72 OFFCURVE",
"863 -158 OFFCURVE",
"818 -211 CURVE SMOOTH",
"771 -267 OFFCURVE",
"704 -293 OFFCURVE",
"605 -293 CURVE SMOOTH",
"505 -293 OFFCURVE",
"391 -258 OFFCURVE",
"276 -203 CURVE",
"276 -385 LINE",
"392 -422 OFFCURVE",
"505 -440 OFFCURVE",
"601 -440 CURVE SMOOTH"
);
},
{
closed = 1;
nodes = (
"445 145 OFFCURVE",
"345 296 OFFCURVE",
"345 568 CURVE SMOOTH",
"345 847 OFFCURVE",
"442 991 OFFCURVE",
"621 991 CURVE SMOOTH",
"797 991 OFFCURVE",
"886 848 OFFCURVE",
"886 569 CURVE SMOOTH",
"886 294 OFFCURVE",
"795 145 OFFCURVE",
"622 145 CURVE SMOOTH"
);
}
);
width = 1233;
}
);
note = g;
unicode = 0067;
},
{
glyphname = gbreve;
lastChange = "2016-07-20 22:44:41 +0000";
layers = (
{
layerId = "C8600398-8A20-4DEB-92AF-E95853BEE82A";
paths = (
{
closed = 1;
nodes = (
"837 1298 OFFCURVE",
"943 1394 OFFCURVE",
"958 1585 CURVE",
"839 1585 LINE",
"820 1484 OFFCURVE",
"760 1435 OFFCURVE",
"644 1435 CURVE SMOOTH",
"525 1435 OFFCURVE",
"465 1484 OFFCURVE",
"450 1585 CURVE",
"331 1585 LINE",
"346 1394 OFFCURVE",
"452 1298 OFFCURVE",
"644 1298 CURVE SMOOTH"
);
},
{
closed = 1;
nodes = (
"910 -440 OFFCURVE",
"1070 -263 OFFCURVE",
"1070 72 CURVE SMOOTH",
"1070 1116 LINE",
"904 1116 LINE",
"886 971 LINE",
"822 1092 OFFCURVE",
"723 1147 OFFCURVE",
"583 1147 CURVE SMOOTH",
"448 1147 OFFCURVE",
"348 1095 OFFCURVE",
"268 990 CURVE SMOOTH",
"190 885 OFFCURVE",
"151 745 OFFCURVE",
"151 569 CURVE SMOOTH",
"151 220 OFFCURVE",
"319 -8 OFFCURVE",
"582 -8 CURVE SMOOTH",
"726 -8 OFFCURVE",
"827 53 OFFCURVE",
"886 178 CURVE",
"886 45 LINE SMOOTH",
"886 -76 OFFCURVE",
"863 -156 OFFCURVE",
"818 -211 CURVE SMOOTH",
"771 -267 OFFCURVE",
"704 -293 OFFCURVE",
"605 -293 CURVE SMOOTH",
"505 -293 OFFCURVE",
"391 -258 OFFCURVE",
"276 -203 CURVE",
"276 -385 LINE",
"392 -422 OFFCURVE",
"505 -440 OFFCURVE",
"601 -440 CURVE SMOOTH"
);
},
{
closed = 1;
nodes = (
"445 145 OFFCURVE",
"345 296 OFFCURVE",
"345 568 CURVE SMOOTH",
"345 847 OFFCURVE",
"442 991 OFFCURVE",
"621 991 CURVE SMOOTH",
"797 991 OFFCURVE",
"886 848 OFFCURVE",
"886 569 CURVE SMOOTH",
"886 294 OFFCURVE",
"795 145 OFFCURVE",
"622 145 CURVE SMOOTH"
);
}
);
width = 1233;
}
);
note = gbreve;
unicode = 011F;
},
{
glyphname = gcaron;
lastChange = "2016-07-20 22:44:41 +0000";
layers = (
{
layerId = "C8600398-8A20-4DEB-92AF-E95853BEE82A";
paths = (
{
closed = 1;
nodes = (
"571 1297 LINE",
"718 1297 LINE",
"964 1673 LINE",
"825 1673 LINE",
"644 1428 LINE",
"464 1673 LINE",
"325 1673 LINE"
);
},
{
closed = 1;
nodes = (
"910 -440 OFFCURVE",
"1070 -267 OFFCURVE",
"1070 72 CURVE SMOOTH",
"1070 1116 LINE",
"904 1116 LINE",
"886 971 LINE",
"826 1088 OFFCURVE",
"726 1147 OFFCURVE",
"586 1147 CURVE SMOOTH",
"497 1147 OFFCURVE",
"420 1123 OFFCURVE",
"355 1076 CURVE SMOOTH",
"223 981 OFFCURVE",
"151 802 OFFCURVE",
"151 570 CURVE SMOOTH",
"151 453 OFFCURVE",
"169 352 OFFCURVE",
"204 265 CURVE SMOOTH",
"275 91 OFFCURVE",
"409 -8 OFFCURVE",
"585 -8 CURVE SMOOTH",
"728 -8 OFFCURVE",
"829 54 OFFCURVE",
"886 178 CURVE",
"886 45 LINE SMOOTH",
"886 -187 OFFCURVE",
"799 -293 OFFCURVE",
"607 -293 CURVE SMOOTH",
"510 -293 OFFCURVE",
"412 -266 OFFCURVE",
"276 -203 CURVE",
"276 -385 LINE",
"390 -422 OFFCURVE",
"498 -440 OFFCURVE",
"601 -440 CURVE SMOOTH"
);
},
{
closed = 1;
nodes = (
"443 145 OFFCURVE",
"345 293 OFFCURVE",
"345 570 CURVE SMOOTH",
"345 846 OFFCURVE",
"442 991 OFFCURVE",
"619 991 CURVE SMOOTH",
"795 991 OFFCURVE",
"886 846 OFFCURVE",
"886 569 CURVE SMOOTH",
"886 292 OFFCURVE",
"796 145 OFFCURVE",
"620 145 CURVE SMOOTH"
);
}
);
width = 1233;
}
);
note = gcaron;
unicode = 01E7;
},
{
glyphname = uni0123;
lastChange = "2016-07-20 22:44:41 +0000";
layers = (
{
layerId = "C8600398-8A20-4DEB-92AF-E95853BEE82A";
paths = (
{
closed = 1;
nodes = (
"514 1297 LINE",
"753 1297 LINE",
"847 1642 LINE",
"701 1642 LINE"
);
},
{
closed = 1;
nodes = (
"910 -440 OFFCURVE",
"1070 -267 OFFCURVE",
"1070 72 CURVE SMOOTH",
"1070 1116 LINE",
"904 1116 LINE",
"886 971 LINE",
"826 1088 OFFCURVE",
"726 1147 OFFCURVE",
"586 1147 CURVE SMOOTH",
"497 1147 OFFCURVE",
"420 1123 OFFCURVE",
"355 1076 CURVE SMOOTH",
"223 981 OFFCURVE",
"151 802 OFFCURVE",
"151 570 CURVE SMOOTH",
"151 453 OFFCURVE",
"169 352 OFFCURVE",
"204 265 CURVE SMOOTH",
"275 91 OFFCURVE",
"409 -8 OFFCURVE",
"585 -8 CURVE SMOOTH",
"728 -8 OFFCURVE",
"829 54 OFFCURVE",
"886 178 CURVE",
"886 45 LINE SMOOTH",
"886 -187 OFFCURVE",
"799 -293 OFFCURVE",
"607 -293 CURVE SMOOTH",
"510 -293 OFFCURVE",
"412 -266 OFFCURVE",
"276 -203 CURVE",
"276 -385 LINE",
"390 -422 OFFCURVE",
"498 -440 OFFCURVE",
"601 -440 CURVE SMOOTH"
);
},
{
closed = 1;
nodes = (
"443 145 OFFCURVE",
"345 293 OFFCURVE",
"345 570 CURVE SMOOTH",
"345 846 OFFCURVE",
"442 991 OFFCURVE",
"619 991 CURVE SMOOTH",
"795 991 OFFCURVE",
"886 846 OFFCURVE",
"886 569 CURVE SMOOTH",
"886 292 OFFCURVE",
"796 145 OFFCURVE",
"620 145 CURVE SMOOTH"
);
}
);
width = 1233;
}
);
note = uni0123;
unicode = 0123;
},
{
glyphname = gdotaccent;
lastChange = "2016-07-20 22:44:41 +0000";
layers = (
{
layerId = "C8600398-8A20-4DEB-92AF-E95853BEE82A";
paths = (
{
closed = 1;
nodes = (
"736 1348 OFFCURVE",
"746 1358 OFFCURVE",
"746 1378 CURVE SMOOTH",
"746 1522 LINE SMOOTH",
"746 1542 OFFCURVE",
"736 1552 OFFCURVE",
"716 1552 CURVE SMOOTH",
"571 1552 LINE SMOOTH",
"551 1552 OFFCURVE",
"541 1542 OFFCURVE",
"541 1522 CURVE SMOOTH",
"541 1378 LINE SMOOTH",
"541 1358 OFFCURVE",
"551 1348 OFFCURVE",
"571 1348 CURVE SMOOTH",
"716 1348 LINE SMOOTH"
);
},
{
closed = 1;
nodes = (
"910 -440 OFFCURVE",
"1070 -267 OFFCURVE",
"1070 72 CURVE SMOOTH",
"1070 1116 LINE",
"904 1116 LINE",
"886 971 LINE",
"826 1088 OFFCURVE",
"726 1147 OFFCURVE",
"586 1147 CURVE SMOOTH",
"497 1147 OFFCURVE",
"420 1123 OFFCURVE",
"355 1076 CURVE SMOOTH",
"223 981 OFFCURVE",
"151 802 OFFCURVE",
"151 570 CURVE SMOOTH",
"151 453 OFFCURVE",
"169 352 OFFCURVE",
"204 265 CURVE SMOOTH",
"275 91 OFFCURVE",
"409 -8 OFFCURVE",
"585 -8 CURVE SMOOTH",
"728 -8 OFFCURVE",
"829 54 OFFCURVE",
"886 178 CURVE",
"886 45 LINE SMOOTH",
"886 -187 OFFCURVE",
"799 -293 OFFCURVE",
"607 -293 CURVE SMOOTH",
"510 -293 OFFCURVE",
"412 -266 OFFCURVE",
"276 -203 CURVE",
"276 -385 LINE",
"390 -422 OFFCURVE",
"498 -440 OFFCURVE",
"601 -440 CURVE SMOOTH"
);
},
{
closed = 1;
nodes = (
"443 145 OFFCURVE",
"345 293 OFFCURVE",
"345 570 CURVE SMOOTH",
"345 846 OFFCURVE",
"442 991 OFFCURVE",
"619 991 CURVE SMOOTH",
"795 991 OFFCURVE",
"886 846 OFFCURVE",
"886 569 CURVE SMOOTH",
"886 292 OFFCURVE",
"796 145 OFFCURVE",
"620 145 CURVE SMOOTH"
);
}
);
width = 1233;
}
);
note = gdotaccent;
unicode = 0121;
},
{
glyphname = h;
lastChange = "2016-07-20 22:44:41 +0000";
layers = (
{
layerId = "C8600398-8A20-4DEB-92AF-E95853BEE82A";
paths = (
{
closed = 1;
nodes = (
"195 0 LINE",
"379 0 LINE",
"379 633 LINE SMOOTH",
"379 862 OFFCURVE",
"474 987 OFFCURVE",
"646 987 CURVE SMOOTH",
"798 987 OFFCURVE",
"866 895 OFFCURVE",
"866 694 CURVE SMOOTH",
"866 0 LINE",
"1051 0 LINE",
"1051 694 LINE SMOOTH",
"1051 846 OFFCURVE",
"1023 960 OFFCURVE",
"967 1035 CURVE SMOOTH",
"910 1110 OFFCURVE",
"824 1147 OFFCURVE",
"710 1147 CURVE SMOOTH",
"555 1147 OFFCURVE",
"443 1079 OFFCURVE",
"379 952 CURVE",
"379 1556 LINE",
"195 1556 LINE"
);
}
);
width = 1233;
}
);
note = h;
unicode = 0068;
},
{
glyphname = hbar;
lastChange = "2016-07-20 22:44:41 +0000";
layers = (
{
layerId = "C8600398-8A20-4DEB-92AF-E95853BEE82A";
paths = (
{
closed = 1;
nodes = (
"195 0 LINE",
"379 0 LINE",
"379 633 LINE SMOOTH",
"379 862 OFFCURVE",
"473 987 OFFCURVE",
"648 987 CURVE SMOOTH",
"799 987 OFFCURVE",
"866 895 OFFCURVE",
"866 694 CURVE SMOOTH",
"866 0 LINE",
"1051 0 LINE",
"1051 694 LINE SMOOTH",
"1051 999 OFFCURVE",
"940 1147 OFFCURVE",
"711 1147 CURVE SMOOTH",
"558 1147 OFFCURVE",
"444 1080 OFFCURVE",
"379 952 CURVE",
"379 1270 LINE",
"732 1270 LINE",
"732 1434 LINE",
"379 1434 LINE",
"379 1556 LINE",
"195 1556 LINE",
"195 1434 LINE",
"70 1434 LINE",
"70 1270 LINE",
"195 1270 LINE"
);
}
);
width = 1233;
}
);
note = hbar;
unicode = 0127;
},
{
glyphname = i;
lastChange = "2016-07-20 22:44:41 +0000";
layers = (
{
layerId = "C8600398-8A20-4DEB-92AF-E95853BEE82A";
paths = (
{
closed = 1;
nodes = (
"687 1323 OFFCURVE",
"697 1333 OFFCURVE",
"697 1353 CURVE SMOOTH",
"697 1526 LINE SMOOTH",
"697 1546 OFFCURVE",
"687 1556 OFFCURVE",
"667 1556 CURVE SMOOTH",
"523 1556 LINE SMOOTH",
"503 1556 OFFCURVE",
"493 1546 OFFCURVE",
"493 1526 CURVE SMOOTH",
"493 1353 LINE SMOOTH",
"493 1333 OFFCURVE",
"503 1323 OFFCURVE",
"523 1323 CURVE SMOOTH",
"667 1323 LINE SMOOTH"
);
},
{
closed = 1;
nodes = (
"1092 148 LINE",
"877 148 LINE SMOOTH",
"760 148 OFFCURVE",
"697 230 OFFCURVE",
"697 398 CURVE SMOOTH",
"697 1120 LINE",
"268 1120 LINE",
"268 976 LINE",
"513 976 LINE",
"513 398 LINE SMOOTH",
"513 269 OFFCURVE",
"543 169 OFFCURVE",
"604 98 CURVE SMOOTH",
"667 25 OFFCURVE",
"750 -8 OFFCURVE",
"859 -8 CURVE SMOOTH",
"1092 -8 LINE"
);
}
);
width = 1233;
}
);
note = i;
unicode = 0069;
},
{
glyphname = dotlessi;
lastChange = "2016-07-20 22:44:41 +0000";
layers = (
{
layerId = "C8600398-8A20-4DEB-92AF-E95853BEE82A";
paths = (
{
closed = 1;
nodes = (
"1092 148 LINE",
"877 148 LINE SMOOTH",
"760 148 OFFCURVE",
"697 230 OFFCURVE",
"697 398 CURVE SMOOTH",
"697 1120 LINE",
"268 1120 LINE",
"268 976 LINE",
"513 976 LINE",
"513 398 LINE SMOOTH",
"513 269 OFFCURVE",
"543 169 OFFCURVE",
"604 98 CURVE SMOOTH",
"667 25 OFFCURVE",
"750 -8 OFFCURVE",
"859 -8 CURVE SMOOTH",
"1092 -8 LINE"
);
}
);
width = 1233;
}
);
note = dotlessi;
unicode = 0131;
},
{
glyphname = iacute;
lastChange = "2016-07-20 22:44:41 +0000";
layers = (
{
layerId = "C8600398-8A20-4DEB-92AF-E95853BEE82A";
paths = (
{
closed = 1;
nodes = (
"513 1271 LINE",
"667 1271 LINE",
"992 1647 LINE",
"794 1647 LINE"
);
},
{
closed = 1;
nodes = (
"1092 148 LINE",
"877 148 LINE SMOOTH",
"760 148 OFFCURVE",
"697 230 OFFCURVE",
"697 398 CURVE SMOOTH",
"697 1120 LINE",
"268 1120 LINE",
"268 976 LINE",
"513 976 LINE",
"513 398 LINE SMOOTH",
"513 269 OFFCURVE",
"543 169 OFFCURVE",
"604 98 CURVE SMOOTH",
"667 25 OFFCURVE",
"750 -8 OFFCURVE",
"859 -8 CURVE SMOOTH",
"1092 -8 LINE"
);
}
);
width = 1233;
}
);
note = iacute;
unicode = 00ED;
},
{
glyphname = icircumflex;
lastChange = "2016-07-20 22:44:41 +0000";
layers = (
{
layerId = "C8600398-8A20-4DEB-92AF-E95853BEE82A";
paths = (
{
closed = 1;
nodes = (
"268 1272 LINE",
"407 1272 LINE",
"587 1517 LINE",
"768 1272 LINE",
"907 1272 LINE",
"661 1648 LINE",
"514 1648 LINE"
);
},
{
closed = 1;
nodes = (
"1092 148 LINE",
"877 148 LINE SMOOTH",
"760 148 OFFCURVE",
"697 230 OFFCURVE",
"697 398 CURVE SMOOTH",
"697 1120 LINE",
"268 1120 LINE",
"268 976 LINE",
"513 976 LINE",
"513 398 LINE SMOOTH",
"513 269 OFFCURVE",
"543 169 OFFCURVE",
"604 98 CURVE SMOOTH",
"667 25 OFFCURVE",
"750 -8 OFFCURVE",
"859 -8 CURVE SMOOTH",
"1092 -8 LINE"
);
}
);
width = 1233;
}
);
note = icircumflex;
unicode = 00EE;
},
{
glyphname = idieresis;
lastChange = "2016-07-20 22:44:41 +0000";
layers = (
{
layerId = "C8600398-8A20-4DEB-92AF-E95853BEE82A";
paths = (
{
closed = 1;
nodes = (
"491 1350 OFFCURVE",
"501 1360 OFFCURVE",
"501 1380 CURVE SMOOTH",
"501 1522 LINE SMOOTH",
"501 1542 OFFCURVE",
"491 1552 OFFCURVE",
"471 1552 CURVE SMOOTH",
"328 1552 LINE SMOOTH",
"308 1552 OFFCURVE",
"298 1542 OFFCURVE",
"298 1522 CURVE SMOOTH",
"298 1380 LINE SMOOTH",
"298 1360 OFFCURVE",
"308 1350 OFFCURVE",
"328 1350 CURVE SMOOTH",
"471 1350 LINE SMOOTH"
);
},
{
closed = 1;
nodes = (
"882 1350 OFFCURVE",
"892 1360 OFFCURVE",
"892 1380 CURVE SMOOTH",
"892 1522 LINE SMOOTH",
"892 1542 OFFCURVE",
"882 1552 OFFCURVE",
"862 1552 CURVE SMOOTH",
"720 1552 LINE SMOOTH",
"700 1552 OFFCURVE",
"690 1542 OFFCURVE",
"690 1522 CURVE SMOOTH",
"690 1380 LINE SMOOTH",
"690 1360 OFFCURVE",
"700 1350 OFFCURVE",
"720 1350 CURVE SMOOTH",
"862 1350 LINE SMOOTH"
);
},
{
closed = 1;
nodes = (
"1092 148 LINE",
"877 148 LINE SMOOTH",
"760 148 OFFCURVE",
"697 230 OFFCURVE",
"697 398 CURVE SMOOTH",
"697 1120 LINE",
"268 1120 LINE",
"268 976 LINE",
"513 976 LINE",
"513 398 LINE SMOOTH",
"513 269 OFFCURVE",
"543 169 OFFCURVE",
"604 98 CURVE SMOOTH",
"667 25 OFFCURVE",
"750 -8 OFFCURVE",
"859 -8 CURVE SMOOTH",
"1092 -8 LINE"
);
}
);
width = 1233;
}
);
note = idieresis;
unicode = 00EF;
},
{
glyphname = igrave;
lastChange = "2016-07-20 22:44:41 +0000";
layers = (
{
layerId = "C8600398-8A20-4DEB-92AF-E95853BEE82A";
paths = (
{
closed = 1;
nodes = (
"543 1271 LINE",
"697 1271 LINE",
"416 1647 LINE",
"218 1647 LINE"
);
},
{
closed = 1;
nodes = (
"1092 148 LINE",
"877 148 LINE SMOOTH",
"760 148 OFFCURVE",
"697 230 OFFCURVE",
"697 398 CURVE SMOOTH",
"697 1120 LINE",
"268 1120 LINE",
"268 976 LINE",
"513 976 LINE",
"513 398 LINE SMOOTH",
"513 269 OFFCURVE",
"543 169 OFFCURVE",
"604 98 CURVE SMOOTH",
"667 25 OFFCURVE",
"750 -8 OFFCURVE",
"859 -8 CURVE SMOOTH",
"1092 -8 LINE"
);
}
);
width = 1233;
}
);
note = igrave;
unicode = 00EC;
},
{
glyphname = imacron;
lastChange = "2016-07-20 22:44:41 +0000";
layers = (
{
layerId = "C8600398-8A20-4DEB-92AF-E95853BEE82A";
paths = (
{
closed = 1;
nodes = (
"268 1320 LINE",
"866 1320 LINE",
"866 1468 LINE",
"268 1468 LINE"
);
},
{
closed = 1;
nodes = (
"1092 148 LINE",
"877 148 LINE SMOOTH",
"760 148 OFFCURVE",
"697 230 OFFCURVE",
"697 398 CURVE SMOOTH",
"697 1120 LINE",
"268 1120 LINE",
"268 976 LINE",
"513 976 LINE",
"513 398 LINE SMOOTH",
"513 269 OFFCURVE",
"543 169 OFFCURVE",
"604 98 CURVE SMOOTH",
"667 25 OFFCURVE",
"750 -8 OFFCURVE",
"859 -8 CURVE SMOOTH",
"1092 -8 LINE"
);
}
);
width = 1233;
}
);
note = imacron;
unicode = 012B;
},
{
glyphname = iogonek;
lastChange = "2016-07-20 22:44:41 +0000";
layers = (
{
layerId = "C8600398-8A20-4DEB-92AF-E95853BEE82A";
paths = (
{
closed = 1;
nodes = (
"686 1323 OFFCURVE",
"697 1333 OFFCURVE",
"697 1353 CURVE SMOOTH",
"697 1526 LINE SMOOTH",
"697 1546 OFFCURVE",
"686 1556 OFFCURVE",
"664 1556 CURVE SMOOTH",
"526 1556 LINE SMOOTH",
"504 1556 OFFCURVE",
"493 1546 OFFCURVE",
"493 1526 CURVE SMOOTH",
"493 1353 LINE SMOOTH",
"493 1333 OFFCURVE",
"504 1323 OFFCURVE",
"526 1323 CURVE SMOOTH",
"664 1323 LINE SMOOTH"
);
},
{
closed = 1;
nodes = (
"900 -261 OFFCURVE",
"862 -229 OFFCURVE",
"862 -173 CURVE SMOOTH",
"862 -130 OFFCURVE",
"883 -84 OFFCURVE",
"936 -8 CURVE",
"1092 -8 LINE",
"1092 148 LINE",
"877 148 LINE SMOOTH",
"760 148 OFFCURVE",
"697 230 OFFCURVE",
"697 398 CURVE SMOOTH",
"697 1120 LINE",
"268 1120 LINE",
"268 976 LINE",
"513 976 LINE",
"513 398 LINE SMOOTH",
"513 139 OFFCURVE",
"639 10 OFFCURVE",
"816 -6 CURVE",
"747 -90 OFFCURVE",
"723 -146 OFFCURVE",
"723 -210 CURVE SMOOTH",
"723 -326 OFFCURVE",
"800 -384 OFFCURVE",
"953 -384 CURVE SMOOTH",
"1002 -384 OFFCURVE",
"1040 -379 OFFCURVE",
"1096 -364 CURVE",
"1096 -231 LINE",
"1055 -251 OFFCURVE",
"1014 -261 OFFCURVE",
"972 -261 CURVE SMOOTH"
);
}
);
width = 1233;
}
);
note = iogonek;
unicode = 012F;
},
{
glyphname = itilde;
lastChange = "2016-07-20 22:44:41 +0000";
layers = (
{
layerId = "C8600398-8A20-4DEB-92AF-E95853BEE82A";
paths = (
{
closed = 1;
nodes = (
"393 1313 OFFCURVE",
"400 1352 OFFCURVE",
"412 1377 CURVE SMOOTH",
"424 1402 OFFCURVE",
"442 1414 OFFCURVE",
"466 1414 CURVE SMOOTH",
"489 1414 OFFCURVE",
"507 1403 OFFCURVE",
"536 1375 CURVE SMOOTH",
"593 1320 LINE",
"642 1276 OFFCURVE",
"681 1259 OFFCURVE",
"732 1259 CURVE SMOOTH",
"856 1259 OFFCURVE",
"927 1365 OFFCURVE",
"927 1541 CURVE",
"802 1541 LINE",
"801 1488 OFFCURVE",
"795 1448 OFFCURVE",
"783 1423 CURVE SMOOTH",
"771 1398 OFFCURVE",
"753 1386 OFFCURVE",
"729 1386 CURVE SMOOTH",
"709 1386 OFFCURVE",
"690 1396 OFFCURVE",
"659 1425 CURVE SMOOTH",
"602 1480 LINE",
"553 1524 OFFCURVE",
"514 1541 OFFCURVE",
"463 1541 CURVE SMOOTH",
"339 1541 OFFCURVE",
"268 1435 OFFCURVE",
"268 1259 CURVE",
"392 1259 LINE"
);
},
{
closed = 1;
nodes = (
"1092 148 LINE",
"877 148 LINE SMOOTH",
"760 148 OFFCURVE",
"697 230 OFFCURVE",
"697 398 CURVE SMOOTH",
"697 1120 LINE",
"268 1120 LINE",
"268 976 LINE",
"513 976 LINE",
"513 398 LINE SMOOTH",
"513 269 OFFCURVE",
"543 169 OFFCURVE",
"604 98 CURVE SMOOTH",
"667 25 OFFCURVE",
"750 -8 OFFCURVE",
"859 -8 CURVE SMOOTH",
"1092 -8 LINE"
);
}
);
width = 1233;
}
);
note = itilde;
unicode = 0129;
},
{
glyphname = j;
lastChange = "2016-07-20 22:44:41 +0000";
layers = (
{
layerId = "C8600398-8A20-4DEB-92AF-E95853BEE82A";
paths = (
{
closed = 1;
nodes = (
"816 1323 OFFCURVE",
"826 1333 OFFCURVE",
"826 1353 CURVE SMOOTH",
"826 1526 LINE SMOOTH",
"826 1546 OFFCURVE",
"816 1556 OFFCURVE",
"796 1556 CURVE SMOOTH",
"652 1556 LINE SMOOTH",
"632 1556 OFFCURVE",
"622 1546 OFFCURVE",
"622 1526 CURVE SMOOTH",
"622 1353 LINE SMOOTH",
"622 1333 OFFCURVE",
"632 1323 OFFCURVE",
"652 1323 CURVE SMOOTH",
"796 1323 LINE SMOOTH"
);
},
{
closed = 1;
nodes = (
"238 -426 LINE",
"492 -426 LINE SMOOTH",
"716 -426 OFFCURVE",
"836 -279 OFFCURVE",
"836 -20 CURVE SMOOTH",
"836 1120 LINE",
"335 1120 LINE",
"335 977 LINE",
"652 977 LINE",
"652 -20 LINE SMOOTH",
"652 -187 OFFCURVE",
"592 -270 OFFCURVE",
"472 -270 CURVE SMOOTH",
"238 -270 LINE"
);
}
);
width = 1233;
}
);
note = j;
unicode = 006A;
},
{
glyphname = k;
lastChange = "2016-07-20 22:44:41 +0000";
layers = (
{
layerId = "C8600398-8A20-4DEB-92AF-E95853BEE82A";
paths = (
{
closed = 1;
nodes = (
"226 0 LINE",
"416 0 LINE",
"416 449 LINE",
"553 578 LINE",
"967 0 LINE",
"1192 0 LINE",
"682 698 LINE",
"1123 1120 LINE",
"899 1120 LINE",
"416 655 LINE",
"416 1556 LINE",
"226 1556 LINE"
);
}
);
width = 1233;
}
);
note = k;
unicode = 006B;
},
{
glyphname = uni0137;
lastChange = "2016-07-20 22:44:41 +0000";
layers = (
{
layerId = "C8600398-8A20-4DEB-92AF-E95853BEE82A";
paths = (
{
closed = 1;
nodes = (
"226 0 LINE",
"416 0 LINE",
"416 449 LINE",
"553 578 LINE",
"967 0 LINE",
"1192 0 LINE",
"682 698 LINE",
"1123 1120 LINE",
"899 1120 LINE",
"416 655 LINE",
"416 1556 LINE",
"226 1556 LINE"
);
},
{
closed = 1;
nodes = (
"532 -544 LINE",
"678 -544 LINE",
"865 -199 LINE",
"626 -199 LINE"
);
}
);
width = 1233;
}
);
note = uni0137;
unicode = 0137;
},
{
glyphname = l;
lastChange = "2016-07-20 22:44:41 +0000";
layers = (
{
layerId = "C8600398-8A20-4DEB-92AF-E95853BEE82A";
paths = (
{
closed = 1;
nodes = (
"1054 148 LINE",
"839 148 LINE SMOOTH",
"722 148 OFFCURVE",
"659 230 OFFCURVE",
"659 398 CURVE SMOOTH",
"659 1556 LINE",
"180 1556 LINE",
"180 1412 LINE",
"475 1412 LINE",
"475 398 LINE SMOOTH",
"475 269 OFFCURVE",
"505 169 OFFCURVE",
"566 98 CURVE SMOOTH",
"629 25 OFFCURVE",
"712 -8 OFFCURVE",
"821 -8 CURVE SMOOTH",
"1054 -8 LINE"
);
}
);
width = 1233;
}
);
note = l;
unicode = 006C;
},
{
glyphname = lacute;
lastChange = "2016-07-20 22:44:41 +0000";
layers = (
{
layerId = "C8600398-8A20-4DEB-92AF-E95853BEE82A";
paths = (
{
closed = 1;
nodes = (
"380 1616 LINE",
"534 1616 LINE",
"763 1880 LINE",
"577 1880 LINE"
);
},
{
closed = 1;
nodes = (
"1034 148 LINE",
"819 148 LINE SMOOTH",
"699 148 OFFCURVE",
"639 231 OFFCURVE",
"639 398 CURVE SMOOTH",
"639 1556 LINE",
"160 1556 LINE",
"160 1412 LINE",
"455 1412 LINE",
"455 398 LINE SMOOTH",
"455 138 OFFCURVE",
"580 -8 OFFCURVE",
"801 -8 CURVE SMOOTH",
"1034 -8 LINE"
);
}
);
width = 1233;
}
);
note = lacute;
unicode = 013A;
},
{
glyphname = lcaron;
lastChange = "2016-07-20 22:44:41 +0000";
layers = (
{
layerId = "C8600398-8A20-4DEB-92AF-E95853BEE82A";
paths = (
{
closed = 1;
nodes = (
"1034 148 LINE",
"819 148 LINE SMOOTH",
"699 148 OFFCURVE",
"639 231 OFFCURVE",
"639 398 CURVE SMOOTH",
"639 1556 LINE",
"160 1556 LINE",
"160 1412 LINE",
"455 1412 LINE",
"455 398 LINE SMOOTH",
"455 138 OFFCURVE",
"580 -8 OFFCURVE",
"801 -8 CURVE SMOOTH",
"1034 -8 LINE"
);
},
{
closed = 1;
nodes = (
"890 1180 LINE",
"1044 1180 LINE",
"1157 1556 LINE",
"959 1556 LINE"
);
}
);
width = 1233;
}
);
note = lcaron;
unicode = 013E;
},
{
glyphname = uni013C;
lastChange = "2016-07-20 22:44:41 +0000";
layers = (
{
layerId = "C8600398-8A20-4DEB-92AF-E95853BEE82A";
paths = (
{
closed = 1;
nodes = (
"1034 148 LINE",
"819 148 LINE SMOOTH",
"699 148 OFFCURVE",
"639 231 OFFCURVE",
"639 398 CURVE SMOOTH",
"639 1556 LINE",
"160 1556 LINE",
"160 1412 LINE",
"455 1412 LINE",
"455 398 LINE SMOOTH",
"455 138 OFFCURVE",
"580 -8 OFFCURVE",
"801 -8 CURVE SMOOTH",
"1034 -8 LINE"
);
},
{
closed = 1;
nodes = (
"403 -544 LINE",
"549 -544 LINE",
"736 -199 LINE",
"497 -199 LINE"
);
}
);
width = 1233;
}
);
note = uni013C;
unicode = 013C;
},
{
glyphname = lslash;
lastChange = "2016-07-20 22:44:41 +0000";
layers = (
{
layerId = "C8600398-8A20-4DEB-92AF-E95853BEE82A";
paths = (
{
closed = 1;
nodes = (
"1034 148 LINE",
"819 148 LINE SMOOTH",
"702 148 OFFCURVE",
"639 230 OFFCURVE",
"639 398 CURVE SMOOTH",
"639 815 LINE",
"1034 1090 LINE",
"954 1200 LINE",
"639 981 LINE",
"639 1556 LINE",
"160 1556 LINE",
"160 1412 LINE",
"455 1412 LINE",
"455 856 LINE",
"76 592 LINE",
"156 481 LINE",
"455 690 LINE",
"455 398 LINE SMOOTH",
"455 269 OFFCURVE",
"485 169 OFFCURVE",
"546 98 CURVE SMOOTH",
"609 25 OFFCURVE",
"692 -8 OFFCURVE",
"801 -8 CURVE SMOOTH",
"1034 -8 LINE"
);
}
);
width = 1233;
}
);
note = lslash;
unicode = 0142;
},
{
glyphname = m;
lastChange = "2016-07-20 22:44:41 +0000";
layers = (
{
layerId = "C8600398-8A20-4DEB-92AF-E95853BEE82A";
paths = (
{
closed = 1;
nodes = (
"109 0 LINE",
"276 0 LINE",
"276 641 LINE SMOOTH",
"276 725 OFFCURVE",
"279 789 OFFCURVE",
"284 834 CURVE SMOOTH",
"294 923 OFFCURVE",
"308 993 OFFCURVE",
"407 993 CURVE SMOOTH",
"506 993 OFFCURVE",
"520 929 OFFCURVE",
"530 842 CURVE SMOOTH",
"535 798 OFFCURVE",
"537 731 OFFCURVE",
"537 641 CURVE SMOOTH",
"537 0 LINE",
"705 0 LINE",
"705 641 LINE SMOOTH",
"705 722 OFFCURVE",
"707 785 OFFCURVE",
"712 830 CURVE SMOOTH",
"717 875 OFFCURVE",
"725 909 OFFCURVE",
"736 932 CURVE SMOOTH",
"756 975 OFFCURVE",
"789 993 OFFCURVE",
"841 993 CURVE SMOOTH",
"894 993 OFFCURVE",
"924 973 OFFCURVE",
"940 936 CURVE SMOOTH",
"949 915 OFFCURVE",
"956 882 OFFCURVE",
"961 836 CURVE SMOOTH",
"965 790 OFFCURVE",
"967 725 OFFCURVE",
"967 641 CURVE SMOOTH",
"967 0 LINE",
"1135 0 LINE",
"1135 649 LINE SMOOTH",
"1135 843 OFFCURVE",
"1117 974 OFFCURVE",
"1080 1043 CURVE SMOOTH",
"1044 1112 OFFCURVE",
"980 1147 OFFCURVE",
"889 1147 CURVE SMOOTH",
"790 1147 OFFCURVE",
"721 1102 OFFCURVE",
"676 1006 CURVE",
"639 1101 OFFCURVE",
"569 1147 OFFCURVE",
"472 1147 CURVE SMOOTH",
"387 1147 OFFCURVE",
"320 1104 OFFCURVE",
"276 1024 CURVE",
"260 1120 LINE",
"109 1120 LINE"
);
}
);
width = 1233;
}
);
note = m;
unicode = 006D;
},
{
glyphname = n;
lastChange = "2016-07-20 22:44:41 +0000";
layers = (
{
layerId = "C8600398-8A20-4DEB-92AF-E95853BEE82A";
paths = (
{
closed = 1;
nodes = (
"195 0 LINE",
"379 0 LINE",
"379 633 LINE SMOOTH",
"379 862 OFFCURVE",
"474 987 OFFCURVE",
"646 987 CURVE SMOOTH",
"798 987 OFFCURVE",
"866 895 OFFCURVE",
"866 694 CURVE SMOOTH",
"866 0 LINE",
"1051 0 LINE",
"1051 694 LINE SMOOTH",
"1051 846 OFFCURVE",
"1023 960 OFFCURVE",
"967 1035 CURVE SMOOTH",
"910 1110 OFFCURVE",
"824 1147 OFFCURVE",
"710 1147 CURVE SMOOTH",
"555 1147 OFFCURVE",
"443 1079 OFFCURVE",
"379 952 CURVE",
"361 1120 LINE",
"195 1120 LINE"
);
}
);
width = 1233;
}
);
note = n;
unicode = 006E;
},
{
glyphname = nacute;
lastChange = "2016-07-20 22:44:41 +0000";
layers = (
{
layerId = "C8600398-8A20-4DEB-92AF-E95853BEE82A";
paths = (
{
closed = 1;
nodes = (
"495 1297 LINE",
"649 1297 LINE",
"974 1673 LINE",
"776 1673 LINE"
);
},
{
closed = 1;
nodes = (
"195 0 LINE",
"379 0 LINE",
"379 633 LINE SMOOTH",
"379 862 OFFCURVE",
"473 987 OFFCURVE",
"648 987 CURVE SMOOTH",
"799 987 OFFCURVE",
"866 895 OFFCURVE",
"866 694 CURVE SMOOTH",
"866 0 LINE",
"1051 0 LINE",
"1051 694 LINE SMOOTH",
"1051 999 OFFCURVE",
"940 1147 OFFCURVE",
"711 1147 CURVE SMOOTH",
"558 1147 OFFCURVE",
"444 1080 OFFCURVE",
"379 952 CURVE",
"361 1120 LINE",
"195 1120 LINE"
);
}
);
width = 1233;
}
);
note = nacute;
unicode = 0144;
},
{
glyphname = ncaron;
lastChange = "2016-07-20 22:44:41 +0000";
layers = (
{
layerId = "C8600398-8A20-4DEB-92AF-E95853BEE82A";
paths = (
{
closed = 1;
nodes = (
"531 1297 LINE",
"678 1297 LINE",
"924 1673 LINE",
"785 1673 LINE",
"604 1428 LINE",
"424 1673 LINE",
"285 1673 LINE"
);
},
{
closed = 1;
nodes = (
"195 0 LINE",
"379 0 LINE",
"379 633 LINE SMOOTH",
"379 862 OFFCURVE",
"473 987 OFFCURVE",
"648 987 CURVE SMOOTH",
"799 987 OFFCURVE",
"866 895 OFFCURVE",
"866 694 CURVE SMOOTH",
"866 0 LINE",
"1051 0 LINE",
"1051 694 LINE SMOOTH",
"1051 999 OFFCURVE",
"940 1147 OFFCURVE",
"711 1147 CURVE SMOOTH",
"558 1147 OFFCURVE",
"444 1080 OFFCURVE",
"379 952 CURVE",
"361 1120 LINE",
"195 1120 LINE"
);
}
);
width = 1233;
}
);
note = ncaron;
unicode = 0148;
},
{
glyphname = uni0146;
lastChange = "2016-07-20 22:44:41 +0000";
layers = (
{
layerId = "C8600398-8A20-4DEB-92AF-E95853BEE82A";
paths = (
{
closed = 1;
nodes = (
"195 0 LINE",
"379 0 LINE",
"379 633 LINE SMOOTH",
"379 862 OFFCURVE",
"473 987 OFFCURVE",
"648 987 CURVE SMOOTH",
"799 987 OFFCURVE",
"866 895 OFFCURVE",
"866 694 CURVE SMOOTH",
"866 0 LINE",
"1051 0 LINE",
"1051 694 LINE SMOOTH",
"1051 999 OFFCURVE",
"940 1147 OFFCURVE",
"711 1147 CURVE SMOOTH",
"558 1147 OFFCURVE",
"444 1080 OFFCURVE",
"379 952 CURVE",
"361 1120 LINE",
"195 1120 LINE"
);
},
{
closed = 1;
nodes = (
"456 -544 LINE",
"602 -544 LINE",
"789 -199 LINE",
"550 -199 LINE"
);
}
);
width = 1233;
}
);
note = uni0146;
unicode = 0146;
},
{
glyphname = eng;
lastChange = "2016-07-20 22:44:41 +0000";
layers = (
{
layerId = "C8600398-8A20-4DEB-92AF-E95853BEE82A";
paths = (
{
closed = 1;
nodes = (
"502 -426 LINE",
"707 -426 LINE SMOOTH",
"928 -426 OFFCURVE",
"1051 -281 OFFCURVE",
"1051 -20 CURVE SMOOTH",
"1051 694 LINE SMOOTH",
"1051 999 OFFCURVE",
"940 1147 OFFCURVE",
"711 1147 CURVE SMOOTH",
"558 1147 OFFCURVE",
"444 1080 OFFCURVE",
"379 952 CURVE",
"361 1120 LINE",
"195 1120 LINE",
"195 0 LINE",
"379 0 LINE",
"379 633 LINE SMOOTH",
"379 862 OFFCURVE",
"473 987 OFFCURVE",
"648 987 CURVE SMOOTH",
"799 987 OFFCURVE",
"866 895 OFFCURVE",
"866 694 CURVE SMOOTH",
"866 -20 LINE SMOOTH",
"866 -187 OFFCURVE",
"806 -270 OFFCURVE",
"687 -270 CURVE SMOOTH",
"502 -270 LINE"
);
}
);
width = 1233;
}
);
note = eng;
unicode = 014B;
},
{
glyphname = ntilde;
lastChange = "2016-07-20 22:44:41 +0000";
layers = (
{
layerId = "C8600398-8A20-4DEB-92AF-E95853BEE82A";
paths = (
{
closed = 1;
nodes = (
"412 1340 OFFCURVE",
"419 1379 OFFCURVE",
"431 1404 CURVE SMOOTH",
"443 1429 OFFCURVE",
"462 1441 OFFCURVE",
"487 1441 CURVE SMOOTH",
"507 1441 OFFCURVE",
"528 1427 OFFCURVE",
"555 1402 CURVE SMOOTH",
"612 1347 LINE",
"661 1304 OFFCURVE",
"702 1286 OFFCURVE",
"753 1286 CURVE SMOOTH",
"873 1286 OFFCURVE",
"945 1391 OFFCURVE",
"946 1568 CURVE",
"821 1568 LINE",
"820 1515 OFFCURVE",
"814 1475 OFFCURVE",
"802 1450 CURVE SMOOTH",
"790 1425 OFFCURVE",
"771 1413 OFFCURVE",
"746 1413 CURVE SMOOTH",
"735 1413 OFFCURVE",
"729 1415 OFFCURVE",
"716 1423 CURVE SMOOTH",
"705 1430 OFFCURVE",
"693 1439 OFFCURVE",
"678 1452 CURVE",
"621 1507 LINE",
"572 1550 OFFCURVE",
"531 1568 OFFCURVE",
"480 1568 CURVE SMOOTH",
"360 1568 OFFCURVE",
"288 1463 OFFCURVE",
"287 1286 CURVE",
"411 1286 LINE"
);
},
{
closed = 1;
nodes = (
"195 0 LINE",
"379 0 LINE",
"379 633 LINE SMOOTH",
"379 862 OFFCURVE",
"474 987 OFFCURVE",
"646 987 CURVE SMOOTH",
"798 987 OFFCURVE",
"866 895 OFFCURVE",
"866 694 CURVE SMOOTH",
"866 0 LINE",
"1051 0 LINE",
"1051 694 LINE SMOOTH",
"1051 846 OFFCURVE",
"1023 960 OFFCURVE",
"967 1035 CURVE SMOOTH",
"910 1110 OFFCURVE",
"824 1147 OFFCURVE",
"710 1147 CURVE SMOOTH",
"555 1147 OFFCURVE",
"443 1079 OFFCURVE",
"379 952 CURVE",
"361 1120 LINE",
"195 1120 LINE"
);
}
);
width = 1233;
}
);
note = ntilde;
unicode = 00F1;
},
{
glyphname = o;
lastChange = "2016-07-20 22:44:41 +0000";
layers = (
{
layerId = "C8600398-8A20-4DEB-92AF-E95853BEE82A";
paths = (
{
closed = 1;
nodes = (
"773 -29 OFFCURVE",
"892 21 OFFCURVE",
"973 121 CURVE SMOOTH",
"1055 220 OFFCURVE",
"1096 366 OFFCURVE",
"1096 561 CURVE SMOOTH",
"1096 940 OFFCURVE",
"929 1147 OFFCURVE",
"616 1147 CURVE SMOOTH",
"305 1147 OFFCURVE",
"137 940 OFFCURVE",
"137 560 CURVE SMOOTH",
"137 369 OFFCURVE",
"178 222 OFFCURVE",
"260 121 CURVE SMOOTH",
"343 21 OFFCURVE",
"461 -29 OFFCURVE",
"616 -29 CURVE SMOOTH"
);
},
{
closed = 1;
nodes = (
"429 127 OFFCURVE",
"332 276 OFFCURVE",
"332 559 CURVE SMOOTH",
"332 844 OFFCURVE",
"429 991 OFFCURVE",
"616 991 CURVE SMOOTH",
"804 991 OFFCURVE",
"901 843 OFFCURVE",
"901 559 CURVE SMOOTH",
"901 276 OFFCURVE",
"804 127 OFFCURVE",
"616 127 CURVE SMOOTH"
);
}
);
width = 1233;
}
);
note = o;
unicode = 006F;
},
{
glyphname = oacute;
lastChange = "2016-07-20 22:44:41 +0000";
layers = (
{
layerId = "C8600398-8A20-4DEB-92AF-E95853BEE82A";
paths = (
{
closed = 1;
nodes = (
"475 1297 LINE",
"629 1297 LINE",
"954 1673 LINE",
"756 1673 LINE"
);
},
{
closed = 1;
nodes = (
"773 -29 OFFCURVE",
"892 21 OFFCURVE",
"973 121 CURVE SMOOTH",
"1055 220 OFFCURVE",
"1096 366 OFFCURVE",
"1096 561 CURVE SMOOTH",
"1096 940 OFFCURVE",
"929 1147 OFFCURVE",
"616 1147 CURVE SMOOTH",
"305 1147 OFFCURVE",
"137 940 OFFCURVE",
"137 560 CURVE SMOOTH",
"137 369 OFFCURVE",
"178 222 OFFCURVE",
"260 121 CURVE SMOOTH",
"343 21 OFFCURVE",
"461 -29 OFFCURVE",
"616 -29 CURVE SMOOTH"
);
},
{
closed = 1;
nodes = (
"429 127 OFFCURVE",
"332 276 OFFCURVE",
"332 559 CURVE SMOOTH",
"332 844 OFFCURVE",
"429 991 OFFCURVE",
"616 991 CURVE SMOOTH",
"804 991 OFFCURVE",
"901 843 OFFCURVE",
"901 559 CURVE SMOOTH",
"901 276 OFFCURVE",
"804 127 OFFCURVE",
"616 127 CURVE SMOOTH"
);
}
);
width = 1233;
}
);
note = oacute;
unicode = 00F3;
},
{
glyphname = ocircumflex;
lastChange = "2016-07-20 22:44:41 +0000";
layers = (
{
layerId = "C8600398-8A20-4DEB-92AF-E95853BEE82A";
paths = (
{
closed = 1;
nodes = (
"297 1297 LINE",
"436 1297 LINE",
"616 1542 LINE",
"797 1297 LINE",
"936 1297 LINE",
"690 1673 LINE",
"543 1673 LINE"
);
},
{
closed = 1;
nodes = (
"773 -29 OFFCURVE",
"892 21 OFFCURVE",
"973 121 CURVE SMOOTH",
"1055 220 OFFCURVE",
"1096 366 OFFCURVE",
"1096 561 CURVE SMOOTH",
"1096 940 OFFCURVE",
"929 1147 OFFCURVE",
"616 1147 CURVE SMOOTH",
"305 1147 OFFCURVE",
"137 940 OFFCURVE",
"137 560 CURVE SMOOTH",
"137 369 OFFCURVE",
"178 222 OFFCURVE",
"260 121 CURVE SMOOTH",
"343 21 OFFCURVE",
"461 -29 OFFCURVE",
"616 -29 CURVE SMOOTH"
);
},
{
closed = 1;
nodes = (
"429 127 OFFCURVE",
"332 276 OFFCURVE",
"332 559 CURVE SMOOTH",
"332 844 OFFCURVE",
"429 991 OFFCURVE",
"616 991 CURVE SMOOTH",
"804 991 OFFCURVE",
"901 843 OFFCURVE",
"901 559 CURVE SMOOTH",
"901 276 OFFCURVE",
"804 127 OFFCURVE",
"616 127 CURVE SMOOTH"
);
}
);
width = 1233;
}
);
note = ocircumflex;
unicode = 00F4;
},
{
glyphname = odieresis;
lastChange = "2016-07-20 22:44:41 +0000";
layers = (
{
layerId = "C8600398-8A20-4DEB-92AF-E95853BEE82A";
paths = (
{
closed = 1;
nodes = (
"512 1350 OFFCURVE",
"522 1360 OFFCURVE",
"522 1380 CURVE SMOOTH",
"522 1522 LINE SMOOTH",
"522 1542 OFFCURVE",
"512 1552 OFFCURVE",
"492 1552 CURVE SMOOTH",
"349 1552 LINE SMOOTH",
"329 1552 OFFCURVE",
"319 1542 OFFCURVE",
"319 1522 CURVE SMOOTH",
"319 1380 LINE SMOOTH",
"319 1360 OFFCURVE",
"329 1350 OFFCURVE",
"349 1350 CURVE SMOOTH",
"492 1350 LINE SMOOTH"
);
},
{
closed = 1;
nodes = (
"903 1350 OFFCURVE",
"913 1360 OFFCURVE",
"913 1380 CURVE SMOOTH",
"913 1522 LINE SMOOTH",
"913 1542 OFFCURVE",
"903 1552 OFFCURVE",
"883 1552 CURVE SMOOTH",
"741 1552 LINE SMOOTH",
"721 1552 OFFCURVE",
"711 1542 OFFCURVE",
"711 1522 CURVE SMOOTH",
"711 1380 LINE SMOOTH",
"711 1360 OFFCURVE",
"721 1350 OFFCURVE",
"741 1350 CURVE SMOOTH",
"883 1350 LINE SMOOTH"
);
},
{
closed = 1;
nodes = (
"773 -29 OFFCURVE",
"892 21 OFFCURVE",
"973 121 CURVE SMOOTH",
"1055 220 OFFCURVE",
"1096 366 OFFCURVE",
"1096 561 CURVE SMOOTH",
"1096 940 OFFCURVE",
"929 1147 OFFCURVE",
"616 1147 CURVE SMOOTH",
"305 1147 OFFCURVE",
"137 940 OFFCURVE",
"137 560 CURVE SMOOTH",
"137 369 OFFCURVE",
"178 222 OFFCURVE",
"260 121 CURVE SMOOTH",
"343 21 OFFCURVE",
"461 -29 OFFCURVE",
"616 -29 CURVE SMOOTH"
);
},
{
closed = 1;
nodes = (
"429 127 OFFCURVE",
"332 276 OFFCURVE",
"332 559 CURVE SMOOTH",
"332 844 OFFCURVE",
"429 991 OFFCURVE",
"616 991 CURVE SMOOTH",
"804 991 OFFCURVE",
"901 843 OFFCURVE",
"901 559 CURVE SMOOTH",
"901 276 OFFCURVE",
"804 127 OFFCURVE",
"616 127 CURVE SMOOTH"
);
}
);
width = 1233;
}
);
note = odieresis;
unicode = 00F6;
},
{
glyphname = ograve;
lastChange = "2016-07-20 22:44:41 +0000";
layers = (
{
layerId = "C8600398-8A20-4DEB-92AF-E95853BEE82A";
paths = (
{
closed = 1;
nodes = (
"604 1297 LINE",
"758 1297 LINE",
"477 1673 LINE",
"279 1673 LINE"
);
},
{
closed = 1;
nodes = (
"773 -29 OFFCURVE",
"892 21 OFFCURVE",
"973 121 CURVE SMOOTH",
"1055 220 OFFCURVE",
"1096 366 OFFCURVE",
"1096 561 CURVE SMOOTH",
"1096 940 OFFCURVE",
"929 1147 OFFCURVE",
"616 1147 CURVE SMOOTH",
"305 1147 OFFCURVE",
"137 940 OFFCURVE",
"137 560 CURVE SMOOTH",
"137 369 OFFCURVE",
"178 222 OFFCURVE",
"260 121 CURVE SMOOTH",
"343 21 OFFCURVE",
"461 -29 OFFCURVE",
"616 -29 CURVE SMOOTH"
);
},
{
closed = 1;
nodes = (
"429 127 OFFCURVE",
"332 276 OFFCURVE",
"332 559 CURVE SMOOTH",
"332 844 OFFCURVE",
"429 991 OFFCURVE",
"616 991 CURVE SMOOTH",
"804 991 OFFCURVE",
"901 843 OFFCURVE",
"901 559 CURVE SMOOTH",
"901 276 OFFCURVE",
"804 127 OFFCURVE",
"616 127 CURVE SMOOTH"
);
}
);
width = 1233;
}
);
note = ograve;
unicode = 00F2;
},
{
glyphname = ohorn;
lastChange = "2016-07-20 22:44:41 +0000";
layers = (
{
layerId = "C8600398-8A20-4DEB-92AF-E95853BEE82A";
paths = (
{
closed = 1;
nodes = (
"1069 1096 OFFCURVE",
"1079 1055 OFFCURVE",
"1079 1013 CURVE SMOOTH",
"1079 941 OFFCURVE",
"1047 903 OFFCURVE",
"991 903 CURVE SMOOTH",
"968 903 OFFCURVE",
"943 909 OFFCURVE",
"916 922 CURVE",
"837 1072 OFFCURVE",
"702 1147 OFFCURVE",
"511 1147 CURVE SMOOTH",
"200 1147 OFFCURVE",
"32 939 OFFCURVE",
"32 558 CURVE SMOOTH",
"32 174 OFFCURVE",
"198 -29 OFFCURVE",
"511 -29 CURVE SMOOTH",
"823 -29 OFFCURVE",
"991 177 OFFCURVE",
"991 558 CURVE SMOOTH",
"991 637 OFFCURVE",
"984 708 OFFCURVE",
"970 772 CURVE",
"985 767 OFFCURVE",
"1004 764 OFFCURVE",
"1028 764 CURVE SMOOTH",
"1144 764 OFFCURVE",
"1202 841 OFFCURVE",
"1202 994 CURVE SMOOTH",
"1202 1043 OFFCURVE",
"1197 1081 OFFCURVE",
"1182 1137 CURVE",
"1049 1137 LINE"
);
},
{
closed = 1;
nodes = (
"323 127 OFFCURVE",
"227 274 OFFCURVE",
"227 559 CURVE SMOOTH",
"227 846 OFFCURVE",
"323 991 OFFCURVE",
"511 991 CURVE SMOOTH",
"700 991 OFFCURVE",
"796 846 OFFCURVE",
"796 559 CURVE SMOOTH",
"796 274 OFFCURVE",
"700 127 OFFCURVE",
"511 127 CURVE SMOOTH"
);
}
);
width = 1233;
}
);
note = ohorn;
unicode = 01A1;
},
{
glyphname = ohungarumlaut;
lastChange = "2016-07-20 22:44:41 +0000";
layers = (
{
layerId = "C8600398-8A20-4DEB-92AF-E95853BEE82A";
paths = (
{
closed = 1;
nodes = (
"344 1297 LINE",
"481 1297 LINE",
"705 1673 LINE",
"535 1673 LINE"
);
},
{
closed = 1;
nodes = (
"664 1297 LINE",
"799 1297 LINE",
"1047 1673 LINE",
"868 1673 LINE"
);
},
{
closed = 1;
nodes = (
"928 -29 OFFCURVE",
"1096 177 OFFCURVE",
"1096 558 CURVE SMOOTH",
"1096 939 OFFCURVE",
"927 1147 OFFCURVE",
"616 1147 CURVE SMOOTH",
"305 1147 OFFCURVE",
"137 939 OFFCURVE",
"137 558 CURVE SMOOTH",
"137 174 OFFCURVE",
"303 -29 OFFCURVE",
"616 -29 CURVE SMOOTH"
);
},
{
closed = 1;
nodes = (
"428 127 OFFCURVE",
"332 274 OFFCURVE",
"332 559 CURVE SMOOTH",
"332 846 OFFCURVE",
"428 991 OFFCURVE",
"616 991 CURVE SMOOTH",
"805 991 OFFCURVE",
"901 846 OFFCURVE",
"901 559 CURVE SMOOTH",
"901 274 OFFCURVE",
"805 127 OFFCURVE",
"616 127 CURVE SMOOTH"
);
}
);
width = 1233;
}
);
note = ohungarumlaut;
unicode = 0151;
},
{
glyphname = omacron;
lastChange = "2016-07-20 22:44:41 +0000";
layers = (
{
layerId = "C8600398-8A20-4DEB-92AF-E95853BEE82A";
paths = (
{
closed = 1;
nodes = (
"317 1347 LINE",
"915 1347 LINE",
"915 1495 LINE",
"317 1495 LINE"
);
},
{
closed = 1;
nodes = (
"928 -29 OFFCURVE",
"1096 177 OFFCURVE",
"1096 558 CURVE SMOOTH",
"1096 939 OFFCURVE",
"927 1147 OFFCURVE",
"616 1147 CURVE SMOOTH",
"305 1147 OFFCURVE",
"137 939 OFFCURVE",
"137 558 CURVE SMOOTH",
"137 174 OFFCURVE",
"303 -29 OFFCURVE",
"616 -29 CURVE SMOOTH"
);
},
{
closed = 1;
nodes = (
"428 127 OFFCURVE",
"332 274 OFFCURVE",
"332 559 CURVE SMOOTH",
"332 846 OFFCURVE",
"428 991 OFFCURVE",
"616 991 CURVE SMOOTH",
"805 991 OFFCURVE",
"901 846 OFFCURVE",
"901 559 CURVE SMOOTH",
"901 274 OFFCURVE",
"805 127 OFFCURVE",
"616 127 CURVE SMOOTH"
);
}
);
width = 1233;
}
);
note = omacron;
unicode = 014D;
},
{
glyphname = oslash;
lastChange = "2016-07-20 22:44:41 +0000";
layers = (
{
layerId = "C8600398-8A20-4DEB-92AF-E95853BEE82A";
paths = (
{
closed = 1;
nodes = (
"139 -96 LINE",
"299 90 LINE",
"339 47 OFFCURVE",
"379 21 OFFCURVE",
"435 1 CURVE SMOOTH",
"489 -19 OFFCURVE",
"549 -29 OFFCURVE",
"615 -29 CURVE SMOOTH",
"928 -29 OFFCURVE",
"1096 172 OFFCURVE",
"1096 561 CURVE SMOOTH",
"1096 724 OFFCURVE",
"1066 851 OFFCURVE",
"1010 940 CURVE",
"1174 1135 LINE",
"1081 1212 LINE",
"934 1036 LINE",
"855 1111 OFFCURVE",
"759 1147 OFFCURVE",
"615 1147 CURVE SMOOTH",
"306 1147 OFFCURVE",
"137 940 OFFCURVE",
"137 559 CURVE SMOOTH",
"137 482 OFFCURVE",
"144 412 OFFCURVE",
"158 349 CURVE SMOOTH",
"171 281 OFFCURVE",
"188 233 OFFCURVE",
"217 180 CURVE",
"47 -20 LINE"
);
},
{
closed = 1;
nodes = (
"337 435 OFFCURVE",
"328 506 OFFCURVE",
"328 579 CURVE SMOOTH",
"328 842 OFFCURVE",
"431 991 OFFCURVE",
"616 991 CURVE SMOOTH",
"703 991 OFFCURVE",
"773 961 OFFCURVE",
"817 897 CURVE",
"356 340 LINE"
);
},
{
closed = 1;
nodes = (
"574 127 OFFCURVE",
"536 135 OFFCURVE",
"501 151 CURVE SMOOTH",
"466 167 OFFCURVE",
"442 186 OFFCURVE",
"414 221 CURVE",
"877 780 LINE",
"892 716 OFFCURVE",
"901 631 OFFCURVE",
"901 556 CURVE SMOOTH",
"901 277 OFFCURVE",
"804 127 OFFCURVE",
"615 127 CURVE SMOOTH"
);
}
);
width = 1233;
}
);
note = oslash;
unicode = 00F8;
},
{
glyphname = oslashacute;
lastChange = "2016-07-20 22:44:41 +0000";
layers = (
{
layerId = "C8600398-8A20-4DEB-92AF-E95853BEE82A";
paths = (
{
closed = 1;
nodes = (
"475 1297 LINE",
"629 1297 LINE",
"954 1673 LINE",
"756 1673 LINE"
);
},
{
closed = 1;
nodes = (
"139 -96 LINE",
"299 90 LINE",
"374 11 OFFCURVE",
"480 -29 OFFCURVE",
"616 -29 CURVE SMOOTH",
"929 -29 OFFCURVE",
"1096 173 OFFCURVE",
"1096 560 CURVE SMOOTH",
"1096 723 OFFCURVE",
"1067 850 OFFCURVE",
"1010 940 CURVE",
"1174 1135 LINE",
"1081 1212 LINE",
"934 1036 LINE",
"856 1110 OFFCURVE",
"751 1147 OFFCURVE",
"618 1147 CURVE SMOOTH",
"306 1147 OFFCURVE",
"137 941 OFFCURVE",
"137 562 CURVE SMOOTH",
"137 406 OFFCURVE",
"164 279 OFFCURVE",
"217 180 CURVE",
"47 -20 LINE"
);
},
{
closed = 1;
nodes = (
"336 439 OFFCURVE",
"328 509 OFFCURVE",
"328 584 CURVE SMOOTH",
"328 843 OFFCURVE",
"432 991 OFFCURVE",
"619 991 CURVE SMOOTH",
"706 991 OFFCURVE",
"772 960 OFFCURVE",
"817 897 CURVE",
"356 340 LINE"
);
},
{
closed = 1;
nodes = (
"529 127 OFFCURVE",
"462 158 OFFCURVE",
"414 221 CURVE",
"877 780 LINE",
"893 703 OFFCURVE",
"901 627 OFFCURVE",
"901 552 CURVE SMOOTH",
"901 276 OFFCURVE",
"803 127 OFFCURVE",
"615 127 CURVE SMOOTH"
);
}
);
width = 1233;
}
);
note = oslashacute;
unicode = 01FF;
},
{
glyphname = otilde;
lastChange = "2016-07-20 22:44:41 +0000";
layers = (
{
layerId = "C8600398-8A20-4DEB-92AF-E95853BEE82A";
paths = (
{
closed = 1;
nodes = (
"412 1340 OFFCURVE",
"419 1379 OFFCURVE",
"431 1404 CURVE SMOOTH",
"443 1429 OFFCURVE",
"462 1441 OFFCURVE",
"487 1441 CURVE SMOOTH",
"507 1441 OFFCURVE",
"528 1427 OFFCURVE",
"555 1402 CURVE SMOOTH",
"612 1347 LINE",
"661 1304 OFFCURVE",
"702 1286 OFFCURVE",
"753 1286 CURVE SMOOTH",
"873 1286 OFFCURVE",
"945 1391 OFFCURVE",
"946 1568 CURVE",
"821 1568 LINE",
"820 1515 OFFCURVE",
"814 1475 OFFCURVE",
"802 1450 CURVE SMOOTH",
"790 1425 OFFCURVE",
"771 1413 OFFCURVE",
"746 1413 CURVE SMOOTH",
"735 1413 OFFCURVE",
"729 1415 OFFCURVE",
"716 1423 CURVE SMOOTH",
"705 1430 OFFCURVE",
"693 1439 OFFCURVE",
"678 1452 CURVE",
"621 1507 LINE",
"572 1550 OFFCURVE",
"531 1568 OFFCURVE",
"480 1568 CURVE SMOOTH",
"360 1568 OFFCURVE",
"288 1463 OFFCURVE",
"287 1286 CURVE",
"411 1286 LINE"
);
},
{
closed = 1;
nodes = (
"773 -29 OFFCURVE",
"892 21 OFFCURVE",
"973 121 CURVE SMOOTH",
"1055 220 OFFCURVE",
"1096 366 OFFCURVE",
"1096 561 CURVE SMOOTH",
"1096 940 OFFCURVE",
"929 1147 OFFCURVE",
"616 1147 CURVE SMOOTH",
"305 1147 OFFCURVE",
"137 940 OFFCURVE",
"137 560 CURVE SMOOTH",
"137 369 OFFCURVE",
"178 222 OFFCURVE",
"260 121 CURVE SMOOTH",
"343 21 OFFCURVE",
"461 -29 OFFCURVE",
"616 -29 CURVE SMOOTH"
);
},
{
closed = 1;
nodes = (
"429 127 OFFCURVE",
"332 276 OFFCURVE",
"332 559 CURVE SMOOTH",
"332 844 OFFCURVE",
"429 991 OFFCURVE",
"616 991 CURVE SMOOTH",
"804 991 OFFCURVE",
"901 843 OFFCURVE",
"901 559 CURVE SMOOTH",
"901 276 OFFCURVE",
"804 127 OFFCURVE",
"616 127 CURVE SMOOTH"
);
}
);
width = 1233;
}
);
note = otilde;
unicode = 00F5;
},
{
glyphname = oe;
lastChange = "2016-07-20 22:44:41 +0000";
layers = (
{
layerId = "C8600398-8A20-4DEB-92AF-E95853BEE82A";
paths = (
{
closed = 1;
nodes = (
"489 -29 OFFCURVE",
"565 12 OFFCURVE",
"637 104 CURVE",
"701 16 OFFCURVE",
"804 -29 OFFCURVE",
"927 -29 CURVE SMOOTH",
"1034 -29 OFFCURVE",
"1113 -4 OFFCURVE",
"1188 55 CURVE",
"1188 227 LINE",
"1157 192 OFFCURVE",
"1119 167 OFFCURVE",
"1076 150 CURVE SMOOTH",
"1034 132 OFFCURVE",
"986 123 OFFCURVE",
"932 123 CURVE SMOOTH",
"853 123 OFFCURVE",
"802 146 OFFCURVE",
"769 195 CURVE SMOOTH",
"736 244 OFFCURVE",
"719 323 OFFCURVE",
"719 430 CURVE SMOOTH",
"719 514 LINE",
"1210 514 LINE",
"1210 604 LINE SMOOTH",
"1210 1012 OFFCURVE",
"1124 1147 OFFCURVE",
"893 1147 CURVE SMOOTH",
"769 1147 OFFCURVE",
"685 1100 OFFCURVE",
"637 1020 CURVE",
"574 1107 OFFCURVE",
"494 1147 OFFCURVE",
"373 1147 CURVE SMOOTH",
"245 1147 OFFCURVE",
"156 1101 OFFCURVE",
"99 1008 CURVE SMOOTH",
"43 916 OFFCURVE",
"14 777 OFFCURVE",
"14 558 CURVE SMOOTH",
"14 346 OFFCURVE",
"40 204 OFFCURVE",
"100 109 CURVE SMOOTH",
"157 18 OFFCURVE",
"241 -29 OFFCURVE",
"369 -29 CURVE SMOOTH"
);
},
{
closed = 1;
nodes = (
"339 123 OFFCURVE",
"310 130 OFFCURVE",
"287 143 CURVE SMOOTH",
"240 170 OFFCURVE",
"213 223 OFFCURVE",
"200 332 CURVE SMOOTH",
"193 387 OFFCURVE",
"190 462 OFFCURVE",
"190 558 CURVE SMOOTH",
"190 656 OFFCURVE",
"193 732 OFFCURVE",
"200 787 CURVE SMOOTH",
"213 895 OFFCURVE",
"236 995 OFFCURVE",
"373 995 CURVE SMOOTH",
"444 995 OFFCURVE",
"489 970 OFFCURVE",
"516 907 CURVE SMOOTH",
"544 843 OFFCURVE",
"557 733 OFFCURVE",
"557 550 CURVE SMOOTH",
"557 458 OFFCURVE",
"554 385 OFFCURVE",
"547 331 CURVE SMOOTH",
"534 223 OFFCURVE",
"511 123 OFFCURVE",
"372 123 CURVE SMOOTH"
);
},
{
closed = 1;
nodes = (
"719 700 LINE SMOOTH",
"719 911 OFFCURVE",
"767 995 OFFCURVE",
"883 995 CURVE SMOOTH",
"998 995 OFFCURVE",
"1049 912 OFFCURVE",
"1049 709 CURVE",
"1048 687 LINE",
"1047 678 OFFCURVE",
"1047 668 OFFCURVE",
"1047 657 CURVE",
"719 657 LINE"
);
}
);
width = 1233;
}
);
note = oe;
unicode = 0153;
},
{
glyphname = p;
lastChange = "2016-07-20 22:44:41 +0000";
layers = (
{
layerId = "C8600398-8A20-4DEB-92AF-E95853BEE82A";
paths = (
{
closed = 1;
nodes = (
"190 -426 LINE",
"375 -426 LINE",
"375 141 LINE",
"404 87 OFFCURVE",
"445 45 OFFCURVE",
"496 15 CURVE SMOOTH",
"548 -14 OFFCURVE",
"601 -29 OFFCURVE",
"674 -29 CURVE SMOOTH",
"945 -29 OFFCURVE",
"1108 190 OFFCURVE",
"1108 557 CURVE SMOOTH",
"1108 925 OFFCURVE",
"946 1147 OFFCURVE",
"675 1147 CURVE SMOOTH",
"540 1147 OFFCURVE",
"436 1088 OFFCURVE",
"375 977 CURVE",
"357 1120 LINE",
"190 1120 LINE"
);
},
{
closed = 1;
nodes = (
"468 127 OFFCURVE",
"375 276 OFFCURVE",
"375 559 CURVE SMOOTH",
"375 844 OFFCURVE",
"468 991 OFFCURVE",
"647 991 CURVE SMOOTH",
"826 991 OFFCURVE",
"915 844 OFFCURVE",
"915 559 CURVE SMOOTH",
"915 274 OFFCURVE",
"826 127 OFFCURVE",
"647 127 CURVE SMOOTH"
);
}
);
width = 1233;
}
);
note = p;
unicode = 0070;
},
{
glyphname = thorn;
lastChange = "2016-07-20 22:44:41 +0000";
layers = (
{
layerId = "C8600398-8A20-4DEB-92AF-E95853BEE82A";
paths = (
{
closed = 1;
nodes = (
"190 -426 LINE",
"375 -426 LINE",
"375 141 LINE",
"404 87 OFFCURVE",
"445 45 OFFCURVE",
"496 15 CURVE SMOOTH",
"548 -14 OFFCURVE",
"601 -29 OFFCURVE",
"674 -29 CURVE SMOOTH",
"945 -29 OFFCURVE",
"1108 190 OFFCURVE",
"1108 557 CURVE SMOOTH",
"1108 925 OFFCURVE",
"946 1147 OFFCURVE",
"675 1147 CURVE SMOOTH",
"540 1147 OFFCURVE",
"436 1088 OFFCURVE",
"375 977 CURVE",
"375 1567 LINE",
"190 1567 LINE"
);
},
{
closed = 1;
nodes = (
"468 127 OFFCURVE",
"375 276 OFFCURVE",
"375 559 CURVE SMOOTH",
"375 844 OFFCURVE",
"468 991 OFFCURVE",
"647 991 CURVE SMOOTH",
"826 991 OFFCURVE",
"915 844 OFFCURVE",
"915 559 CURVE SMOOTH",
"915 274 OFFCURVE",
"826 127 OFFCURVE",
"647 127 CURVE SMOOTH"
);
}
);
width = 1233;
}
);
note = thorn;
unicode = 00FE;
},
{
glyphname = q;
lastChange = "2016-07-20 22:44:41 +0000";
layers = (
{
layerId = "C8600398-8A20-4DEB-92AF-E95853BEE82A";
paths = (
{
closed = 1;
nodes = (
"1055 -430 LINE",
"1055 1116 LINE",
"888 1116 LINE",
"870 973 LINE",
"807 1085 OFFCURVE",
"706 1143 OFFCURVE",
"570 1143 CURVE SMOOTH",
"438 1143 OFFCURVE",
"330 1091 OFFCURVE",
"253 987 CURVE SMOOTH",
"176 882 OFFCURVE",
"137 737 OFFCURVE",
"137 551 CURVE SMOOTH",
"137 187 OFFCURVE",
"304 -33 OFFCURVE",
"569 -33 CURVE SMOOTH",
"708 -33 OFFCURVE",
"807 26 OFFCURVE",
"870 139 CURVE",
"870 -430 LINE"
);
},
{
closed = 1;
nodes = (
"423 123 OFFCURVE",
"332 271 OFFCURVE",
"332 555 CURVE SMOOTH",
"332 839 OFFCURVE",
"423 987 OFFCURVE",
"600 987 CURVE SMOOTH",
"779 987 OFFCURVE",
"870 839 OFFCURVE",
"870 555 CURVE SMOOTH",
"870 272 OFFCURVE",
"778 123 OFFCURVE",
"599 123 CURVE SMOOTH"
);
}
);
width = 1233;
}
);
note = q;
unicode = 0071;
},
{
glyphname = r;
lastChange = "2016-07-20 22:44:41 +0000";
layers = (
{
layerId = "C8600398-8A20-4DEB-92AF-E95853BEE82A";
paths = (
{
closed = 1;
nodes = (
"302 0 LINE",
"487 0 LINE",
"487 557 LINE SMOOTH",
"487 832 OFFCURVE",
"613 977 OFFCURVE",
"840 977 CURVE SMOOTH",
"939 977 OFFCURVE",
"1020 950 OFFCURVE",
"1095 889 CURVE",
"1095 1077 LINE",
"1026 1125 OFFCURVE",
"942 1147 OFFCURVE",
"854 1147 CURVE SMOOTH",
"679 1147 OFFCURVE",
"548 1058 OFFCURVE",
"487 901 CURVE",
"469 1120 LINE",
"302 1120 LINE"
);
}
);
width = 1233;
}
);
note = r;
unicode = 0072;
},
{
glyphname = racute;
lastChange = "2016-07-20 22:44:41 +0000";
layers = (
{
layerId = "C8600398-8A20-4DEB-92AF-E95853BEE82A";
paths = (
{
closed = 1;
nodes = (
"541 1298 LINE",
"695 1298 LINE",
"1020 1674 LINE",
"822 1674 LINE"
);
},
{
closed = 1;
nodes = (
"302 0 LINE",
"487 0 LINE",
"487 557 LINE SMOOTH",
"487 830 OFFCURVE",
"610 977 OFFCURVE",
"841 977 CURVE SMOOTH",
"938 977 OFFCURVE",
"1015 950 OFFCURVE",
"1095 889 CURVE",
"1095 1077 LINE",
"1025 1124 OFFCURVE",
"945 1147 OFFCURVE",
"856 1147 CURVE SMOOTH",
"676 1147 OFFCURVE",
"548 1058 OFFCURVE",
"487 901 CURVE",
"469 1120 LINE",
"302 1120 LINE"
);
}
);
width = 1233;
}
);
note = racute;
unicode = 0155;
},
{
glyphname = rcaron;
lastChange = "2016-07-20 22:44:41 +0000";
layers = (
{
layerId = "C8600398-8A20-4DEB-92AF-E95853BEE82A";
paths = (
{
closed = 1;
nodes = (
"583 1297 LINE",
"730 1297 LINE",
"976 1673 LINE",
"837 1673 LINE",
"656 1428 LINE",
"476 1673 LINE",
"337 1673 LINE"
);
},
{
closed = 1;
nodes = (
"302 0 LINE",
"487 0 LINE",
"487 557 LINE SMOOTH",
"487 830 OFFCURVE",
"610 977 OFFCURVE",
"841 977 CURVE SMOOTH",
"938 977 OFFCURVE",
"1015 950 OFFCURVE",
"1095 889 CURVE",
"1095 1077 LINE",
"1025 1124 OFFCURVE",
"945 1147 OFFCURVE",
"856 1147 CURVE SMOOTH",
"676 1147 OFFCURVE",
"548 1058 OFFCURVE",
"487 901 CURVE",
"469 1120 LINE",
"302 1120 LINE"
);
}
);
width = 1233;
}
);
note = rcaron;
unicode = 0159;
},
{
glyphname = uni0157;
lastChange = "2016-07-20 22:44:41 +0000";
layers = (
{
layerId = "C8600398-8A20-4DEB-92AF-E95853BEE82A";
paths = (
{
closed = 1;
nodes = (
"302 0 LINE",
"487 0 LINE",
"487 557 LINE SMOOTH",
"487 830 OFFCURVE",
"610 977 OFFCURVE",
"841 977 CURVE SMOOTH",
"938 977 OFFCURVE",
"1015 950 OFFCURVE",
"1095 889 CURVE",
"1095 1077 LINE",
"1025 1124 OFFCURVE",
"945 1147 OFFCURVE",
"856 1147 CURVE SMOOTH",
"676 1147 OFFCURVE",
"548 1058 OFFCURVE",
"487 901 CURVE",
"469 1120 LINE",
"302 1120 LINE"
);
},
{
closed = 1;
nodes = (
"228 -544 LINE",
"374 -544 LINE",
"561 -199 LINE",
"322 -199 LINE"
);
}
);
width = 1233;
}
);
note = uni0157;
unicode = 0157;
},
{
glyphname = s;
lastChange = "2016-07-20 22:44:41 +0000";
layers = (
{
layerId = "C8600398-8A20-4DEB-92AF-E95853BEE82A";
paths = (
{
closed = 1;
nodes = (
"861 -29 OFFCURVE",
"1030 103 OFFCURVE",
"1030 323 CURVE SMOOTH",
"1030 408 OFFCURVE",
"1007 476 OFFCURVE",
"960 527 CURVE SMOOTH",
"915 578 OFFCURVE",
"846 612 OFFCURVE",
"752 631 CURVE SMOOTH",
"678 645 LINE SMOOTH",
"558 668 OFFCURVE",
"482 692 OFFCURVE",
"449 717 CURVE SMOOTH",
"418 741 OFFCURVE",
"403 780 OFFCURVE",
"403 828 CURVE SMOOTH",
"403 940 OFFCURVE",
"486 993 OFFCURVE",
"647 993 CURVE SMOOTH",
"762 993 OFFCURVE",
"868 962 OFFCURVE",
"973 901 CURVE",
"973 1081 LINE",
"872 1122 OFFCURVE",
"759 1147 OFFCURVE",
"639 1147 CURVE SMOOTH",
"366 1147 OFFCURVE",
"217 1028 OFFCURVE",
"217 812 CURVE SMOOTH",
"217 641 OFFCURVE",
"310 549 OFFCURVE",
"522 506 CURVE SMOOTH",
"591 492 LINE",
"599 490 LINE",
"768 455 OFFCURVE",
"844 399 OFFCURVE",
"844 307 CURVE SMOOTH",
"844 256 OFFCURVE",
"822 208 OFFCURVE",
"777 175 CURVE SMOOTH",
"732 142 OFFCURVE",
"669 125 OFFCURVE",
"588 125 CURVE SMOOTH",
"534 125 OFFCURVE",
"475 134 OFFCURVE",
"410 152 CURVE SMOOTH",
"349 169 OFFCURVE",
"293 191 OFFCURVE",
"213 231 CURVE",
"213 41 LINE",
"348 -3 OFFCURVE",
"467 -29 OFFCURVE",
"590 -29 CURVE SMOOTH"
);
}
);
width = 1233;
}
);
note = s;
unicode = 0073;
},
{
glyphname = sacute;
lastChange = "2016-07-20 22:44:41 +0000";
layers = (
{
layerId = "C8600398-8A20-4DEB-92AF-E95853BEE82A";
paths = (
{
closed = 1;
nodes = (
"501 1297 LINE",
"655 1297 LINE",
"980 1673 LINE",
"782 1673 LINE"
);
},
{
closed = 1;
nodes = (
"678 -29 OFFCURVE",
"757 -15 OFFCURVE",
"824 13 CURVE SMOOTH",
"957 69 OFFCURVE",
"1030 177 OFFCURVE",
"1030 324 CURVE SMOOTH",
"1030 492 OFFCURVE",
"936 596 OFFCURVE",
"752 631 CURVE SMOOTH",
"678 645 LINE SMOOTH",
"557 669 OFFCURVE",
"482 690 OFFCURVE",
"449 717 CURVE SMOOTH",
"418 741 OFFCURVE",
"403 780 OFFCURVE",
"403 828 CURVE SMOOTH",
"403 938 OFFCURVE",
"484 993 OFFCURVE",
"645 993 CURVE SMOOTH",
"762 993 OFFCURVE",
"862 964 OFFCURVE",
"973 901 CURVE",
"973 1081 LINE",
"866 1125 OFFCURVE",
"754 1147 OFFCURVE",
"639 1147 CURVE SMOOTH",
"364 1147 OFFCURVE",
"217 1027 OFFCURVE",
"217 810 CURVE SMOOTH",
"217 643 OFFCURVE",
"306 549 OFFCURVE",
"522 506 CURVE SMOOTH",
"591 492 LINE",
"599 490 LINE",
"774 453 OFFCURVE",
"844 397 OFFCURVE",
"844 305 CURVE SMOOTH",
"844 196 OFFCURVE",
"748 125 OFFCURVE",
"588 125 CURVE SMOOTH",
"475 125 OFFCURVE",
"350 160 OFFCURVE",
"213 231 CURVE",
"213 41 LINE",
"356 -7 OFFCURVE",
"472 -29 OFFCURVE",
"587 -29 CURVE SMOOTH"
);
}
);
width = 1233;
}
);
note = sacute;
unicode = 015B;
},
{
glyphname = scaron;
lastChange = "2016-07-20 22:44:41 +0000";
layers = (
{
layerId = "C8600398-8A20-4DEB-92AF-E95853BEE82A";
paths = (
{
closed = 1;
nodes = (
"543 1297 LINE",
"690 1297 LINE",
"936 1673 LINE",
"797 1673 LINE",
"616 1428 LINE",
"436 1673 LINE",
"297 1673 LINE"
);
},
{
closed = 1;
nodes = (
"861 -29 OFFCURVE",
"1030 103 OFFCURVE",
"1030 323 CURVE SMOOTH",
"1030 408 OFFCURVE",
"1007 476 OFFCURVE",
"960 527 CURVE SMOOTH",
"915 578 OFFCURVE",
"846 612 OFFCURVE",
"752 631 CURVE SMOOTH",
"678 645 LINE SMOOTH",
"558 668 OFFCURVE",
"482 692 OFFCURVE",
"449 717 CURVE SMOOTH",
"418 741 OFFCURVE",
"403 780 OFFCURVE",
"403 828 CURVE SMOOTH",
"403 940 OFFCURVE",
"486 993 OFFCURVE",
"647 993 CURVE SMOOTH",
"762 993 OFFCURVE",
"868 962 OFFCURVE",
"973 901 CURVE",
"973 1081 LINE",
"872 1122 OFFCURVE",
"759 1147 OFFCURVE",
"639 1147 CURVE SMOOTH",
"366 1147 OFFCURVE",
"217 1028 OFFCURVE",
"217 812 CURVE SMOOTH",
"217 641 OFFCURVE",
"310 549 OFFCURVE",
"522 506 CURVE SMOOTH",
"591 492 LINE",
"599 490 LINE",
"768 455 OFFCURVE",
"844 399 OFFCURVE",
"844 307 CURVE SMOOTH",
"844 256 OFFCURVE",
"822 208 OFFCURVE",
"777 175 CURVE SMOOTH",
"732 142 OFFCURVE",
"669 125 OFFCURVE",
"588 125 CURVE SMOOTH",
"534 125 OFFCURVE",
"475 134 OFFCURVE",
"410 152 CURVE SMOOTH",
"349 169 OFFCURVE",
"293 191 OFFCURVE",
"213 231 CURVE",
"213 41 LINE",
"348 -3 OFFCURVE",
"467 -29 OFFCURVE",
"590 -29 CURVE SMOOTH"
);
}
);
width = 1233;
}
);
note = scaron;
unicode = 0161;
},
